<?xml version="1.0" encoding="utf-8"?>
<!-- Generator: Adobe Illustrator 19.0.0, SVG Export Plug-In . SVG Version: 6.00 Build 0)  -->
<svg version="1.1" id="Capa_1" xmlns="http://www.w3.org/2000/svg" xmlns:xlink="http://www.w3.org/1999/xlink" x="0px" y="0px"
	 viewBox="0 0 425.2 425.2" style="enable-background:new 0 0 425.2 425.2;" xml:space="preserve">
<style type="text/css">
	.st0{opacity:0.3;}
	.st1{fill:#FFFFFF;}
	.st2{fill:#C5BA9F;}
</style>
<g>
	<g>
		<g class="st0">
			<path class="st1" d="M295.5,143.3l0.8-5.8c0,0-3.3-1.8-3-4c0,0-5-9.3-9.3-8.3c0,0,0.8,4-1,2l-1.3-1c0,0-1,1.5-2.8,0
				c0,0-2-1.8-3.8-1.3c0,0-4.8-4.5-6.3-2c0,0,2,3.5,0.3,3l-1.5-0.8v1.3c0,0-2,0.3-5.8-5.3l-2-0.5l0.3,2.5c0,0-5,1-6.5-1.5
				c0,0-3-6.3-2.5-8l-3.3,1l-1.8-2.8c0,0-2,0.5-1.3,1.5s0.8,2,0.8,2s-1,2-2,2s-3-0.3-2.3,1s0,1.3,0.5,2.3s1.3,3.5,0,3
				s-2.3-3-2.3-0.5s1.8,4,1.8,4s-0.3,2.5-1,1.3s-2-3-2-1.8s0,2.5,0,2.5l-1,0.5c0,0,1,2.3,1,3.3s0.8,5,0,5.3s-1.3,2-1.3,2
				s-1.5,0.5-1.3-0.5s1-2,1-4s-1.5-5.5-1.5-7.3s-1-3-1-3s-1.5,1.3-1.5,3s-2.8,0.3-1,2.8s2.8,3,2.5,3.8s0,1.5-1.5,0.5
				s-1.8-0.5-2.8-2.5s-3-3.5-2.5-1.8s1.3,4,1.3,4s-0.3,1.8-2,1.3s-2.8-0.5-2.8-0.5s-1.5-1-2,0.3s-1,2-1.8,2.5s-0.8,0.5-0.8,0.5
				s-0.8-1-0.3-1.8s0.8-1,0-1.8s-2.5-0.3-1.8,2.8s-0.3,1.8-1,1.8s-1.3,1.8-1.3,1.8v1.8l-1.5-1.3l-1,2c0,0-3.3-3-1-4.3
				s3.5-0.3,3.5-0.3s1.3-3,0.3-3.5s-3.8-3.3-3.8-3.3l-1.8-0.8v-2l-2,0.3c0,0-2,2.8-3,2s-1-1.3-2-1.3s-3.5,1.8-3,3.5
				s-0.8,3.3-0.8,3.3s-2.8,2.3-3.5,2.8s-4.5,5.8-5,6.8s-3.3,4.3-3.3,4.3l5.3,1.3c0,0,1.5,1.8,0,2.3s-2.3,1.3-2.3,2.5
				s-1.5,2.5-1.5,2.5s-0.5,1-1.8,1.3S185,164,185,164s-2.5-4-1.8-5.3s1.3-3.8,2.3-4s-2.5-1.3-2.5-1.3l-2.3-0.3h-1.5v2.5
				c0,0-2.8,1.8-3.3,2.5s1.3,2,1.3,2l-1.3,2.3l2.3-0.5c0,0,1-3.3,2-2.8s1.5,2,0.8,2s-2.3,2-2.3,2l0.5,1.5l1.8,0.5c0,0,1.5-1,1.8,0
				s-1,2.3-1.8,2.3s-3-1-3-1l0.3,3c0,0-0.5,1.5,0.8,2s1.3,2,1.3,2L178,175c0,0-3.5-1-4.3-0.8s-2,4-0.8,6s-0.8,0.5,1.3,2
				s1.5,1.8,3.5,1.3s2.3-2,2.3-2l-0.3-2c0,0,0-1.3,1.3-2s2-2.5,2-2.5l3.5,0.3v4.5c0,0,1,1,2.5,1s3,0,3,0l-0.5,1.8l1.3,0.3
				c0,0,0.8-1,0.5-2s-0.3-2.3-1-2.3s-1.5,1.3-0.8,0s1-3,1-3s2,0.8,2.3,1.8s-1.3,2.8,0,3.5s1.3-1.3,1.3,0.8s0,2.5,0.8,3s0,2,0.8,0.5
				s1.3-2.8,1.3-2.8s-2.3,0-1.3-1s0,0.3,2-1s1,0.8,1.3,2s-1.3,2.5,0.3,3s1.3,1,3.3,1.3s2.3,0,3.3,0.3s1.3,0.3,1,1.3s-2.3,2.5-2,3.5
				s-1,1.3-1.8,1s-5-0.8-5-0.8s-2.3-0.5-3.5,0s0.8,0-1.3,0.5s-3,1.5-4-0.3s-2-1.8-3-2.8s-1.5-2-1-2.8s0.3-2.5,0.3-2.5l-5.3-0.3
				l-6.3,1c0,0-0.5,1.3-1.8,2.3s-3.8,5.5-5.3,5.5c0,0-2.8,8.3-2.5,9s-3,7,2.3,10.5s1.8,5,7.8,4.5s8.5-0.3,9.8,2.5s4,9.8,4.5,11.8
				s0.5,6.3-0.5,4.8s3.8,9.5,5.3,11.8s1,4.8,5,5.5s3.5,1.5,5-1.5s1.8-4.3,1.8-5s2-0.3,2-0.3v-3c0,0,1.3-2.5,2.8-3.8s1.3-4.5,1.3-4.5
				l-1.3-2.8c0,0,3,1.5,3.8-0.3s0.8-1.8,0.8-1.8l-4.3-1c0,0,0-2.8,1.3-3.8s1.5-2.3,1.5-2.3l2.5-1.5c0,0,4.3-4.3,4-7.5c0,0-4.8,1-6,1
				s-1.8-3.5-1.8-3.5s-4-10.8-5.8-11s-1.5-4-0.3-4c0,0,3.8,4.5,4.8,7.8s3.3,8,3.3,8s13.3-4.5,13.3-9S226,200,226,200s-4,0.3-5.8-1.8
				c0,0-2.3-4.3-0.8-4.3s4,2,4.8,3s4.5,1,4.5,1s6.5,0.5,7.8,0.5s2.3,3.3,2.3,3.3s2.5,2,4,2s0,4,0,4s1.3,8,3.8,8s3-4.3,2.8-7.8
				s1.3-1.3,2.5-1.8s3.8-3.5,4-4.5s3.8-1.8,3.8-1.8s-0.8,1.5,1,3.5s0.5,4.8,0.5,4.8s1.5,2.3,3.5,1.8s-1,2.8,0.3,4.3s3.3,8.3,1,6.3
				l-3-2c0,0,4.8,8.3,6.3,8.3c0,0,3.5-1.5,0.3-2.5c0,0,1-4.8-0.5-7c0,0-2.8-0.5-2.3-7.3c0,0,2.8,1,3.5,3.8c0,0,4.8-1.3,3-6.8
				c0,0-2.8-3.3,0.5-3.5c0,0,2-0.5,1.8-3.3c0,0,4.5-3,5.3-4.5s2-7.8-0.3-10.5s-0.3-2.8-0.3-2.8s-3-4.5-1.3-4.3s2.5-2,3,0
				s2.3,2.5,3.5,0.5c0,0,1.3-4.3,1.3-5.5s1-0.5,2-0.5s0.3-3.3,0.3-3.3l0.8-8.8c0,0,2.3,4,2.3,1.5s-1.8-5-3.3-5.3s-3.8-0.5-3.8-0.5
				l0.3-9.5c0,0,2.8,1.8,3.8-0.5s0.8,1.3,2,1.3s-1.3-6.5-0.3-6.3s2.3,0,2.3,0s1,3,1.3,3.8s1.8,9,3.5,12
				C297.5,157.3,294.5,144,295.5,143.3z M199.3,157l-0.3,2c0,0-0.8-0.3-1.5,0s-2.8-0.8-2.8-0.8s0.8-2.5,2-3.8s0.5-4,0.5-4
				c1.5,0.3,1.3-3.3,3-2.8s1.3,2.8,1.3,2.8l3.8,0.8c0,0,2,0.5,0.8,1.3s-4,0.8-4,0.8s0.3,1.5,0.5,2.3s-0.3,1.3-1.3,1.5
				S199.3,157,199.3,157z M212.8,180.5c-1,0.3-4.8-0.3-4.8-0.3l-2.5-1c0,0-0.3,1-1,1s-2.5-0.5-2.5-0.5l1-3.3l1.3-2.8
				c0,0,0.5-1,1.8-1s1.8,1.5,1.5,2.3s2.8,1,2.8,0.3s1-0.3,1.8,1s2.5,2.5,2.5,2.5S213.8,180.3,212.8,180.5z M223.8,186.3
				c-1.3,0-1.8-0.3-2.5-0.5s-1-1.3-1.3-2.8s0,0,0.8-1.5s-0.3-1-1.3-2.3s-0.3-1-1-1.5s-1-1.8-1-1.8s2-1.8,2.3-2.8s1.8,0.3,2.5,0
				s1.3-0.8,1.3-0.8l1,1.5c0,0,0,0-0.8,1.5s0,0-1-0.3s-0.3,1-0.3,1s0.3,1.8,1.5,3.3s0,0,0.3,1.3s0.5,1.3,0.3,2.5s1,1.3,1,1.3
				S225,186.3,223.8,186.3z"/>
			<path class="st1" d="M219,96.3c0,0-14,4.3-15.3,4.3l3.3-2.3c0,0,5.8-0.3,5.8-1.8s-3.8,0.3-3.8,0.3s-2.3,0.5-3.3,1
				s-3.5,1.5-4.5,1.8s-2,0.5-2.8,1s-0.8-0.8-3,0.3s-6.5,1.8-7.3,3.3s1.5,0.5-0.8,1.5s-2.8,1-3.8,1.5s-3.8,0.8-3.8,0.8l-1.3,1.5
				l4.5,0.3c0,0,2.3-2,4-2.5s3.5-3,5.8-3.5s3.5-0.5,4.3-0.5s-8,3.5-9.8,5.5s-4,1-4,2.8s-0.8,3-1.5,3.3s-0.5,1.3-2.8,3.3
				s-4.5,3-4.8,5s0.5,2-1.3,2.5s-3.5,0-2.5,1.5s-0.5,2.8-0.5,2.8s-2,0.3-2.5,1.8s-3.3,5.8-3.3,7.3s-2.3,3-1.8,4.5s0.5,2.8,2,0.8
				s0.5-1.8,2.5-3.5s2.8-3.3,5.5-4.8s5.3-2.8,6.8-3.5s4-0.3,3.8-3.3s2.3-3.3,3.3-4s1.8-2.3,2.8-3.5s2-2,2.8-2.3s2.5-4,3.3-4.8
				s2-1.5,2.8-2.5s1.8-2.5,3-3.5s1.3-0.8,3.5-2s1.3-1,4-2.5s3.8-1.5,4-2.3S217.5,96.5,219,96.3z"/>
			<path class="st1" d="M146,141.8c0,0-10.3,17.5-12.3,36l1.5,2c0,0,1-0.8,1.5-2.5s1.5-2,1.8-3s-0.3-1.5,0.3-2.3s0.5-0.3,1.8-2.5
				s0.8-2,1.8-3.3s2.3-3.5,2.5-1.8s0.5,2.8,1.3,0.5s0.3-2.5,0.5-3.5s1-1.8,0-2s-1.5-2,0.5-2s0.5-0.8,2,0s3,0.8,3,0.8s-0.5-1,0.5-2.5
				s0.5-2.5-0.5-3.3s-1-0.5,0.5-2.8s1.5-5.3,2.5-5.8s-3.3,1.3-2-1s0.3-0.3,1.3-2.3s0-4,0-4s-9.3,13-9.3,16s-2,0.3,0.8-5.8
				S146,141.8,146,141.8z"/>
			<path class="st1" d="M150.8,159.5c0,0-2.8,1.5-2,2.3s1.3,1.3,2.3,0.8S150.8,159.5,150.8,159.5z"/>
			<path class="st1" d="M137.5,192.3c-0.9-0.1-1.8,0.5-0.5,1.3s0.5,1.5,1.3,0.8S139,192.5,137.5,192.3z"/>
			<path class="st1" d="M179.5,138.5c-1-0.3-2.5-2.8-2.5-0.8s0.5,3.3-0.5,3.3s-2,1.3-2,1.3l-1,1.8c0,0,4.5,0.8,5.3-0.3
				s2.5-1.5,3-2.8s0-2.8,0-2.8L179.5,138.5z"/>
			<path class="st1" d="M220.5,237.3c0,0,1.3,2.3,0.3,3.3s-2,1-1.5,3.3s0.5,2.8-0.3,3.3s-2.8,1-2.8,1s-1.3-7.3,0-8
				S220.5,240,220.5,237.3z"/>
			<path class="st1" d="M249.3,216.3c0,0,0.8,1,1.5,1.5s-0.3,2-1,2S249.3,216.3,249.3,216.3z"/>
			<path class="st1" d="M293,169.5l1.5,1.8l-0.5,2l-1.5,0.3C292.5,173.5,293.8,170.5,293,169.5z"/>
			<path class="st1" d="M292.8,175.8c0,0,2.5-2,2,0.5s-1,3.8-1,3.8s-1.5-0.3-1.5,1s0.8,3.5,0,3.8s-1.5,0.5-2.3,0.8s-1.3,1.5-1.3,1.5
				s-1.8-3.5,0-3.5s1.8-1.3,1.8-1.3s1.5-1.8,0.3-3s-1-3.3,0.5-2.8S292.8,175.8,292.8,175.8z"/>
			<path class="st1" d="M283,204.3c0,0-0.8,2.5,0.8,3.3s2.3-0.5,2.5,1.5s-0.8,3.5-0.3,4.5s0.8,2-0.3,2.3s-2.5-0.3-2-3s0-3.3-0.8-3.8
				S283,204.3,283,204.3z"/>
			<path class="st1" d="M288.8,220.3c0,0,1.3,0,1.5,0.8s1.3,1.8,2,1.5s-0.3,0.3,0.8-0.3s4-0.3,4-0.3l2.3,0.5c0,0,1.3,1,1.8,0.3
				s-1,1.8-1,1.8s-0.8,0.5-0.5,1.3s0.3,0.8,0.3,0.8l-6.5,0.8l-0.8-1.8v-1.3c0,0-4.8,0-4-1.5S288.8,220.3,288.8,220.3z"/>
			<path class="st1" d="M294.5,230c0,0-0.5,2.8,0.5,3.3s0.8,4.8,0.3,5.5s0,3-0.5,4.3s-1.8,4-2.8,4.3s-4.8,6.5-6.5,5.8s-1.3-2-1.3-2
				l-0.8-1.5c0,0-0.8-0.8-1.5-1s-3.5,0-3.5,0l-2,1.8l-2.3,1.3l-2,0.5l-0.3-1.8c0,0,0.5,0,0.8-1s0.5-5.3,0.5-5.3s-0.8-1,2.3-2.3
				s3-1.3,5.3-3.8s3-4.8,3-4.8s0.8,0,1.5,0s2.5-1.5,2.8-2.3s2.3-2.5,2.3-0.3s-2.5,2.5-0.8,3.3s0.3,1.5,1.8,0.8s1.5-2.8,1.5-2.8
				L294.5,230z"/>
			<path class="st1" d="M270.5,229.8c0,0,3.3,1.3,4.8,0.5s1.5-0.8,1.5-0.8l-2.8-1c0,0,2.8-1,4.5-1s2.8,0.5,4.3-0.5s-0.5-2.8-0.5-2.8
				s-0.8-2.3,0.3-2s2.5-1,2.5-1.8s-2.3,0-2.3,0l-1.5,2.3l-1.8,1.8c0,0-1-1.3-0.3-1.5s1.3-1.8,1.3-1.8l-0.5-1.5l-0.8-1
				c0,0,3.3-1,1.5-2s-1.8-1-1.8-1s-0.8-0.3-1.5,1.5s-2.3,3.5-2.3,3.5l-1.8,0.5c0,0-2,0.5-0.8,1.5s1.5-1,1.3,1s-0.3,2-0.3,2l-1.8,0.8
				l0.5,1.3C272.5,227.8,271.5,230.3,270.5,229.8z"/>
			<path class="st1" d="M210.8,111c0,0-0.5,3.3,1.5,1.3s2-2,2-2l-0.3,3c0,0,0.3-3.3,0.5-4s0.8-2.3,0.8-2.3s0.5,0.8,1.8,0.3s1-2,1-2
				s-0.8-0.8-1.8-0.8s-0.8,0.8-1.5,1s-0.8,0.3-0.8,0.3l-2.3,1l-0.5,1.3L210.8,111z"/>
			<path class="st1" d="M132.3,185.3c0,0-0.5,3.8-1.3,3.8s0.5,2.8,0.5,2.8s0.3,3.8,1.3,4.5s1,4.5,2.3,4.8s1,12.8,1,12.8
				s1.8,1.3,1.5,2.5s-0.8,2.3,0.8,3.8s2.3,1.8,3,4s4.5,13,6,13.8s2,4.8,4.5,6.8s3.8,5.5,4.5,6s1.5,3.8,2.8,4s-5.3-7.5-2.5-6.5
				s-0.5-0.3-1.8-2.8s1-2.8,1-2.8s-2.5-7-0.8-6.8s1.3-1,1.3-1.8s-2-8.8-0.3-10.3s0.3-3-0.8-3s-1-1.5-2.5-2.3s-2.3-1.5-3-1.8
				s-1.3-0.8-2.3-1.8s-2.3-3.3-1.8-4.8s-2-2.8-3-4.8s-1.5-2.3-2-3s-1.5-1.3-1.5-1.3l-2.8-2.3c0,0-3,0.3-2.8-3.5s-1-4.5-0.8-5.5
				S132.3,185.3,132.3,185.3z"/>
		</g>
		<path class="st1" d="M213,91.3c0,0-14,4.3-15.3,4.3l3.3-2.3c0,0,5.8-0.3,5.8-1.8s-3.8,0.3-3.8,0.3s-2.3,0.5-3.3,1
			s-3.5,1.5-4.5,1.8s-2,0.5-2.8,1s-0.8-0.8-3,0.3s-6.5,1.8-7.3,3.3s1.5,0.5-0.8,1.5s-2.8,1-3.8,1.5s-3.8,0.8-3.8,0.8l-1.3,1.5
			l4.5,0.3c0,0,2.3-2,4-2.5s3.5-3,5.8-3.5s3.5-0.5,4.3-0.5s-8,3.5-9.8,5.5s-4,1-4,2.8s-0.8,3-1.5,3.3s-0.5,1.3-2.8,3.3s-4.5,3-4.8,5
			s0.5,2-1.3,2.5s-3.5,0-2.5,1.5s-0.5,2.8-0.5,2.8s-2,0.3-2.5,1.8s-3.3,5.8-3.3,7.3s-2.3,3-1.8,4.5s0.5,2.8,2,0.8s0.5-1.8,2.5-3.5
			s2.8-3.3,5.5-4.8s5.3-2.8,6.8-3.5s4-0.3,3.8-3.3s2.3-3.3,3.3-4s1.8-2.3,2.8-3.5s2-2,2.8-2.3s2.5-4,3.3-4.8s2-1.5,2.8-2.5
			s1.8-2.5,3-3.5s1.3-0.8,3.5-2s1.3-1,4-2.5s3.8-1.5,4-2.3S211.5,91.5,213,91.3z"/>
		<path class="st1" d="M171,105.5c-1-0.2-2,2-2,2s1.5,1.3,2.3,0S172,105.8,171,105.5z"/>
		<path class="st1" d="M166.3,111.8c-1,0.3,1.5-2.8-2.8-1s0.8,2.3-1,2.8s-2.3,1.3-2.8,2s-1.8,1.8-0.8,2.5s-0.8,3-1.8,4.3
			s-1.8,3-1.8,3s-1.5,2.5-2.5,2.8s0.8,0.3-1,0.3s-0.5,1-1.3,1.8s-0.5,2.8-0.5,2.8s1.8,1.5,2.5,0.3s0.3-2,0.8-3s1.3-2,2-2.5
			s1.5,2.3,2.3-0.5s0.3-4.5,2.5-5.5s2.3-3,2.3-3s-0.5-2,0.8-2.5S166.3,111.8,166.3,111.8z"/>
		<path class="st1" d="M155.3,118c0,0-9,8.8-9.5,11s1.5-0.8,1.5-0.8s1,2.8,2,0.8s-1-3,1-3.5s2.3-2.3,3-2.3S155.5,120.3,155.3,118z"
			/>
		<path class="st1" d="M140,136.8c0,0-10.3,17.5-12.3,36l1.5,2c0,0,1-0.8,1.5-2.5s1.5-2,1.8-3s-0.3-1.5,0.3-2.3s0.5-0.3,1.8-2.5
			s0.8-2,1.8-3.3s2.3-3.5,2.5-1.8s0.5,2.8,1.3,0.5s0.3-2.5,0.5-3.5s1-1.8,0-2s-1.5-2,0.5-2s0.5-0.8,2,0s3,0.8,3,0.8s-0.5-1,0.5-2.5
			s0.5-2.5-0.5-3.3s-1-0.5,0.5-2.8s1.5-5.3,2.5-5.8s-3.3,1.3-2-1s0.3-0.3,1.3-2.3s0-4,0-4s-9.3,13-9.3,16s-2,0.3,0.8-5.8
			S140,136.8,140,136.8z"/>
		<path class="st1" d="M144.8,154.5c0,0-2.8,1.5-2,2.3s1.3,1.3,2.3,0.8S144.8,154.5,144.8,154.5z"/>
		<path class="st1" d="M174.5,132.5c-1-0.3-2.5-2.8-2.5-0.8s0.5,3.3-0.5,3.3s-2,1.3-2,1.3l-1,1.8c0,0,4.5,0.8,5.3-0.3s2.5-1.5,3-2.8
			s0-2.8,0-2.8L174.5,132.5z"/>
		<path class="st1" d="M204.8,107c0,0-0.5,3.3,1.5,1.3s2-2,2-2l-0.3,3c0,0,0.3-3.3,0.5-4s0.8-2.3,0.8-2.3s0.5,0.8,1.8,0.3s1-2,1-2
			s-0.8-0.8-1.8-0.8s-0.8,0.8-1.5,1s-0.8,0.3-0.8,0.3l-2.3,1l-0.5,1.3L204.8,107z"/>
		<path class="st1" d="M220.3,97.8c0,0-1.8,1-0.8,1.3s2,0.8,2,0.8l0.5-1.3L220.3,97.8z"/>
		<path class="st1" d="M230.5,97.5c0,0,1.3,4.3,2.5,4.3s0.3,1.3,2.3,1.5s1.8-1.8,2,0.3s-1.3-0.5-2.5-2.3S230.5,97.5,230.5,97.5z"/>
		<path class="st1" d="M257,109.3c0,0-2.8-0.3-1,1s2,1.5,2.8,1.8s0.3,2,0.8,0.3S257,109.3,257,109.3z"/>
		<path class="st1" d="M186.5,177.5c0,0-1.8,0-1.8,0.8S186,179.3,186.5,177.5z"/>
		<path class="st1" d="M127.3,182.3c0,0-0.5,3.8-1.3,3.8s0.5,2.8,0.5,2.8s0.3,3.8,1.3,4.5s1,4.5,2.3,4.8s1,12.8,1,12.8
			s1.8,1.3,1.5,2.5s-0.8,2.3,0.8,3.8s2.3,1.8,3,4s4.5,13,6,13.8s2,4.8,4.5,6.8s3.8,5.5,4.5,6s1.5,3.8,2.8,4s-5.3-7.5-2.5-6.5
			s-0.5-0.3-1.8-2.8s1-2.8,1-2.8s-2.5-7-0.8-6.8s1.3-1,1.3-1.8s-2-8.8-0.3-10.3s0.3-3-0.8-3s-1-1.5-2.5-2.3s-2.3-1.5-3-1.8
			s-1.3-0.8-2.3-1.8s-2.3-3.3-1.8-4.8s-2-2.8-3-4.8s-1.5-2.3-2-3s-1.5-1.3-1.5-1.3l-2.8-2.3c0,0-3,0.3-2.8-3.5s-1-4.5-0.8-5.5
			S127.3,182.3,127.3,182.3z"/>
		<path class="st1" d="M131.5,187.3c-0.9-0.1-1.8,0.5-0.5,1.3s0.5,1.5,1.3,0.8S133,187.5,131.5,187.3z"/>
		<path class="st1" d="M226.8,110.3l-1.3,1.8l-2.3,1.8c0,0,0,0.8-0.5,2s-0.8,2-1.5,3.3s-0.8,1.8-1,2.8s-0.3,2.5,0.8,3
			s-1.8,2-2.3,0.3s-1-1.3,0-3s0.3-1.8,1-3.3s0.8-1,1-3.3s-0.5-3.3,1.3-3s1.3-1.3,2.5-1.5S226.8,110.3,226.8,110.3z"/>
		<path class="st1" d="M215.5,231.3c0,0,1.3,2.3,0.3,3.3s-2,1-1.5,3.3s0.5,2.8-0.3,3.3s-2.8,1-2.8,1s-1.3-7.3,0-8
			S215.5,234,215.5,231.3z"/>
		<path class="st1" d="M244.3,210.3c0,0,0.8,1,1.5,1.5s-0.3,2-1,2S244.3,210.3,244.3,210.3z"/>
		<path class="st1" d="M288,163.5l1.5,1.8l-0.5,2l-1.5,0.3C287.5,167.5,288.8,164.5,288,163.5z"/>
		<path class="st1" d="M287.8,169.8c0,0,2.5-2,2,0.5s-1,3.8-1,3.8s-1.5-0.3-1.5,1s0.8,3.5,0,3.8s-1.5,0.5-2.3,0.8s-1.3,1.5-1.3,1.5
			s-1.8-3.5,0-3.5s1.8-1.3,1.8-1.3s1.5-1.8,0.3-3s-1-3.3,0.5-2.8S287.8,169.8,287.8,169.8z"/>
		<path class="st1" d="M278,198.3c0,0-0.8,2.5,0.8,3.3s2.3-0.5,2.5,1.5s-0.8,3.5-0.3,4.5s0.8,2-0.3,2.3s-2.5-0.3-2-3s0-3.3-0.8-3.8
			S278,198.3,278,198.3z"/>
		<path class="st1" d="M283.8,214.3c0,0,1.3,0,1.5,0.8s1.3,1.8,2,1.5s-0.3,0.3,0.8-0.3s4-0.3,4-0.3l2.3,0.5c0,0,1.3,1,1.8,0.3
			s-1,1.8-1,1.8s-0.8,0.5-0.5,1.3s0.3,0.8,0.3,0.8l-6.5,0.8l-0.8-1.8v-1.3c0,0-4.8,0-4-1.5S283.8,214.3,283.8,214.3z"/>
		<path class="st1" d="M289.5,224c0,0-0.5,2.8,0.5,3.3s0.8,4.8,0.3,5.5s0,3-0.5,4.3s-1.8,4-2.8,4.3s-4.8,6.5-6.5,5.8s-1.3-2-1.3-2
			l-0.8-1.5c0,0-0.8-0.8-1.5-1s-3.5,0-3.5,0l-2,1.8l-2.3,1.3l-2,0.5l-0.3-1.8c0,0,0.5,0,0.8-1s0.5-5.3,0.5-5.3s-0.8-1,2.3-2.3
			s3-1.3,5.3-3.8s3-4.8,3-4.8s0.8,0,1.5,0s2.5-1.5,2.8-2.3s2.3-2.5,2.3-0.3s-2.5,2.5-0.8,3.3s0.3,1.5,1.8,0.8s1.5-2.8,1.5-2.8
			L289.5,224z"/>
		<path class="st1" d="M217,127.8c0.8,0.3-1.8,2-1,2s1.8,0.3,1.8,0.3L217,127.8z"/>
		<path class="st1" d="M265.5,223.8c0,0,3.3,1.3,4.8,0.5s1.5-0.8,1.5-0.8l-2.8-1c0,0,2.8-1,4.5-1s2.8,0.5,4.3-0.5s-0.5-2.8-0.5-2.8
			s-0.8-2.3,0.3-2s2.5-1,2.5-1.8s-2.3,0-2.3,0l-1.5,2.3l-1.8,1.8c0,0-1-1.3-0.3-1.5s1.3-1.8,1.3-1.8l-0.5-1.5l-0.8-1
			c0,0,3.3-1,1.5-2s-1.8-1-1.8-1s-0.8-0.3-1.5,1.5s-2.3,3.5-2.3,3.5l-1.8,0.5c0,0-2,0.5-0.8,1.5s1.5-1,1.3,1s-0.3,2-0.3,2l-1.8,0.8
			l0.5,1.3C267.5,221.8,266.5,224.3,265.5,223.8z"/>
		<path class="st1" d="M290.5,138.3l0.8-5.8c0,0-3.3-1.8-3-4c0,0-5-9.3-9.3-8.3c0,0,0.8,4-1,2l-1.3-1c0,0-1,1.5-2.8,0
			c0,0-2-1.8-3.8-1.3c0,0-4.8-4.5-6.3-2c0,0,2,3.5,0.3,3l-1.5-0.8v1.3c0,0-2,0.3-5.8-5.3l-2-0.5l0.3,2.5c0,0-5,1-6.5-1.5
			c0,0-3-6.3-2.5-8l-3.3,1l-1.8-2.8c0,0-2,0.5-1.3,1.5s0.8,2,0.8,2s-1,2-2,2s-3-0.3-2.3,1s0,1.3,0.5,2.3s1.3,3.5,0,3s-2.3-3-2.3-0.5
			s1.8,4,1.8,4s-0.3,2.5-1,1.3s-2-3-2-1.8s0,2.5,0,2.5l-1,0.5c0,0,1,2.3,1,3.3s0.8,5,0,5.3s-1.3,2-1.3,2s-1.5,0.5-1.3-0.5s1-2,1-4
			s-1.5-5.5-1.5-7.3s-1-3-1-3s-1.5,1.3-1.5,3s-2.8,0.3-1,2.8s2.8,3,2.5,3.8s0,1.5-1.5,0.5s-1.8-0.5-2.8-2.5s-3-3.5-2.5-1.8
			s1.3,4,1.3,4s-0.3,1.8-2,1.3s-2.8-0.5-2.8-0.5s-1.5-1-2,0.3s-1,2-1.8,2.5s-0.8,0.5-0.8,0.5s-0.8-1-0.3-1.8s0.8-1,0-1.8
			s-2.5-0.3-1.8,2.8s-0.3,1.8-1,1.8s-1.3,1.8-1.3,1.8v1.8l-1.5-1.3l-1,2c0,0-3.3-3-1-4.3s3.5-0.3,3.5-0.3s1.3-3,0.3-3.5
			s-3.8-3.3-3.8-3.3l-1.8-0.8v-2l-2,0.3c0,0-2,2.8-3,2s-1-1.3-2-1.3s-3.5,1.8-3,3.5s-0.8,3.3-0.8,3.3s-2.8,2.3-3.5,2.8
			s-4.5,5.8-5,6.8s-3.3,4.3-3.3,4.3l5.3,1.3c0,0,1.5,1.8,0,2.3s-2.3,1.3-2.3,2.5s-1.5,2.5-1.5,2.5s-0.5,1-1.8,1.3S180,159,180,159
			s-2.5-4-1.8-5.3s1.3-3.8,2.3-4s-2.5-1.3-2.5-1.3l-2.3-0.3h-1.5v2.5c0,0-2.8,1.8-3.3,2.5s1.3,2,1.3,2l-1.3,2.3l2.3-0.5
			c0,0,1-3.3,2-2.8s1.5,2,0.8,2s-2.3,2-2.3,2l0.5,1.5l1.8,0.5c0,0,1.5-1,1.8,0s-1,2.3-1.8,2.3s-3-1-3-1l0.3,3c0,0-0.5,1.5,0.8,2
			s1.3,2,1.3,2L173,170c0,0-3.5-1-4.3-0.8s-2,4-0.8,6s-0.8,0.5,1.3,2s1.5,1.8,3.5,1.3s2.3-2,2.3-2l-0.3-2c0,0,0-1.3,1.3-2
			s2-2.5,2-2.5l3.5,0.3v4.5c0,0,1,1,2.5,1s3,0,3,0l-0.5,1.8l1.3,0.3c0,0,0.8-1,0.5-2s-0.3-2.3-1-2.3s-1.5,1.3-0.8,0s1-3,1-3
			s2,0.8,2.3,1.8s-1.3,2.8,0,3.5s1.3-1.3,1.3,0.8s0,2.5,0.8,3s0,2,0.8,0.5s1.3-2.8,1.3-2.8s-2.3,0-1.3-1s0,0.3,2-1s1,0.8,1.3,2
			s-1.3,2.5,0.3,3s1.3,1,3.3,1.3s2.3,0,3.3,0.3s1.3,0.3,1,1.3s-2.3,2.5-2,3.5s-1,1.3-1.8,1s-5-0.8-5-0.8s-2.3-0.5-3.5,0
			s0.8,0-1.3,0.5s-3,1.5-4-0.3s-2-1.8-3-2.8s-1.5-2-1-2.8s0.3-2.5,0.3-2.5l-5.3-0.3l-6.3,1c0,0-0.5,1.3-1.8,2.3s-3.8,5.5-5.3,5.5
			c0,0-2.8,8.3-2.5,9s-3,7,2.3,10.5s1.8,5,7.8,4.5s8.5-0.3,9.8,2.5s4,9.8,4.5,11.8s0.5,6.3-0.5,4.8s3.8,9.5,5.3,11.8s1,4.8,5,5.5
			s3.5,1.5,5-1.5s1.8-4.3,1.8-5s2-0.3,2-0.3v-3c0,0,1.3-2.5,2.8-3.8s1.3-4.5,1.3-4.5l-1.3-2.8c0,0,3,1.5,3.8-0.3s0.8-1.8,0.8-1.8
			l-4.3-1c0,0,0-2.8,1.3-3.8s1.5-2.3,1.5-2.3l2.5-1.5c0,0,4.3-4.3,4-7.5c0,0-4.8,1-6,1s-1.8-3.5-1.8-3.5s-4-10.8-5.8-11
			s-1.5-4-0.3-4c0,0,3.8,4.5,4.8,7.8s3.3,8,3.3,8s13.3-4.5,13.3-9S221,195,221,195s-4,0.3-5.8-1.8c0,0-2.3-4.3-0.8-4.3s4,2,4.8,3
			s4.5,1,4.5,1s6.5,0.5,7.8,0.5s2.3,3.3,2.3,3.3s2.5,2,4,2s0,4,0,4s1.3,8,3.8,8s3-4.3,2.8-7.8s1.3-1.3,2.5-1.8s3.8-3.5,4-4.5
			s3.8-1.8,3.8-1.8s-0.8,1.5,1,3.5s0.5,4.8,0.5,4.8s1.5,2.3,3.5,1.8s-1,2.8,0.3,4.3s3.3,8.3,1,6.3l-3-2c0,0,4.8,8.3,6.3,8.3
			c0,0,3.5-1.5,0.3-2.5c0,0,1-4.8-0.5-7c0,0-2.8-0.5-2.3-7.3c0,0,2.8,1,3.5,3.8c0,0,4.8-1.3,3-6.8c0,0-2.8-3.3,0.5-3.5
			c0,0,2-0.5,1.8-3.3c0,0,4.5-3,5.3-4.5s2-7.8-0.3-10.5s-0.3-2.8-0.3-2.8s-3-4.5-1.3-4.3s2.5-2,3,0s2.3,2.5,3.5,0.5
			c0,0,1.3-4.3,1.3-5.5s1-0.5,2-0.5s0.3-3.3,0.3-3.3l0.8-8.8c0,0,2.3,4,2.3,1.5s-1.8-5-3.3-5.3s-3.8-0.5-3.8-0.5l0.3-9.5
			c0,0,2.8,1.8,3.8-0.5s0.8,1.3,2,1.3s-1.3-6.5-0.3-6.3s2.3,0,2.3,0s1,3,1.3,3.8s1.8,9,3.5,12C292.5,152.3,289.5,139,290.5,138.3z
			 M194.3,152l-0.3,2c0,0-0.8-0.3-1.5,0s-2.8-0.8-2.8-0.8s0.8-2.5,2-3.8s0.5-4,0.5-4c1.5,0.3,1.3-3.3,3-2.8s1.3,2.8,1.3,2.8l3.8,0.8
			c0,0,2,0.5,0.8,1.3s-4,0.8-4,0.8s0.3,1.5,0.5,2.3s-0.3,1.3-1.3,1.5S194.3,152,194.3,152z M207.8,175.5c-1,0.3-4.8-0.3-4.8-0.3
			l-2.5-1c0,0-0.3,1-1,1s-2.5-0.5-2.5-0.5l1-3.3l1.3-2.8c0,0,0.5-1,1.8-1s1.8,1.5,1.5,2.3s2.8,1,2.8,0.3s1-0.3,1.8,1
			s2.5,2.5,2.5,2.5S208.8,175.3,207.8,175.5z M218.8,181.3c-1.3,0-1.8-0.3-2.5-0.5s-1-1.3-1.3-2.8s0,0,0.8-1.5s-0.3-1-1.3-2.3
			s-0.3-1-1-1.5s-1-1.8-1-1.8s2-1.8,2.3-2.8s1.8,0.3,2.5,0s1.3-0.8,1.3-0.8l1,1.5c0,0,0,0-0.8,1.5s0,0-1-0.3s-0.3,1-0.3,1
			s0.3,1.8,1.5,3.3s0,0,0.3,1.3s0.5,1.3,0.3,2.5s1,1.3,1,1.3S220,181.3,218.8,181.3z"/>
	</g>
	<g>
		<path class="st1" d="M56.8,282.4c-3.3,0.9-6.1,1.4-8.6,1.4c-4.3,0-7.6-1.2-9.9-3.7c-2.3-2.5-3.5-6-3.5-10.5c0-4.5,1.2-8,3.5-10.5
			c2.3-2.5,5.6-3.7,9.8-3.7c2.8,0,5.6,0.4,8.6,1.2v3.6c-3.7-1.3-6.6-1.9-8.6-1.9c-2.9,0-5.2,1-6.8,3c-1.6,2-2.4,4.8-2.4,8.4
			c0,3.6,0.9,6.4,2.6,8.3c1.7,2,4.2,3,7.3,3c1.3,0,2.7-0.2,4.2-0.7v-8.8h3.8V282.4z"/>
		<path class="st1" d="M71.8,268.6c3.3-0.5,5-2.4,5-5.5c0-2.8-2-4.2-6.1-4.2h-2.4v9.9v2.9v11.5h-3.8V256h8.2c2.6,0,4.6,0.6,6,1.7
			c1.4,1.1,2.1,2.8,2.1,5c0,3.6-1.8,6.2-5.5,7.7l9,12.7h-4.7l-7.7-11.5C70.7,269.9,71.8,268.6,71.8,268.6z"/>
		<path class="st1" d="M89,256h3.8v17.1c0,2.7,0.5,4.7,1.5,5.9c1,1.2,2.6,1.9,4.8,1.9c2.1,0,3.7-0.6,4.6-1.7
			c0.9-1.2,1.3-3.1,1.3-5.9V256h3.4v17.2c0,3.7-0.8,6.4-2.3,8.1c-1.5,1.7-3.9,2.5-7.3,2.5c-3.4,0-5.9-0.9-7.5-2.6
			c-1.6-1.7-2.4-4.4-2.4-8.1V256z"/>
		<path class="st1" d="M123.9,269.2c1.2-0.5,2.2-0.7,3.1-1.4c1.2-1,1.9-2.5,1.9-4.4c0-1.6-0.5-2.8-1.5-3.5c-1-0.7-2.6-1-4.9-1h-2.4
			v10.5v2.9v10.8h-3.8V256h7.4c3.3,0,5.6,0.6,7,1.7c1.4,1.1,2.1,2.9,2.1,5.4c0,2.9-1,5.1-2.9,6.8c-1.5,1.2-3.4,2-5.7,2.3
			C124.2,272.2,122.6,269.8,123.9,269.2z"/>
		<path class="st1" d="M148.9,283.8c-3.8,0-6.8-1.3-9.1-3.9c-2.3-2.6-3.4-6.1-3.4-10.3c0-4.3,1.2-7.8,3.5-10.3
			c2.3-2.6,5.4-3.9,9.2-3.9c3.8,0,6.9,1.3,9.2,3.9c2.3,2.6,3.5,6,3.5,10.3c0,4.4-1.2,7.9-3.5,10.4
			C156,282.5,152.9,283.8,148.9,283.8z M149,280.9c2.8,0,4.9-1,6.4-3c1.5-2,2.3-4.8,2.3-8.5c0-3.5-0.8-6.3-2.3-8.3
			c-1.5-2-3.6-3-6.3-3c-2.7,0-4.8,1-6.3,3c-1.5,2-2.3,4.8-2.3,8.3c0,3.5,0.8,6.3,2.3,8.3C144.2,279.9,146.3,280.9,149,280.9z"/>
	</g>
	<g>
		<path class="st2" d="M309.4,268.6c3.3-0.5,5-2.4,5-5.5c0-2.8-2-4.2-6.1-4.2h-2.4v9.9v2.9v11.5h-3.8V256h8.2c2.6,0,4.6,0.6,6,1.7
			c1.4,1.1,2.1,2.8,2.1,5c0,3.6-1.8,6.2-5.5,7.7l9,12.7h-4.7l-7.7-11.5C308.3,269.9,309.4,268.6,309.4,268.6z"/>
		<path class="st2" d="M379.4,269.2c1.2-0.5,2.2-0.7,3.1-1.4c1.2-1,1.9-2.5,1.9-4.4c0-1.6-0.5-2.8-1.5-3.5c-1-0.7-2.6-1-4.9-1h-2.4
			v10.5v2.9v10.8h-3.8V256h7.4c3.3,0,5.6,0.6,7,1.7c1.4,1.1,2.1,2.9,2.1,5.4c0,2.9-1,5.1-2.9,6.8c-1.5,1.2-3.4,2-5.7,2.3
			C379.8,272.2,378.1,269.8,379.4,269.2z"/>
		<path class="st2" d="M173.5,283.8c-1.8,0-4.1-0.4-7-1.2v-3.8c3.1,1.4,5.6,2.1,7.5,2.1c1.5,0,2.7-0.4,3.7-1.2
			c0.9-0.8,1.4-1.8,1.4-3.1c0-1.1-0.3-2-0.9-2.7c-0.6-0.7-1.7-1.6-3.3-2.5l-1.9-1.1c-2.3-1.3-3.9-2.6-4.9-3.7
			c-0.9-1.2-1.4-2.5-1.4-4.1c0-2.1,0.8-3.8,2.3-5.2c1.5-1.3,3.4-2,5.8-2c2.1,0,4.3,0.3,6.6,1v3.5c-2.9-1.1-5-1.7-6.4-1.7
			c-1.3,0-2.4,0.4-3.3,1.1c-0.9,0.7-1.3,1.6-1.3,2.7c0,0.9,0.3,1.7,1,2.4c0.6,0.7,1.8,1.5,3.5,2.5l1.9,1.1c2.3,1.3,4,2.6,4.9,3.8
			c0.9,1.2,1.4,2.6,1.4,4.3c0,2.4-0.9,4.2-2.6,5.7C178.6,283.1,176.3,283.8,173.5,283.8z"/>
		<path class="st2" d="M196.4,272.7h6.7l-4.6-11.7l-4.6,11.7l-1.1,2.9l-3,7.5h-3.6l10.7-27.1h3.8l10.6,27.1h-4.2l-2.9-7.5h-7.7
			C195.5,274.8,196.4,272.7,196.4,272.7z"/>
		<path class="st2" d="M216.2,283.1V256h3.8l13.6,20.9V256h3.3v27.1h-3.8l-13.7-20.9v20.9H216.2z"/>
		<path class="st2" d="M256.6,283.8c-4.2,0-7.5-1.2-9.8-3.7c-2.3-2.5-3.4-6-3.4-10.5c0-4.5,1.2-8,3.5-10.5c2.3-2.5,5.6-3.7,9.9-3.7
			c2.4,0,5.3,0.4,8.5,1.2v3.6c-3.7-1.3-6.6-1.9-8.6-1.9c-2.9,0-5.2,1-6.8,3c-1.6,2-2.4,4.8-2.4,8.4c0,3.5,0.9,6.2,2.6,8.2
			c1.7,2,4.1,3,7.1,3c2.6,0,5.3-0.8,8.2-2.4v3.3C262.6,283.1,259.7,283.8,256.6,283.8z"/>
		<path class="st2" d="M282.8,283.8c-3.8,0-6.8-1.3-9.1-3.9c-2.3-2.6-3.4-6.1-3.4-10.3c0-4.3,1.2-7.8,3.5-10.3
			c2.3-2.6,5.4-3.9,9.2-3.9c3.8,0,6.9,1.3,9.2,3.9c2.3,2.6,3.5,6,3.5,10.3c0,4.4-1.2,7.9-3.5,10.4
			C289.9,282.5,286.8,283.8,282.8,283.8z M282.9,280.9c2.8,0,4.9-1,6.4-3c1.5-2,2.3-4.8,2.3-8.5c0-3.5-0.8-6.3-2.3-8.3
			c-1.5-2-3.6-3-6.3-3c-2.7,0-4.8,1-6.3,3c-1.5,2-2.3,4.8-2.3,8.3c0,3.5,0.8,6.3,2.3,8.3C278.2,279.9,280.2,280.9,282.9,280.9z"/>
		<path class="st2" d="M325,283.1V280l14.6-21.1h-13.7V256h18.3v2.9L329.6,280h14.6v3.1H325z"/>
		<path class="st2" d="M350.5,283.1V256h15.1v2.9h-11.3v8.7h9.5v2.8h-9.5v9.8h12.1v2.9H350.5z"/>
	</g>
	<g>
		<path class="st1" d="M99.2,304.1v-11h3.7c1.1,0,2,0.1,2.7,0.4c0.7,0.2,1.3,0.7,1.7,1.2c0.8,0.9,1.2,2.1,1.2,3.7
			c0,1.8-0.5,3.3-1.5,4.3c-1,1-2.3,1.5-4.1,1.5H99.2z M100.8,302.9h2c1.4,0,2.4-0.4,3-1.2c0.6-0.8,1-1.9,1-3.3
			c0-1.3-0.3-2.3-0.9-3.1c-0.4-0.5-0.8-0.8-1.4-0.9c-0.5-0.2-1.3-0.3-2.4-0.3h-1.3V302.9z"/>
		<path class="st1" d="M110.9,304.1v-11h1.6v11H110.9z"/>
		<path class="st1" d="M118.6,304.1l-4.2-11h1.6l3.4,9l3.3-9h1.4l-4,11H118.6z"/>
		<path class="st1" d="M125.9,304.1v-11h1.6v11H125.9z"/>
		<path class="st1" d="M132.7,304.3c-0.7,0-1.7-0.2-2.8-0.5v-1.6c1.2,0.6,2.3,0.9,3.1,0.9c0.6,0,1.1-0.2,1.5-0.5
			c0.4-0.3,0.6-0.7,0.6-1.3c0-0.4-0.1-0.8-0.4-1.1c-0.2-0.3-0.7-0.6-1.4-1l-0.8-0.4c-0.9-0.5-1.6-1-2-1.5c-0.4-0.5-0.6-1-0.6-1.7
			c0-0.9,0.3-1.5,0.9-2.1c0.6-0.5,1.4-0.8,2.4-0.8c0.9,0,1.7,0.1,2.7,0.4v1.4c-1.2-0.5-2-0.7-2.6-0.7c-0.5,0-1,0.1-1.3,0.4
			c-0.4,0.3-0.5,0.7-0.5,1.1c0,0.4,0.1,0.7,0.4,1c0.3,0.3,0.7,0.6,1.4,1l0.8,0.4c1,0.5,1.6,1.1,2,1.5c0.4,0.5,0.6,1.1,0.6,1.7
			c0,1-0.4,1.7-1.1,2.3C134.8,304.1,133.9,304.3,132.7,304.3z"/>
		<path class="st1" d="M139,304.1v-11h1.6v11H139z"/>
		<path class="st1" d="M148.2,304.3c-1.5,0-2.8-0.5-3.7-1.6c-0.9-1.1-1.4-2.5-1.4-4.2c0-1.8,0.5-3.2,1.4-4.2
			c0.9-1.1,2.2-1.6,3.8-1.6c1.6,0,2.8,0.5,3.8,1.6c0.9,1,1.4,2.4,1.4,4.2c0,1.8-0.5,3.2-1.4,4.2C151,303.8,149.8,304.3,148.2,304.3z
			 M148.2,303.2c1.1,0,2-0.4,2.6-1.2c0.6-0.8,0.9-2,0.9-3.4c0-1.4-0.3-2.6-0.9-3.4c-0.6-0.8-1.5-1.2-2.6-1.2c-1.1,0-2,0.4-2.6,1.2
			c-0.6,0.8-0.9,1.9-0.9,3.4c0,1.4,0.3,2.6,0.9,3.4C146.3,302.8,147.1,303.2,148.2,303.2z"/>
		<path class="st1" d="M155.9,304.1v-11h1.5l5.6,8.5V293h1.3v11h-1.5l-5.6-8.5v8.5H155.9z"/>
		<path class="st1" d="M177.3,304.3c-1.7,0-3-0.5-4-1.5c-0.9-1-1.4-2.4-1.4-4.3c0-1.8,0.5-3.3,1.4-4.3c1-1,2.3-1.5,4-1.5
			c1,0,2.1,0.2,3.5,0.5v1.5c-1.5-0.5-2.7-0.8-3.5-0.8c-1.2,0-2.1,0.4-2.8,1.2c-0.7,0.8-1,2-1,3.4c0,1.4,0.4,2.5,1.1,3.3
			c0.7,0.8,1.7,1.2,2.9,1.2c1,0,2.2-0.3,3.4-1v1.3C179.7,304.1,178.5,304.3,177.3,304.3z"/>
		<path class="st1" d="M187.8,304.3c-1.5,0-2.8-0.5-3.7-1.6c-0.9-1.1-1.4-2.5-1.4-4.2c0-1.8,0.5-3.2,1.4-4.2
			c0.9-1.1,2.2-1.6,3.8-1.6c1.6,0,2.8,0.5,3.8,1.6c0.9,1,1.4,2.4,1.4,4.2c0,1.8-0.5,3.2-1.4,4.2
			C190.7,303.8,189.4,304.3,187.8,304.3z M187.8,303.2c1.1,0,2-0.4,2.6-1.2c0.6-0.8,0.9-2,0.9-3.4c0-1.4-0.3-2.6-0.9-3.4
			c-0.6-0.8-1.5-1.2-2.6-1.2c-1.1,0-2,0.4-2.6,1.2c-0.6,0.8-0.9,1.9-0.9,3.4c0,1.4,0.3,2.6,0.9,3.4
			C185.9,302.8,186.8,303.2,187.8,303.2z"/>
		<path class="st1" d="M195.5,304.1v-11h2.2l3.1,8.5l3.1-8.5h1.9v11h-1.5v-9l-3,8.2h-1.5l-3-8.3v9H195.5z"/>
		<path class="st1" d="M208.9,304.1v-11h6.2v1.2h-4.6v3.5h3.9v1.2h-3.9v4h4.9v1.2H208.9z"/>
		<path class="st1" d="M232.1,304.3c-1.7,0-3-0.5-4-1.5c-0.9-1-1.4-2.4-1.4-4.3c0-1.8,0.5-3.3,1.4-4.3c1-1,2.3-1.5,4-1.5
			c1,0,2.1,0.2,3.5,0.5v1.5c-1.5-0.5-2.7-0.8-3.5-0.8c-1.2,0-2.1,0.4-2.8,1.2c-0.7,0.8-1,2-1,3.4c0,1.4,0.4,2.5,1.1,3.3
			c0.7,0.8,1.7,1.2,2.9,1.2c1,0,2.2-0.3,3.4-1v1.3C234.6,304.1,233.4,304.3,232.1,304.3z"/>
		<path class="st1" d="M238.3,304.1v-11h1.6v11H238.3z"/>
		<path class="st1" d="M247.4,304.3c-1.5,0-2.8-0.5-3.7-1.6c-0.9-1.1-1.4-2.5-1.4-4.2c0-1.8,0.5-3.2,1.4-4.2
			c0.9-1.1,2.2-1.6,3.8-1.6c1.6,0,2.8,0.5,3.8,1.6c0.9,1,1.4,2.4,1.4,4.2c0,1.8-0.5,3.2-1.4,4.2C250.3,303.8,249,304.3,247.4,304.3z
			 M247.4,303.2c1.1,0,2-0.4,2.6-1.2c0.6-0.8,0.9-2,0.9-3.4c0-1.4-0.3-2.6-0.9-3.4c-0.6-0.8-1.5-1.2-2.6-1.2c-1.1,0-2,0.4-2.6,1.2
			c-0.6,0.8-0.9,1.9-0.9,3.4c0,1.4,0.3,2.6,0.9,3.4C245.5,302.8,246.3,303.2,247.4,303.2z"/>
		<path class="st1" d="M260.2,304.1v-11h6.2v1.2h-4.6v3.5h3.9v1.2h-3.9v4h4.9v1.2H260.2z"/>
		<path class="st1" d="M270.8,298.1l-3.2-5h1.8l2.7,4.2l2.8-4.2h1.5l-3.3,5L270.8,298.1z M273,298.6l3.5,5.5h-1.8l-2.8-4.4l-2.9,4.4
			h-1.5l3.6-5.4L273,298.6z"/>
		<path class="st1" d="M281.2,304.1v-9.9h-3.9V293h9.4v1.2h-3.9v9.9H281.2z"/>
		<path class="st1" d="M288.5,304.1v-11h6.2v1.2h-4.6v3.5h3.9v1.2h-3.9v4h4.9v1.2H288.5z"/>
		<path class="st1" d="M307,304.1v-11h1.6v11H307z"/>
		<path class="st1" d="M316.1,304.3c-1.5,0-2.8-0.5-3.7-1.6c-0.9-1.1-1.4-2.5-1.4-4.2c0-1.8,0.5-3.2,1.4-4.2
			c0.9-1.1,2.2-1.6,3.8-1.6c1.6,0,2.8,0.5,3.8,1.6c0.9,1,1.4,2.4,1.4,4.2c0,1.8-0.5,3.2-1.4,4.2C319,303.8,317.7,304.3,316.1,304.3z
			 M316.1,303.2c1.1,0,2-0.4,2.6-1.2c0.6-0.8,0.9-2,0.9-3.4c0-1.4-0.3-2.6-0.9-3.4c-0.6-0.8-1.5-1.2-2.6-1.2c-1.1,0-2,0.4-2.6,1.2
			c-0.6,0.8-0.9,1.9-0.9,3.4c0,1.4,0.3,2.6,0.9,3.4C314.2,302.8,315.1,303.2,316.1,303.2z"/>
		<path class="st1" d="M220.5,298.2c1.4-0.2,2-1,2-2.3c0-1.1-0.8-1.7-2.5-1.7h-1v4v1.2v4.7h-1.6v-11h3.3c1.1,0,1.9,0.2,2.4,0.7
			c0.6,0.5,0.8,1.1,0.8,2c0,1.5-0.7,2.5-2.2,3.1l3.7,5.2h-1.9l-3.1-4.7C220,298.7,220.5,298.2,220.5,298.2z"/>
		<path class="st1" d="M300,298.2c1.4-0.2,2-1,2-2.3c0-1.1-0.8-1.7-2.5-1.7h-1v4v1.2v4.7h-1.6v-11h3.3c1.1,0,1.9,0.2,2.4,0.7
			c0.6,0.5,0.8,1.1,0.8,2c0,1.5-0.7,2.5-2.2,3.1l3.7,5.2h-1.9l-3.1-4.7C299.6,298.7,300,298.2,300,298.2z"/>
		<path class="st1" d="M326.8,298.2c1.4-0.2,2-1,2-2.3c0-1.1-0.8-1.7-2.5-1.7h-1v4v1.2v4.7h-1.6v-11h3.3c1.1,0,1.9,0.2,2.4,0.7
			c0.6,0.5,0.8,1.1,0.8,2c0,1.5-0.7,2.5-2.2,3.1l3.7,5.2H330l-3.1-4.7C326.3,298.7,326.8,298.2,326.8,298.2z"/>
	</g>
</g>
</svg>
