<?xml version="1.0" encoding="utf-8"?>
<!-- Generator: Adobe Illustrator 19.0.0, SVG Export Plug-In . SVG Version: 6.00 Build 0)  -->
<svg version="1.1" id="Capa_1" xmlns="http://www.w3.org/2000/svg" xmlns:xlink="http://www.w3.org/1999/xlink" x="0px" y="0px"
	 viewBox="0 0 514.8 124.8" style="enable-background:new 0 0 514.8 124.8;" xml:space="preserve">
<style type="text/css">
	.st0{opacity:0.3;}
	.st1{fill:#FFFFFF;}
	.st2{fill:#C5BA9F;}
</style>
<g>
	<g>
		<g class="st0">
			<path class="st1" d="M485.5,44.8l0.5-3.8c0,0-2.1-1.1-2-2.6c0,0-3.3-6.1-6.1-5.4c0,0,0.5,2.6-0.7,1.3l-0.8-0.7c0,0-0.7,1-1.8,0
				c0,0-1.3-1.1-2.5-0.8c0,0-3.1-2.9-4.1-1.3c0,0,1.3,2.3,0.2,2l-1-0.5v0.8c0,0-1.3,0.2-3.8-3.4l-1.3-0.3l0.2,1.6c0,0-3.3,0.7-4.3-1
				c0,0-2-4.1-1.6-5.2l-2.1,0.7l-1.1-1.8c0,0-1.3,0.3-0.8,1c0.5,0.7,0.5,1.3,0.5,1.3s-0.7,1.3-1.3,1.3s-2-0.2-1.5,0.7
				c0.5,0.8,0,0.8,0.3,1.5c0.3,0.7,0.8,2.3,0,2c-0.8-0.3-1.5-2-1.5-0.3c0,1.6,1.1,2.6,1.1,2.6s-0.2,1.6-0.7,0.8
				c-0.5-0.8-1.3-2-1.3-1.1c0,0.8,0,1.6,0,1.6l-0.7,0.3c0,0,0.7,1.5,0.7,2.1s0.5,3.3,0,3.4c-0.5,0.2-0.8,1.3-0.8,1.3s-1,0.3-0.8-0.3
				c0.2-0.7,0.7-1.3,0.7-2.6c0-1.3-1-3.6-1-4.7c0-1.1-0.7-2-0.7-2s-1,0.8-1,2c0,1.1-1.8,0.2-0.7,1.8c1.1,1.6,1.8,2,1.6,2.5
				c-0.2,0.5,0,1-1,0.3c-1-0.7-1.1-0.3-1.8-1.6c-0.7-1.3-2-2.3-1.6-1.1s0.8,2.6,0.8,2.6s-0.2,1.1-1.3,0.8c-1.1-0.3-1.8-0.3-1.8-0.3
				s-1-0.7-1.3,0.2c-0.3,0.8-0.7,1.3-1.1,1.6c-0.5,0.3-0.5,0.3-0.5,0.3s-0.5-0.7-0.2-1.1c0.3-0.5,0.5-0.7,0-1.1
				c-0.5-0.5-1.6-0.2-1.1,1.8c0.5,2-0.2,1.1-0.7,1.1c-0.5,0-0.8,1.1-0.8,1.1v1.1l-1-0.8l-0.7,1.3c0,0-2.1-2-0.7-2.8
				c1.5-0.8,2.3-0.2,2.3-0.2s0.8-2,0.2-2.3c-0.7-0.3-2.5-2.1-2.5-2.1l-1.1-0.5v-1.3l-1.3,0.2c0,0-1.3,1.8-2,1.3s-0.7-0.8-1.3-0.8
				c-0.7,0-2.3,1.1-2,2.3c0.3,1.1-0.5,2.1-0.5,2.1s-1.8,1.5-2.3,1.8c-0.5,0.3-2.9,3.8-3.3,4.4c-0.3,0.7-2.1,2.8-2.1,2.8l3.4,0.8
				c0,0,1,1.1,0,1.5c-1,0.3-1.5,0.8-1.5,1.6c0,0.8-1,1.6-1,1.6s-0.3,0.7-1.1,0.8c-0.8,0.2-1.6,1.5-1.6,1.5s-1.6-2.6-1.1-3.4
				c0.5-0.8,0.8-2.5,1.5-2.6c0.7-0.2-1.6-0.8-1.6-0.8l-1.5-0.2h-1V53c0,0-1.8,1.1-2.1,1.6s0.8,1.3,0.8,1.3l-0.8,1.5l1.5-0.3
				c0,0,0.7-2.1,1.3-1.8c0.7,0.3,1,1.3,0.5,1.3c-0.5,0-1.5,1.3-1.5,1.3l0.3,1l1.1,0.3c0,0,1-0.7,1.1,0c0.2,0.7-0.7,1.5-1.1,1.5
				c-0.5,0-2-0.7-2-0.7l0.2,2c0,0-0.3,1,0.5,1.3c0.8,0.3,0.8,1.3,0.8,1.3l-1.5,1c0,0-2.3-0.7-2.8-0.5c-0.5,0.2-1.3,2.6-0.5,3.9
				c0.8,1.3-0.5,0.3,0.8,1.3s1,1.1,2.3,0.8c1.3-0.3,1.5-1.3,1.5-1.3l-0.2-1.3c0,0,0-0.8,0.8-1.3c0.8-0.5,1.3-1.6,1.3-1.6l2.3,0.2
				v2.9c0,0,0.7,0.7,1.6,0.7s2,0,2,0l-0.3,1.1l0.8,0.2c0,0,0.5-0.7,0.3-1.3c-0.2-0.7-0.2-1.5-0.7-1.5c-0.5,0-1,0.8-0.5,0
				c0.5-0.8,0.7-2,0.7-2s1.3,0.5,1.5,1.1c0.2,0.7-0.8,1.8,0,2.3c0.8,0.5,0.8-0.8,0.8,0.5c0,1.3,0,1.6,0.5,2c0.5,0.3,0,1.3,0.5,0.3
				s0.8-1.8,0.8-1.8s-1.5,0-0.8-0.7c0.7-0.7,0,0.2,1.3-0.7c1.3-0.8,0.7,0.5,0.8,1.3c0.2,0.8-0.8,1.6,0.2,2c1,0.3,0.8,0.7,2.1,0.8
				c1.3,0.2,1.5,0,2.1,0.2s0.8,0.2,0.7,0.8c-0.2,0.7-1.5,1.6-1.3,2.3c0.2,0.7-0.7,0.8-1.1,0.7c-0.5-0.2-3.3-0.5-3.3-0.5
				s-1.5-0.3-2.3,0c-0.8,0.3,0.5,0-0.8,0.3c-1.3,0.3-2,1-2.6-0.2s-1.3-1.1-2-1.8c-0.7-0.7-1-1.3-0.7-1.8c0.3-0.5,0.2-1.6,0.2-1.6
				l-3.4-0.2l-4.1,0.7c0,0-0.3,0.8-1.1,1.5c-0.8,0.7-2.5,3.6-3.4,3.6c0,0-1.8,5.4-1.6,5.9c0.2,0.5-2,4.6,1.5,6.9
				c3.4,2.3,1.1,3.3,5.1,2.9c3.9-0.3,5.6-0.2,6.4,1.6c0.8,1.8,2.6,6.4,2.9,7.7c0.3,1.3,0.3,4.1-0.3,3.1s2.5,6.2,3.4,7.7
				c1,1.5,0.7,3.1,3.3,3.6c2.6,0.5,2.3,1,3.3-1s1.1-2.8,1.1-3.3c0-0.5,1.3-0.2,1.3-0.2v-2c0,0,0.8-1.6,1.8-2.5s0.8-2.9,0.8-2.9
				l-0.8-1.8c0,0,2,1,2.5-0.2s0.5-1.1,0.5-1.1l-2.8-0.7c0,0,0-1.8,0.8-2.5c0.8-0.7,1-1.5,1-1.5l1.6-1c0,0,2.8-2.8,2.6-4.9
				c0,0-3.1,0.7-3.9,0.7c-0.8,0-1.1-2.3-1.1-2.3s-2.6-7-3.8-7.2c-1.1-0.2-1-2.6-0.2-2.6c0,0,2.5,2.9,3.1,5.1s2.1,5.2,2.1,5.2
				s8.7-2.9,8.7-5.9c0-2.9-1.8-2.1-1.8-2.1s-2.6,0.2-3.8-1.1c0,0-1.5-2.8-0.5-2.8c1,0,2.6,1.3,3.1,2c0.5,0.7,2.9,0.7,2.9,0.7
				s4.3,0.3,5.1,0.3c0.8,0,1.5,2.1,1.5,2.1s1.6,1.3,2.6,1.3s0,2.6,0,2.6s0.8,5.2,2.5,5.2c1.6,0,2-2.8,1.8-5.1
				c-0.2-2.3,0.8-0.8,1.6-1.1c0.8-0.3,2.5-2.3,2.6-2.9c0.2-0.7,2.5-1.1,2.5-1.1s-0.5,1,0.7,2.3c1.1,1.3,0.3,3.1,0.3,3.1
				s1,1.5,2.3,1.1c1.3-0.3-0.7,1.8,0.2,2.8c0.8,1,2.1,5.4,0.7,4.1l-2-1.3c0,0,3.1,5.4,4.1,5.4c0,0,2.3-1,0.2-1.6
				c0,0,0.7-3.1-0.3-4.6c0,0-1.8-0.3-1.5-4.7c0,0,1.8,0.7,2.3,2.5c0,0,3.1-0.8,2-4.4c0,0-1.8-2.1,0.3-2.3c0,0,1.3-0.3,1.1-2.1
				c0,0,2.9-2,3.4-2.9c0.5-1,1.3-5.1-0.2-6.9s-0.2-1.8-0.2-1.8s-2-2.9-0.8-2.8c1.1,0.2,1.6-1.3,2,0c0.3,1.3,1.5,1.6,2.3,0.3
				c0,0,0.8-2.8,0.8-3.6c0-0.8,0.7-0.3,1.3-0.3c0.7,0,0.2-2.1,0.2-2.1l0.5-5.7c0,0,1.5,2.6,1.5,1s-1.1-3.3-2.1-3.4
				c-1-0.2-2.5-0.3-2.5-0.3l0.2-6.2c0,0,1.8,1.1,2.5-0.3s0.5,0.8,1.3,0.8c0.8,0-0.8-4.3-0.2-4.1c0.7,0.2,1.5,0,1.5,0s0.7,2,0.8,2.5
				c0.2,0.5,1.1,5.9,2.3,7.9C486.9,54,484.9,45.3,485.5,44.8z M422.5,53.8l-0.2,1.3c0,0-0.5-0.2-1,0s-1.8-0.5-1.8-0.5
				s0.5-1.6,1.3-2.5c0.8-0.8,0.3-2.6,0.3-2.6c1,0.2,0.8-2.1,2-1.8c1.1,0.3,0.8,1.8,0.8,1.8l2.5,0.5c0,0,1.3,0.3,0.5,0.8
				c-0.8,0.5-2.6,0.5-2.6,0.5s0.2,1,0.3,1.5c0.2,0.5-0.2,0.8-0.8,1C423.2,54,422.5,53.8,422.5,53.8z M431.3,69.2
				c-0.7,0.2-3.1-0.2-3.1-0.2l-1.6-0.7c0,0-0.2,0.7-0.7,0.7c-0.5,0-1.6-0.3-1.6-0.3l0.7-2.1l0.8-1.8c0,0,0.3-0.7,1.1-0.7
				c0.8,0,1.1,1,1,1.5c-0.2,0.5,1.8,0.7,1.8,0.2c0-0.5,0.7-0.2,1.1,0.7c0.5,0.8,1.6,1.6,1.6,1.6S432,69.1,431.3,69.2z M438.6,73
				c-0.8,0-1.1-0.2-1.6-0.3c-0.5-0.2-0.7-0.8-0.8-1.8c-0.2-1,0,0,0.5-1c0.5-1-0.2-0.7-0.8-1.5c-0.7-0.8-0.2-0.7-0.7-1
				c-0.5-0.3-0.7-1.1-0.7-1.1s1.3-1.1,1.5-1.8c0.2-0.7,1.1,0.2,1.6,0c0.5-0.2,0.8-0.5,0.8-0.5l0.7,1c0,0,0,0-0.5,1
				c-0.5,1,0,0-0.7-0.2c-0.7-0.2-0.2,0.7-0.2,0.7s0.2,1.1,1,2.1c0.8,1,0,0,0.2,0.8c0.2,0.8,0.3,0.8,0.2,1.6
				c-0.2,0.8,0.7,0.8,0.7,0.8S439.4,73,438.6,73z"/>
			<path class="st1" d="M435.4,14c0,0-9.2,2.8-10,2.8l2.1-1.5c0,0,3.8-0.2,3.8-1.1s-2.5,0.2-2.5,0.2s-1.5,0.3-2.1,0.7
				c-0.7,0.3-2.3,1-2.9,1.1c-0.7,0.2-1.3,0.3-1.8,0.7c-0.5,0.3-0.5-0.5-2,0.2c-1.5,0.7-4.3,1.1-4.7,2.1c-0.5,1,1,0.3-0.5,1
				c-1.5,0.7-1.8,0.7-2.5,1c-0.7,0.3-2.5,0.5-2.5,0.5l-0.8,1l2.9,0.2c0,0,1.5-1.3,2.6-1.6c1.1-0.3,2.3-2,3.8-2.3
				c1.5-0.3,2.3-0.3,2.8-0.3c0.5,0-5.2,2.3-6.4,3.6c-1.1,1.3-2.6,0.7-2.6,1.8c0,1.1-0.5,2-1,2.1c-0.5,0.2-0.3,0.8-1.8,2.1
				s-2.9,2-3.1,3.3c-0.2,1.3,0.3,1.3-0.8,1.6c-1.1,0.3-2.3,0-1.6,1c0.7,1-0.3,1.8-0.3,1.8s-1.3,0.2-1.6,1.1s-2.1,3.8-2.1,4.7
				s-1.5,2-1.1,2.9s0.3,1.8,1.3,0.5c1-1.3,0.3-1.1,1.6-2.3s1.8-2.1,3.6-3.1s3.4-1.8,4.4-2.3s2.6-0.2,2.5-2.1c-0.2-2,1.5-2.1,2.1-2.6
				c0.7-0.5,1.1-1.5,1.8-2.3c0.7-0.8,1.3-1.3,1.8-1.5c0.5-0.2,1.6-2.6,2.1-3.1c0.5-0.5,1.3-1,1.8-1.6c0.5-0.7,1.1-1.6,2-2.3
				c0.8-0.7,0.8-0.5,2.3-1.3c1.5-0.8,0.8-0.7,2.6-1.6s2.5-1,2.6-1.5C431.3,17,434.5,14.2,435.4,14z"/>
			<path class="st1" d="M387.6,43.8c0,0-6.7,11.5-8,23.6l1,1.3c0,0,0.7-0.5,1-1.6s1-1.3,1.1-2c0.2-0.7-0.2-1,0.2-1.5
				s0.3-0.2,1.1-1.6s0.5-1.3,1.1-2.1s1.5-2.3,1.6-1.1c0.2,1.1,0.3,1.8,0.8,0.3c0.5-1.5,0.2-1.6,0.3-2.3c0.2-0.7,0.7-1.1,0-1.3
				c-0.7-0.2-1-1.3,0.3-1.3s0.3-0.5,1.3,0c1,0.5,2,0.5,2,0.5s-0.3-0.7,0.3-1.6s0.3-1.6-0.3-2.1s-0.7-0.3,0.3-1.8s1-3.4,1.6-3.8
				c0.7-0.3-2.1,0.8-1.3-0.7s0.2-0.2,0.8-1.5c0.7-1.3,0-2.6,0-2.6s-6.1,8.5-6.1,10.5s-1.3,0.2,0.5-3.8
				C389.3,43.4,387.6,43.8,387.6,43.8z"/>
			<path class="st1" d="M390.7,55.5c0,0-1.8,1-1.3,1.5s0.8,0.8,1.5,0.5C391.6,57.1,390.7,55.5,390.7,55.5z"/>
			<path class="st1" d="M382.1,76.9c-0.6-0.1-1.1,0.3-0.3,0.8c0.8,0.5,0.3,1,0.8,0.5C383,77.7,383,77.1,382.1,76.9z"/>
			<path class="st1" d="M409.6,41.7c-0.7-0.2-1.6-1.8-1.6-0.5c0,1.3,0.3,2.1-0.3,2.1s-1.3,0.8-1.3,0.8l-0.7,1.1c0,0,2.9,0.5,3.4-0.2
				c0.5-0.7,1.6-1,2-1.8c0.3-0.8,0-1.8,0-1.8L409.6,41.7z"/>
			<path class="st1" d="M436.4,106.4c0,0,0.8,1.5,0.2,2.1c-0.7,0.7-1.3,0.7-1,2.1c0.3,1.5,0.3,1.8-0.2,2.1c-0.5,0.3-1.8,0.7-1.8,0.7
				s-0.8-4.7,0-5.2C434.5,107.7,436.4,108.2,436.4,106.4z"/>
			<path class="st1" d="M455.3,92.6c0,0,0.5,0.7,1,1c0.5,0.3-0.2,1.3-0.7,1.3C455.1,94.9,455.3,92.6,455.3,92.6z"/>
			<path class="st1" d="M483.9,62l1,1.1l-0.3,1.3l-1,0.2C483.6,64.6,484.4,62.7,483.9,62z"/>
			<path class="st1" d="M483.7,66.1c0,0,1.6-1.3,1.3,0.3c-0.3,1.6-0.7,2.5-0.7,2.5s-1-0.2-1,0.7c0,0.8,0.5,2.3,0,2.5
				c-0.5,0.2-1,0.3-1.5,0.5c-0.5,0.2-0.8,1-0.8,1s-1.1-2.3,0-2.3s1.1-0.8,1.1-0.8s1-1.1,0.2-2c-0.8-0.8-0.7-2.1,0.3-1.8
				C483.7,66.9,483.7,66.1,483.7,66.1z"/>
			<path class="st1" d="M477.4,84.8c0,0-0.5,1.6,0.5,2.1c1,0.5,1.5-0.3,1.6,1c0.2,1.3-0.5,2.3-0.2,2.9c0.3,0.7,0.5,1.3-0.2,1.5
				c-0.7,0.2-1.6-0.2-1.3-2c0.3-1.8,0-2.1-0.5-2.5C476.9,87.6,477.4,84.8,477.4,84.8z"/>
			<path class="st1" d="M481.1,95.3c0,0,0.8,0,1,0.5c0.2,0.5,0.8,1.1,1.3,1c0.5-0.2-0.2,0.2,0.5-0.2c0.7-0.3,2.6-0.2,2.6-0.2
				l1.5,0.3c0,0,0.8,0.7,1.1,0.2c0.3-0.5-0.7,1.1-0.7,1.1s-0.5,0.3-0.3,0.8c0.2,0.5,0.2,0.5,0.2,0.5l-4.3,0.5l-0.5-1.1v-0.8
				c0,0-3.1,0-2.6-1C481.5,95.9,481.1,95.3,481.1,95.3z"/>
			<path class="st1" d="M484.9,101.6c0,0-0.3,1.8,0.3,2.1c0.7,0.3,0.5,3.1,0.2,3.6c-0.3,0.5,0,2-0.3,2.8c-0.3,0.8-1.1,2.6-1.8,2.8
				s-3.1,4.3-4.3,3.8c-1.1-0.5-0.8-1.3-0.8-1.3l-0.5-1c0,0-0.5-0.5-1-0.7c-0.5-0.2-2.3,0-2.3,0l-1.3,1.1l-1.5,0.8l-1.3,0.3l-0.2-1.1
				c0,0,0.3,0,0.5-0.7c0.2-0.7,0.3-3.4,0.3-3.4s-0.5-0.7,1.5-1.5c2-0.8,2-0.8,3.4-2.5c1.5-1.6,2-3.1,2-3.1s0.5,0,1,0
				c0.5,0,1.6-1,1.8-1.5c0.2-0.5,1.5-1.6,1.5-0.2c0,1.5-1.6,1.6-0.5,2.1c1.1,0.5,0.2,1,1.1,0.5c1-0.5,1-1.8,1-1.8L484.9,101.6z"/>
			<path class="st1" d="M469.2,101.5c0,0,2.1,0.8,3.1,0.3c1-0.5,1-0.5,1-0.5l-1.8-0.7c0,0,1.8-0.7,2.9-0.7s1.8,0.3,2.8-0.3
				c1-0.7-0.3-1.8-0.3-1.8s-0.5-1.5,0.2-1.3c0.7,0.2,1.6-0.7,1.6-1.1c0-0.5-1.5,0-1.5,0l-1,1.5l-1.1,1.1c0,0-0.7-0.8-0.2-1
				c0.5-0.2,0.8-1.1,0.8-1.1l-0.3-1l-0.5-0.7c0,0,2.1-0.7,1-1.3s-1.1-0.7-1.1-0.7s-0.5-0.2-1,1c-0.5,1.1-1.5,2.3-1.5,2.3l-1.1,0.3
				c0,0-1.3,0.3-0.5,1c0.8,0.7,1-0.7,0.8,0.7c-0.2,1.3-0.2,1.3-0.2,1.3l-1.1,0.5l0.3,0.8C470.5,100.2,469.8,101.8,469.2,101.5z"/>
			<path class="st1" d="M430,23.7c0,0-0.3,2.1,1,0.8s1.3-1.3,1.3-1.3l-0.2,2c0,0,0.2-2.1,0.3-2.6c0.2-0.5,0.5-1.5,0.5-1.5
				s0.3,0.5,1.1,0.2s0.7-1.3,0.7-1.3s-0.5-0.5-1.1-0.5c-0.7,0-0.5,0.5-1,0.7c-0.5,0.2-0.5,0.2-0.5,0.2l-1.5,0.7l-0.3,0.8L430,23.7z"
				/>
			<path class="st1" d="M378.6,72.3c0,0-0.3,2.5-0.8,2.5c-0.5,0,0.3,1.8,0.3,1.8s0.2,2.5,0.8,2.9c0.7,0.5,0.7,2.9,1.5,3.1
				c0.8,0.2,0.7,8.4,0.7,8.4s1.1,0.8,1,1.6c-0.2,0.8-0.5,1.5,0.5,2.5s1.5,1.1,2,2.6c0.5,1.5,2.9,8.5,3.9,9c1,0.5,1.3,3.1,2.9,4.4
				c1.6,1.3,2.5,3.6,2.9,3.9s1,2.5,1.8,2.6s-3.4-4.9-1.6-4.3c1.8,0.7-0.3-0.2-1.1-1.8c-0.8-1.6,0.7-1.8,0.7-1.8s-1.6-4.6-0.5-4.4
				c1.1,0.2,0.8-0.7,0.8-1.1c0-0.5-1.3-5.7-0.2-6.7c1.1-1,0.2-2-0.5-2s-0.7-1-1.6-1.5c-1-0.5-1.5-1-2-1.1s-0.8-0.5-1.5-1.1
				c-0.7-0.7-1.5-2.1-1.1-3.1c0.3-1-1.3-1.8-2-3.1s-1-1.5-1.3-2c-0.3-0.5-1-0.8-1-0.8l-1.8-1.5c0,0-2,0.2-1.8-2.3
				c0.2-2.5-0.7-2.9-0.5-3.6C379.3,74.8,378.6,72.3,378.6,72.3z"/>
		</g>
		<path class="st1" d="M431.5,10.8c0,0-9.2,2.8-10,2.8l2.1-1.5c0,0,3.8-0.2,3.8-1.1s-2.5,0.2-2.5,0.2s-1.5,0.3-2.1,0.7
			c-0.7,0.3-2.3,1-2.9,1.1s-1.3,0.3-1.8,0.7c-0.5,0.3-0.5-0.5-2,0.2s-4.3,1.1-4.7,2.1c-0.5,1,1,0.3-0.5,1c-1.5,0.7-1.8,0.7-2.5,1
			c-0.7,0.3-2.5,0.5-2.5,0.5l-0.8,1l2.9,0.2c0,0,1.5-1.3,2.6-1.6s2.3-2,3.8-2.3c1.5-0.3,2.3-0.3,2.8-0.3c0.5,0-5.2,2.3-6.4,3.6
			c-1.1,1.3-2.6,0.7-2.6,1.8c0,1.1-0.5,2-1,2.1c-0.5,0.2-0.3,0.8-1.8,2.1s-2.9,2-3.1,3.3c-0.2,1.3,0.3,1.3-0.8,1.6s-2.3,0-1.6,1
			c0.7,1-0.3,1.8-0.3,1.8s-1.3,0.2-1.6,1.1c-0.3,1-2.1,3.8-2.1,4.7s-1.5,2-1.1,2.9s0.3,1.8,1.3,0.5c1-1.3,0.3-1.1,1.6-2.3
			s1.8-2.1,3.6-3.1s3.4-1.8,4.4-2.3c1-0.5,2.6-0.2,2.5-2.1c-0.2-2,1.5-2.1,2.1-2.6c0.7-0.5,1.1-1.5,1.8-2.3c0.7-0.8,1.3-1.3,1.8-1.5
			c0.5-0.2,1.6-2.6,2.1-3.1c0.5-0.5,1.3-1,1.8-1.6c0.5-0.7,1.1-1.6,2-2.3c0.8-0.7,0.8-0.5,2.3-1.3s0.8-0.7,2.6-1.6s2.5-1,2.6-1.5
			C427.4,13.7,430.5,10.9,431.5,10.8z"/>
		<path class="st1" d="M404,20.1c-0.6-0.2-1.3,1.3-1.3,1.3s1,0.8,1.5,0C404.7,20.6,404.7,20.3,404,20.1z"/>
		<path class="st1" d="M400.9,24.2c-0.7,0.2,1-1.8-1.8-0.7s0.5,1.5-0.7,1.8c-1.1,0.3-1.5,0.8-1.8,1.3s-1.1,1.1-0.5,1.6
			s-0.5,2-1.1,2.8s-1.1,2-1.1,2s-1,1.6-1.6,1.8c-0.7,0.2,0.5,0.2-0.7,0.2s-0.3,0.7-0.8,1.1c-0.5,0.5-0.3,1.8-0.3,1.8s1.1,1,1.6,0.2
			c0.5-0.8,0.2-1.3,0.5-2c0.3-0.7,0.8-1.3,1.3-1.6c0.5-0.3,1,1.5,1.5-0.3c0.5-1.8,0.2-2.9,1.6-3.6c1.5-0.7,1.5-2,1.5-2
			s-0.3-1.3,0.5-1.6C399.7,26.7,400.9,24.2,400.9,24.2z"/>
		<path class="st1" d="M393.7,28.3c0,0-5.9,5.7-6.2,7.2c-0.3,1.5,1-0.5,1-0.5s0.7,1.8,1.3,0.5s-0.7-2,0.7-2.3c1.3-0.3,1.5-1.5,2-1.5
			C392.9,31.7,393.8,29.8,393.7,28.3z"/>
		<path class="st1" d="M383.7,40.6c0,0-6.7,11.5-8,23.6l1,1.3c0,0,0.7-0.5,1-1.6c0.3-1.1,1-1.3,1.1-2c0.2-0.7-0.2-1,0.2-1.5
			s0.3-0.2,1.1-1.6s0.5-1.3,1.1-2.1c0.7-0.8,1.5-2.3,1.6-1.1c0.2,1.1,0.3,1.8,0.8,0.3s0.2-1.6,0.3-2.3c0.2-0.7,0.7-1.1,0-1.3
			c-0.7-0.2-1-1.3,0.3-1.3c1.3,0,0.3-0.5,1.3,0c1,0.5,2,0.5,2,0.5s-0.3-0.7,0.3-1.6c0.7-1,0.3-1.6-0.3-2.1s-0.7-0.3,0.3-1.8
			s1-3.4,1.6-3.8c0.7-0.3-2.1,0.8-1.3-0.7c0.8-1.5,0.2-0.2,0.8-1.5c0.7-1.3,0-2.6,0-2.6s-6.1,8.5-6.1,10.5c0,2-1.3,0.2,0.5-3.8
			C385.3,40.1,383.7,40.6,383.7,40.6z"/>
		<path class="st1" d="M386.8,52.2c0,0-1.8,1-1.3,1.5s0.8,0.8,1.5,0.5S386.8,52.2,386.8,52.2z"/>
		<path class="st1" d="M406.3,37.8c-0.7-0.2-1.6-1.8-1.6-0.5c0,1.3,0.3,2.1-0.3,2.1s-1.3,0.8-1.3,0.8l-0.7,1.1c0,0,2.9,0.5,3.4-0.2
			c0.5-0.7,1.6-1,2-1.8c0.3-0.8,0-1.8,0-1.8L406.3,37.8z"/>
		<path class="st1" d="M426.1,21.1c0,0-0.3,2.1,1,0.8s1.3-1.3,1.3-1.3l-0.2,2c0,0,0.2-2.1,0.3-2.6c0.2-0.5,0.5-1.5,0.5-1.5
			s0.3,0.5,1.1,0.2c0.8-0.3,0.7-1.3,0.7-1.3s-0.5-0.5-1.1-0.5c-0.7,0-0.5,0.5-1,0.7c-0.5,0.2-0.5,0.2-0.5,0.2l-1.5,0.7l-0.3,0.8
			L426.1,21.1z"/>
		<path class="st1" d="M436.3,15c0,0-1.1,0.7-0.5,0.8c0.7,0.2,1.3,0.5,1.3,0.5l0.3-0.8L436.3,15z"/>
		<path class="st1" d="M443,14.9c0,0,0.8,2.8,1.6,2.8c0.8,0,0.2,0.8,1.5,1c1.3,0.2,1.1-1.1,1.3,0.2c0.2,1.3-0.8-0.3-1.6-1.5
			C444.9,16.2,443,14.9,443,14.9z"/>
		<path class="st1" d="M460.3,22.6c0,0-1.8-0.2-0.7,0.7c1.1,0.8,1.3,1,1.8,1.1c0.5,0.2,0.2,1.3,0.5,0.2
			C462.3,23.4,460.3,22.6,460.3,22.6z"/>
		<path class="st1" d="M414.2,67.3c0,0-1.1,0-1.1,0.5C413,68.2,413.8,68.4,414.2,67.3z"/>
		<path class="st1" d="M375.3,70.4c0,0-0.3,2.5-0.8,2.5c-0.5,0,0.3,1.8,0.3,1.8s0.2,2.5,0.8,2.9c0.7,0.5,0.7,2.9,1.5,3.1
			c0.8,0.2,0.7,8.4,0.7,8.4s1.1,0.8,1,1.6c-0.2,0.8-0.5,1.5,0.5,2.5c1,1,1.5,1.1,2,2.6c0.5,1.5,2.9,8.5,3.9,9c1,0.5,1.3,3.1,2.9,4.4
			c1.6,1.3,2.5,3.6,2.9,3.9c0.5,0.3,1,2.5,1.8,2.6c0.8,0.2-3.4-4.9-1.6-4.3c1.8,0.7-0.3-0.2-1.1-1.8s0.7-1.8,0.7-1.8
			s-1.6-4.6-0.5-4.4c1.1,0.2,0.8-0.7,0.8-1.1c0-0.5-1.3-5.7-0.2-6.7s0.2-2-0.5-2s-0.7-1-1.6-1.5c-1-0.5-1.5-1-2-1.1
			c-0.5-0.2-0.8-0.5-1.5-1.1c-0.7-0.7-1.5-2.1-1.1-3.1s-1.3-1.8-2-3.1s-1-1.5-1.3-2s-1-0.8-1-0.8l-1.8-1.5c0,0-2,0.2-1.8-2.3
			c0.2-2.5-0.7-2.9-0.5-3.6C376,72.8,375.3,70.4,375.3,70.4z"/>
		<path class="st1" d="M378.1,73.6c-0.6-0.1-1.1,0.3-0.3,0.8c0.8,0.5,0.3,1,0.8,0.5C379.1,74.5,379.1,73.8,378.1,73.6z"/>
		<path class="st1" d="M440.5,23.2l-0.8,1.1l-1.5,1.1c0,0,0,0.5-0.3,1.3c-0.3,0.8-0.5,1.3-1,2.1c-0.5,0.8-0.5,1.1-0.7,1.8
			c-0.2,0.7-0.2,1.6,0.5,2c0.7,0.3-1.1,1.3-1.5,0.2s-0.7-0.8,0-2s0.2-1.1,0.7-2.1s0.5-0.7,0.7-2.1c0.2-1.5-0.3-2.1,0.8-2
			c1.1,0.2,0.8-0.8,1.6-1C439.9,23.5,440.5,23.2,440.5,23.2z"/>
		<path class="st1" d="M433.1,102.5c0,0,0.8,1.5,0.2,2.1c-0.7,0.7-1.3,0.7-1,2.1c0.3,1.5,0.3,1.8-0.2,2.1c-0.5,0.3-1.8,0.7-1.8,0.7
			s-0.8-4.7,0-5.2C431.2,103.8,433.1,104.3,433.1,102.5z"/>
		<path class="st1" d="M452,88.7c0,0,0.5,0.7,1,1c0.5,0.3-0.2,1.3-0.7,1.3S452,88.7,452,88.7z"/>
		<path class="st1" d="M480.6,58.1l1,1.1l-0.3,1.3l-1,0.2C480.3,60.7,481.1,58.7,480.6,58.1z"/>
		<path class="st1" d="M480.5,62.2c0,0,1.6-1.3,1.3,0.3s-0.7,2.5-0.7,2.5s-1-0.2-1,0.7c0,0.8,0.5,2.3,0,2.5c-0.5,0.2-1,0.3-1.5,0.5
			c-0.5,0.2-0.8,1-0.8,1s-1.1-2.3,0-2.3s1.1-0.8,1.1-0.8s1-1.1,0.2-2c-0.8-0.8-0.7-2.1,0.3-1.8C480.5,63,480.5,62.2,480.5,62.2z"/>
		<path class="st1" d="M474.1,80.9c0,0-0.5,1.6,0.5,2.1c1,0.5,1.5-0.3,1.6,1c0.2,1.3-0.5,2.3-0.2,2.9s0.5,1.3-0.2,1.5
			c-0.7,0.2-1.6-0.2-1.3-2c0.3-1.8,0-2.1-0.5-2.5C473.6,83.6,474.1,80.9,474.1,80.9z"/>
		<path class="st1" d="M477.8,91.3c0,0,0.8,0,1,0.5c0.2,0.5,0.8,1.1,1.3,1c0.5-0.2-0.2,0.2,0.5-0.2c0.7-0.3,2.6-0.2,2.6-0.2l1.5,0.3
			c0,0,0.8,0.7,1.1,0.2c0.3-0.5-0.7,1.1-0.7,1.1s-0.5,0.3-0.3,0.8c0.2,0.5,0.2,0.5,0.2,0.5l-4.3,0.5l-0.5-1.1V94c0,0-3.1,0-2.6-1
			C478.2,92,477.8,91.3,477.8,91.3z"/>
		<path class="st1" d="M481.6,97.7c0,0-0.3,1.8,0.3,2.1c0.7,0.3,0.5,3.1,0.2,3.6c-0.3,0.5,0,2-0.3,2.8c-0.3,0.8-1.1,2.6-1.8,2.8
			s-3.1,4.3-4.3,3.8c-1.1-0.5-0.8-1.3-0.8-1.3l-0.5-1c0,0-0.5-0.5-1-0.7c-0.5-0.2-2.3,0-2.3,0l-1.3,1.1l-1.5,0.8l-1.3,0.3l-0.2-1.1
			c0,0,0.3,0,0.5-0.7c0.2-0.7,0.3-3.4,0.3-3.4s-0.5-0.7,1.5-1.5c2-0.8,2-0.8,3.4-2.5c1.5-1.6,2-3.1,2-3.1s0.5,0,1,0
			c0.5,0,1.6-1,1.8-1.5c0.2-0.5,1.5-1.6,1.5-0.2c0,1.5-1.6,1.6-0.5,2.1c1.1,0.5,0.2,1,1.1,0.5c1-0.5,1-1.8,1-1.8L481.6,97.7z"/>
		<path class="st1" d="M434.1,34.7c0.5,0.2-1.1,1.3-0.7,1.3s1.1,0.2,1.1,0.2L434.1,34.7z"/>
		<path class="st1" d="M465.9,97.6c0,0,2.1,0.8,3.1,0.3c1-0.5,1-0.5,1-0.5l-1.8-0.7c0,0,1.8-0.7,2.9-0.7s1.8,0.3,2.8-0.3
			c1-0.7-0.3-1.8-0.3-1.8s-0.5-1.5,0.2-1.3c0.7,0.2,1.6-0.7,1.6-1.1c0-0.5-1.5,0-1.5,0l-1,1.5l-1.1,1.1c0,0-0.7-0.8-0.2-1
			c0.5-0.2,0.8-1.1,0.8-1.1l-0.3-1l-0.5-0.7c0,0,2.1-0.7,1-1.3s-1.1-0.7-1.1-0.7s-0.5-0.2-1,1c-0.5,1.1-1.5,2.3-1.5,2.3l-1.1,0.3
			c0,0-1.3,0.3-0.5,1c0.8,0.7,1-0.7,0.8,0.7c-0.2,1.3-0.2,1.3-0.2,1.3l-1.1,0.5l0.3,0.8C467.2,96.2,466.6,97.9,465.9,97.6z"/>
		<path class="st1" d="M482.3,41.6l0.5-3.8c0,0-2.1-1.1-2-2.6c0,0-3.3-6.1-6.1-5.4c0,0,0.5,2.6-0.7,1.3l-0.8-0.7c0,0-0.7,1-1.8,0
			c0,0-1.3-1.1-2.5-0.8c0,0-3.1-2.9-4.1-1.3c0,0,1.3,2.3,0.2,2l-1-0.5v0.8c0,0-1.3,0.2-3.8-3.4l-1.3-0.3l0.2,1.6c0,0-3.3,0.7-4.3-1
			c0,0-2-4.1-1.6-5.2l-2.1,0.7l-1.1-1.8c0,0-1.3,0.3-0.8,1c0.5,0.7,0.5,1.3,0.5,1.3s-0.7,1.3-1.3,1.3s-2-0.2-1.5,0.7
			c0.5,0.8,0,0.8,0.3,1.5c0.3,0.7,0.8,2.3,0,2c-0.8-0.3-1.5-2-1.5-0.3s1.1,2.6,1.1,2.6s-0.2,1.6-0.7,0.8c-0.5-0.8-1.3-2-1.3-1.1
			s0,1.6,0,1.6l-0.7,0.3c0,0,0.7,1.5,0.7,2.1c0,0.7,0.5,3.3,0,3.4c-0.5,0.2-0.8,1.3-0.8,1.3s-1,0.3-0.8-0.3c0.2-0.7,0.7-1.3,0.7-2.6
			c0-1.3-1-3.6-1-4.7s-0.7-2-0.7-2s-1,0.8-1,2s-1.8,0.2-0.7,1.8c1.1,1.6,1.8,2,1.6,2.5c-0.2,0.5,0,1-1,0.3s-1.1-0.3-1.8-1.6
			c-0.7-1.3-2-2.3-1.6-1.1c0.3,1.1,0.8,2.6,0.8,2.6s-0.2,1.1-1.3,0.8c-1.1-0.3-1.8-0.3-1.8-0.3s-1-0.7-1.3,0.2
			c-0.3,0.8-0.7,1.3-1.1,1.6s-0.5,0.3-0.5,0.3s-0.5-0.7-0.2-1.1s0.5-0.7,0-1.1c-0.5-0.5-1.6-0.2-1.1,1.8c0.5,2-0.2,1.1-0.7,1.1
			c-0.5,0-0.8,1.1-0.8,1.1v1.1l-1-0.8l-0.7,1.3c0,0-2.1-2-0.7-2.8c1.5-0.8,2.3-0.2,2.3-0.2s0.8-2,0.2-2.3c-0.7-0.3-2.5-2.1-2.5-2.1
			l-1.1-0.5v-1.3l-1.3,0.2c0,0-1.3,1.8-2,1.3s-0.7-0.8-1.3-0.8s-2.3,1.1-2,2.3s-0.5,2.1-0.5,2.1s-1.8,1.5-2.3,1.8
			c-0.5,0.3-2.9,3.8-3.3,4.4c-0.3,0.7-2.1,2.8-2.1,2.8l3.4,0.8c0,0,1,1.1,0,1.5c-1,0.3-1.5,0.8-1.5,1.6c0,0.8-1,1.6-1,1.6
			s-0.3,0.7-1.1,0.8c-0.8,0.2-1.6,1.5-1.6,1.5s-1.6-2.6-1.1-3.4c0.5-0.8,0.8-2.5,1.5-2.6c0.7-0.2-1.6-0.8-1.6-0.8l-1.5-0.2h-1v1.6
			c0,0-1.8,1.1-2.1,1.6s0.8,1.3,0.8,1.3l-0.8,1.5l1.5-0.3c0,0,0.7-2.1,1.3-1.8s1,1.3,0.5,1.3c-0.5,0-1.5,1.3-1.5,1.3l0.3,1l1.1,0.3
			c0,0,1-0.7,1.1,0c0.2,0.7-0.7,1.5-1.1,1.5c-0.5,0-2-0.7-2-0.7l0.2,2c0,0-0.3,1,0.5,1.3c0.8,0.3,0.8,1.3,0.8,1.3l-1.5,1
			c0,0-2.3-0.7-2.8-0.5c-0.5,0.2-1.3,2.6-0.5,3.9c0.8,1.3-0.5,0.3,0.8,1.3s1,1.1,2.3,0.8c1.3-0.3,1.5-1.3,1.5-1.3l-0.2-1.3
			c0,0,0-0.8,0.8-1.3c0.8-0.5,1.3-1.6,1.3-1.6l2.3,0.2v2.9c0,0,0.7,0.7,1.6,0.7s2,0,2,0l-0.3,1.1l0.8,0.2c0,0,0.5-0.7,0.3-1.3
			c-0.2-0.7-0.2-1.5-0.7-1.5s-1,0.8-0.5,0c0.5-0.8,0.7-2,0.7-2s1.3,0.5,1.5,1.1c0.2,0.7-0.8,1.8,0,2.3c0.8,0.5,0.8-0.8,0.8,0.5
			c0,1.3,0,1.6,0.5,2c0.5,0.3,0,1.3,0.5,0.3c0.5-1,0.8-1.8,0.8-1.8s-1.5,0-0.8-0.7c0.7-0.7,0,0.2,1.3-0.7c1.3-0.8,0.7,0.5,0.8,1.3
			c0.2,0.8-0.8,1.6,0.2,2s0.8,0.7,2.1,0.8c1.3,0.2,1.5,0,2.1,0.2s0.8,0.2,0.7,0.8c-0.2,0.7-1.5,1.6-1.3,2.3c0.2,0.7-0.7,0.8-1.1,0.7
			c-0.5-0.2-3.3-0.5-3.3-0.5s-1.5-0.3-2.3,0c-0.8,0.3,0.5,0-0.8,0.3c-1.3,0.3-2,1-2.6-0.2s-1.3-1.1-2-1.8c-0.7-0.7-1-1.3-0.7-1.8
			c0.3-0.5,0.2-1.6,0.2-1.6l-3.4-0.2l-4.1,0.7c0,0-0.3,0.8-1.1,1.5c-0.8,0.7-2.5,3.6-3.4,3.6c0,0-1.8,5.4-1.6,5.9
			c0.2,0.5-2,4.6,1.5,6.9c3.4,2.3,1.1,3.3,5.1,2.9c3.9-0.3,5.6-0.2,6.4,1.6c0.8,1.8,2.6,6.4,2.9,7.7c0.3,1.3,0.3,4.1-0.3,3.1
			c-0.7-1,2.5,6.2,3.4,7.7c1,1.5,0.7,3.1,3.3,3.6c2.6,0.5,2.3,1,3.3-1c1-2,1.1-2.8,1.1-3.3c0-0.5,1.3-0.2,1.3-0.2v-2
			c0,0,0.8-1.6,1.8-2.5s0.8-2.9,0.8-2.9l-0.8-1.8c0,0,2,1,2.5-0.2c0.5-1.1,0.5-1.1,0.5-1.1l-2.8-0.7c0,0,0-1.8,0.8-2.5
			c0.8-0.7,1-1.5,1-1.5l1.6-1c0,0,2.8-2.8,2.6-4.9c0,0-3.1,0.7-3.9,0.7c-0.8,0-1.1-2.3-1.1-2.3s-2.6-7-3.8-7.2
			c-1.1-0.2-1-2.6-0.2-2.6c0,0,2.5,2.9,3.1,5.1s2.1,5.2,2.1,5.2s8.7-2.9,8.7-5.9s-1.8-2.1-1.8-2.1s-2.6,0.2-3.8-1.1
			c0,0-1.5-2.8-0.5-2.8s2.6,1.3,3.1,2c0.5,0.7,2.9,0.7,2.9,0.7s4.3,0.3,5.1,0.3c0.8,0,1.5,2.1,1.5,2.1s1.6,1.3,2.6,1.3s0,2.6,0,2.6
			s0.8,5.2,2.5,5.2s2-2.8,1.8-5.1s0.8-0.8,1.6-1.1c0.8-0.3,2.5-2.3,2.6-2.9c0.2-0.7,2.5-1.1,2.5-1.1s-0.5,1,0.7,2.3
			c1.1,1.3,0.3,3.1,0.3,3.1s1,1.5,2.3,1.1c1.3-0.3-0.7,1.8,0.2,2.8c0.8,1,2.1,5.4,0.7,4.1l-2-1.3c0,0,3.1,5.4,4.1,5.4
			c0,0,2.3-1,0.2-1.6c0,0,0.7-3.1-0.3-4.6c0,0-1.8-0.3-1.5-4.7c0,0,1.8,0.7,2.3,2.5c0,0,3.1-0.8,2-4.4c0,0-1.8-2.1,0.3-2.3
			c0,0,1.3-0.3,1.1-2.1c0,0,2.9-2,3.4-2.9c0.5-1,1.3-5.1-0.2-6.9s-0.2-1.8-0.2-1.8s-2-2.9-0.8-2.8c1.1,0.2,1.6-1.3,2,0
			c0.3,1.3,1.5,1.6,2.3,0.3c0,0,0.8-2.8,0.8-3.6c0-0.8,0.7-0.3,1.3-0.3s0.2-2.1,0.2-2.1l0.5-5.7c0,0,1.5,2.6,1.5,1s-1.1-3.3-2.1-3.4
			c-1-0.2-2.5-0.3-2.5-0.3l0.2-6.2c0,0,1.8,1.1,2.5-0.3s0.5,0.8,1.3,0.8c0.8,0-0.8-4.3-0.2-4.1c0.7,0.2,1.5,0,1.5,0s0.7,2,0.8,2.5
			c0.2,0.5,1.1,5.9,2.3,7.9C483.6,50.7,481.6,42,482.3,41.6z M419.2,50.6l-0.2,1.3c0,0-0.5-0.2-1,0c-0.5,0.2-1.8-0.5-1.8-0.5
			s0.5-1.6,1.3-2.5c0.8-0.8,0.3-2.6,0.3-2.6c1,0.2,0.8-2.1,2-1.8c1.1,0.3,0.8,1.8,0.8,1.8l2.5,0.5c0,0,1.3,0.3,0.5,0.8
			c-0.8,0.5-2.6,0.5-2.6,0.5s0.2,1,0.3,1.5c0.2,0.5-0.2,0.8-0.8,1C419.9,50.7,419.2,50.6,419.2,50.6z M428.1,66
			c-0.7,0.2-3.1-0.2-3.1-0.2l-1.6-0.7c0,0-0.2,0.7-0.7,0.7c-0.5,0-1.6-0.3-1.6-0.3l0.7-2.1l0.8-1.8c0,0,0.3-0.7,1.1-0.7
			c0.8,0,1.1,1,1,1.5c-0.2,0.5,1.8,0.7,1.8,0.2s0.7-0.2,1.1,0.7c0.5,0.8,1.6,1.6,1.6,1.6S428.7,65.8,428.1,66z M435.3,69.7
			c-0.8,0-1.1-0.2-1.6-0.3c-0.5-0.2-0.7-0.8-0.8-1.8c-0.2-1,0,0,0.5-1c0.5-1-0.2-0.7-0.8-1.5s-0.2-0.7-0.7-1
			c-0.5-0.3-0.7-1.1-0.7-1.1s1.3-1.1,1.5-1.8c0.2-0.7,1.1,0.2,1.6,0c0.5-0.2,0.8-0.5,0.8-0.5l0.7,1c0,0,0,0-0.5,1s0,0-0.7-0.2
			s-0.2,0.7-0.2,0.7s0.2,1.1,1,2.1c0.8,1,0,0,0.2,0.8s0.3,0.8,0.2,1.6c-0.2,0.8,0.7,0.8,0.7,0.8S436.1,69.7,435.3,69.7z"/>
	</g>
	<g>
		<path class="st1" d="M38.2,76.6C34.9,77.5,32,78,29.6,78c-4.3,0-7.6-1.2-9.9-3.7c-2.3-2.5-3.5-6-3.5-10.5c0-4.5,1.2-8,3.5-10.5
			c2.3-2.5,5.6-3.7,9.8-3.7c2.8,0,5.6,0.4,8.6,1.2v3.6c-3.7-1.3-6.6-1.9-8.6-1.9c-2.9,0-5.2,1-6.8,3c-1.6,2-2.4,4.8-2.4,8.4
			c0,3.6,0.9,6.4,2.6,8.3c1.7,2,4.2,3,7.3,3c1.3,0,2.7-0.2,4.2-0.7v-8.8h3.8V76.6z"/>
		<path class="st1" d="M53.2,62.8c3.3-0.5,5-2.4,5-5.5c0-2.8-2-4.2-6.1-4.2h-2.4V63v2.9v11.5h-3.8V50.2h8.2c2.6,0,4.6,0.6,6,1.7
			c1.4,1.1,2.1,2.8,2.1,5c0,3.6-1.8,6.2-5.5,7.7l9,12.7H61l-7.7-11.5C52.1,64.1,53.2,62.8,53.2,62.8z"/>
		<path class="st1" d="M70.4,50.2h3.8v17.1c0,2.7,0.5,4.7,1.5,5.9c1,1.2,2.6,1.9,4.8,1.9c2.1,0,3.7-0.6,4.6-1.7
			c0.9-1.2,1.3-3.1,1.3-5.9V50.2h3.4v17.2c0,3.7-0.8,6.4-2.3,8.1c-1.5,1.7-3.9,2.5-7.3,2.5c-3.4,0-5.9-0.9-7.5-2.6
			c-1.6-1.7-2.4-4.4-2.4-8.1V50.2z"/>
		<path class="st1" d="M105.3,63.5c1.2-0.5,2.2-0.7,3.1-1.4c1.2-1,1.9-2.5,1.9-4.4c0-1.6-0.5-2.8-1.5-3.5c-1-0.7-2.6-1-4.9-1h-2.4
			v10.5v2.9v10.8h-3.8V50.2h7.4c3.3,0,5.6,0.6,7,1.7c1.4,1.1,2.1,2.9,2.1,5.4c0,2.9-1,5.1-2.9,6.8c-1.5,1.2-3.4,2-5.7,2.3
			C105.6,66.4,104,64,105.3,63.5z"/>
		<path class="st1" d="M130.3,78c-3.8,0-6.8-1.3-9.1-3.9c-2.3-2.6-3.4-6.1-3.4-10.3c0-4.3,1.2-7.8,3.5-10.3c2.3-2.6,5.4-3.9,9.2-3.9
			c3.8,0,6.9,1.3,9.2,3.9c2.3,2.6,3.5,6,3.5,10.3c0,4.4-1.2,7.9-3.5,10.4C137.4,76.7,134.2,78,130.3,78z M130.4,75.1
			c2.8,0,4.9-1,6.4-3c1.5-2,2.3-4.8,2.3-8.5c0-3.5-0.8-6.3-2.3-8.3c-1.5-2-3.6-3-6.3-3c-2.7,0-4.8,1-6.3,3c-1.5,2-2.3,4.8-2.3,8.3
			c0,3.5,0.8,6.3,2.3,8.3C125.6,74.1,127.7,75.1,130.4,75.1z"/>
	</g>
	<g>
		<path class="st2" d="M290.7,62.8c3.3-0.5,5-2.4,5-5.5c0-2.8-2-4.2-6.1-4.2h-2.4V63v2.9v11.5h-3.8V50.2h8.2c2.6,0,4.6,0.6,6,1.7
			c1.4,1.1,2.1,2.8,2.1,5c0,3.6-1.8,6.2-5.5,7.7l9,12.7h-4.7l-7.7-11.5C289.6,64.1,290.7,62.8,290.7,62.8z"/>
		<path class="st2" d="M360.8,63.5c1.2-0.5,2.2-0.7,3.1-1.4c1.2-1,1.9-2.5,1.9-4.4c0-1.6-0.5-2.8-1.5-3.5c-1-0.7-2.6-1-4.9-1H357
			v10.5v2.9v10.8h-3.8V50.2h7.4c3.3,0,5.6,0.6,7,1.7c1.4,1.1,2.1,2.9,2.1,5.4c0,2.9-1,5.1-2.9,6.8c-1.5,1.2-3.4,2-5.7,2.3
			C361.2,66.4,359.5,64,360.8,63.5z"/>
		<path class="st2" d="M154.8,78c-1.8,0-4.1-0.4-7-1.2V73c3.1,1.4,5.6,2.1,7.5,2.1c1.5,0,2.7-0.4,3.7-1.2c0.9-0.8,1.4-1.8,1.4-3.1
			c0-1.1-0.3-2-0.9-2.7c-0.6-0.7-1.7-1.6-3.3-2.5l-1.9-1.1c-2.3-1.3-3.9-2.6-4.9-3.7c-0.9-1.2-1.4-2.5-1.4-4.1
			c0-2.1,0.8-3.8,2.3-5.2c1.5-1.3,3.4-2,5.8-2c2.1,0,4.3,0.3,6.6,1v3.5c-2.9-1.1-5-1.7-6.4-1.7c-1.3,0-2.4,0.4-3.3,1.1
			c-0.9,0.7-1.3,1.6-1.3,2.7c0,0.9,0.3,1.7,1,2.4c0.6,0.7,1.8,1.5,3.5,2.5l1.9,1.1c2.3,1.3,4,2.6,4.9,3.8c0.9,1.2,1.4,2.6,1.4,4.3
			c0,2.4-0.9,4.2-2.6,5.7C160,77.3,157.7,78,154.8,78z"/>
		<path class="st2" d="M177.8,67h6.7l-4.6-11.7L175.2,67l-1.1,2.9l-3,7.5h-3.6l10.7-27.1h3.8l10.6,27.1h-4.2l-2.9-7.5h-7.7
			C176.9,69,177.8,67,177.8,67z"/>
		<path class="st2" d="M197.6,77.3V50.2h3.8L215,71.2V50.2h3.3v27.1h-3.8l-13.7-20.9v20.9H197.6z"/>
		<path class="st2" d="M238,78c-4.2,0-7.5-1.2-9.8-3.7c-2.3-2.5-3.4-6-3.4-10.5c0-4.5,1.2-8,3.5-10.5c2.3-2.5,5.6-3.7,9.9-3.7
			c2.4,0,5.3,0.4,8.5,1.2v3.6c-3.7-1.3-6.6-1.9-8.6-1.9c-2.9,0-5.2,1-6.8,3c-1.6,2-2.4,4.8-2.4,8.4c0,3.5,0.9,6.2,2.6,8.2
			c1.7,2,4.1,3,7.1,3c2.6,0,5.3-0.8,8.2-2.4v3.3C244,77.3,241.1,78,238,78z"/>
		<path class="st2" d="M264.2,78c-3.8,0-6.8-1.3-9.1-3.9c-2.3-2.6-3.4-6.1-3.4-10.3c0-4.3,1.2-7.8,3.5-10.3c2.3-2.6,5.4-3.9,9.2-3.9
			c3.8,0,6.9,1.3,9.2,3.9c2.3,2.6,3.5,6,3.5,10.3c0,4.4-1.2,7.9-3.5,10.4C271.3,76.7,268.2,78,264.2,78z M264.3,75.1
			c2.8,0,4.9-1,6.4-3c1.5-2,2.3-4.8,2.3-8.5c0-3.5-0.8-6.3-2.3-8.3c-1.5-2-3.6-3-6.3-3c-2.7,0-4.8,1-6.3,3c-1.5,2-2.3,4.8-2.3,8.3
			c0,3.5,0.8,6.3,2.3,8.3C259.5,74.1,261.6,75.1,264.3,75.1z"/>
		<path class="st2" d="M306.4,77.3v-3.1L321,53.1h-13.7v-2.9h18.3v2.9L311,74.3h14.6v3.1H306.4z"/>
		<path class="st2" d="M331.9,77.3V50.2H347v2.9h-11.3v8.7h9.5v2.8h-9.5v9.8h12.1v2.9H331.9z"/>
	</g>
	<g>
		<path class="st1" d="M80.6,98.3v-11h3.7c1.1,0,2,0.1,2.7,0.4c0.7,0.2,1.3,0.7,1.7,1.2c0.8,0.9,1.2,2.1,1.2,3.7
			c0,1.8-0.5,3.3-1.5,4.3c-1,1-2.3,1.5-4.1,1.5H80.6z M82.2,97.1h2c1.4,0,2.4-0.4,3-1.2c0.6-0.8,1-1.9,1-3.3c0-1.3-0.3-2.3-0.9-3.1
			c-0.4-0.5-0.8-0.8-1.4-0.9c-0.5-0.2-1.3-0.3-2.4-0.3h-1.3V97.1z"/>
		<path class="st1" d="M92.3,98.3v-11h1.6v11H92.3z"/>
		<path class="st1" d="M100,98.3l-4.2-11h1.6l3.4,9l3.3-9h1.4l-4,11H100z"/>
		<path class="st1" d="M107.3,98.3v-11h1.6v11H107.3z"/>
		<path class="st1" d="M114.1,98.6c-0.7,0-1.7-0.2-2.8-0.5v-1.6c1.2,0.6,2.3,0.9,3.1,0.9c0.6,0,1.1-0.2,1.5-0.5
			c0.4-0.3,0.6-0.7,0.6-1.3c0-0.4-0.1-0.8-0.4-1.1c-0.2-0.3-0.7-0.6-1.4-1l-0.8-0.4c-0.9-0.5-1.6-1-2-1.5c-0.4-0.5-0.6-1-0.6-1.7
			c0-0.9,0.3-1.5,0.9-2.1c0.6-0.5,1.4-0.8,2.4-0.8c0.9,0,1.7,0.1,2.7,0.4v1.4c-1.2-0.5-2-0.7-2.6-0.7c-0.5,0-1,0.1-1.3,0.4
			c-0.4,0.3-0.5,0.7-0.5,1.1c0,0.4,0.1,0.7,0.4,1c0.3,0.3,0.7,0.6,1.4,1l0.8,0.4c1,0.5,1.6,1.1,2,1.5c0.4,0.5,0.6,1.1,0.6,1.7
			c0,1-0.4,1.7-1.1,2.3C116.2,98.3,115.3,98.6,114.1,98.6z"/>
		<path class="st1" d="M120.4,98.3v-11h1.6v11H120.4z"/>
		<path class="st1" d="M129.6,98.6c-1.5,0-2.8-0.5-3.7-1.6c-0.9-1.1-1.4-2.5-1.4-4.2c0-1.8,0.5-3.2,1.4-4.2c0.9-1.1,2.2-1.6,3.8-1.6
			c1.6,0,2.8,0.5,3.8,1.6c0.9,1,1.4,2.4,1.4,4.2c0,1.8-0.5,3.2-1.4,4.2C132.4,98.1,131.2,98.6,129.6,98.6z M129.6,97.4
			c1.1,0,2-0.4,2.6-1.2c0.6-0.8,0.9-2,0.9-3.4c0-1.4-0.3-2.6-0.9-3.4c-0.6-0.8-1.5-1.2-2.6-1.2c-1.1,0-2,0.4-2.6,1.2
			c-0.6,0.8-0.9,1.9-0.9,3.4c0,1.4,0.3,2.6,0.9,3.4C127.7,97,128.5,97.4,129.6,97.4z"/>
		<path class="st1" d="M137.2,98.3v-11h1.5l5.6,8.5v-8.5h1.3v11h-1.5l-5.6-8.5v8.5H137.2z"/>
		<path class="st1" d="M158.6,98.6c-1.7,0-3-0.5-4-1.5c-0.9-1-1.4-2.4-1.4-4.3c0-1.8,0.5-3.3,1.4-4.3c1-1,2.3-1.5,4-1.5
			c1,0,2.1,0.2,3.5,0.5v1.5c-1.5-0.5-2.7-0.8-3.5-0.8c-1.2,0-2.1,0.4-2.8,1.2c-0.7,0.8-1,2-1,3.4c0,1.4,0.4,2.5,1.1,3.3
			c0.7,0.8,1.7,1.2,2.9,1.2c1,0,2.2-0.3,3.4-1v1.3C161.1,98.3,159.9,98.6,158.6,98.6z"/>
		<path class="st1" d="M169.2,98.6c-1.5,0-2.8-0.5-3.7-1.6c-0.9-1.1-1.4-2.5-1.4-4.2c0-1.8,0.5-3.2,1.4-4.2c0.9-1.1,2.2-1.6,3.8-1.6
			c1.6,0,2.8,0.5,3.8,1.6c0.9,1,1.4,2.4,1.4,4.2c0,1.8-0.5,3.2-1.4,4.2C172.1,98.1,170.8,98.6,169.2,98.6z M169.2,97.4
			c1.1,0,2-0.4,2.6-1.2c0.6-0.8,0.9-2,0.9-3.4c0-1.4-0.3-2.6-0.9-3.4c-0.6-0.8-1.5-1.2-2.6-1.2c-1.1,0-2,0.4-2.6,1.2
			c-0.6,0.8-0.9,1.9-0.9,3.4c0,1.4,0.3,2.6,0.9,3.4C167.3,97,168.1,97.4,169.2,97.4z"/>
		<path class="st1" d="M176.9,98.3v-11h2.2l3.1,8.5l3.1-8.5h1.9v11h-1.5v-9l-3,8.2h-1.5l-3-8.3v9H176.9z"/>
		<path class="st1" d="M190.3,98.3v-11h6.2v1.2h-4.6V92h3.9v1.2h-3.9v4h4.9v1.2H190.3z"/>
		<path class="st1" d="M213.5,98.6c-1.7,0-3-0.5-4-1.5c-0.9-1-1.4-2.4-1.4-4.3c0-1.8,0.5-3.3,1.4-4.3c1-1,2.3-1.5,4-1.5
			c1,0,2.1,0.2,3.5,0.5v1.5c-1.5-0.5-2.7-0.8-3.5-0.8c-1.2,0-2.1,0.4-2.8,1.2c-0.7,0.8-1,2-1,3.4c0,1.4,0.4,2.5,1.1,3.3
			c0.7,0.8,1.7,1.2,2.9,1.2c1,0,2.2-0.3,3.4-1v1.3C216,98.3,214.8,98.6,213.5,98.6z"/>
		<path class="st1" d="M219.6,98.3v-11h1.6v11H219.6z"/>
		<path class="st1" d="M228.8,98.6c-1.5,0-2.8-0.5-3.7-1.6c-0.9-1.1-1.4-2.5-1.4-4.2c0-1.8,0.5-3.2,1.4-4.2c0.9-1.1,2.2-1.6,3.8-1.6
			c1.6,0,2.8,0.5,3.8,1.6c0.9,1,1.4,2.4,1.4,4.2c0,1.8-0.5,3.2-1.4,4.2C231.7,98.1,230.4,98.6,228.8,98.6z M228.8,97.4
			c1.1,0,2-0.4,2.6-1.2c0.6-0.8,0.9-2,0.9-3.4c0-1.4-0.3-2.6-0.9-3.4c-0.6-0.8-1.5-1.2-2.6-1.2c-1.1,0-2,0.4-2.6,1.2
			c-0.6,0.8-0.9,1.9-0.9,3.4c0,1.4,0.3,2.6,0.9,3.4C226.9,97,227.7,97.4,228.8,97.4z"/>
		<path class="st1" d="M241.6,98.3v-11h6.2v1.2h-4.6V92h3.9v1.2h-3.9v4h4.9v1.2H241.6z"/>
		<path class="st1" d="M252.2,92.3l-3.2-5h1.8l2.7,4.2l2.8-4.2h1.5l-3.3,5L252.2,92.3z M254.4,92.9l3.5,5.5H256l-2.8-4.4l-2.9,4.4
			h-1.5l3.6-5.4L254.4,92.9z"/>
		<path class="st1" d="M262.6,98.3v-9.9h-3.9v-1.2h9.4v1.2h-3.9v9.9H262.6z"/>
		<path class="st1" d="M269.9,98.3v-11h6.2v1.2h-4.6V92h3.9v1.2h-3.9v4h4.9v1.2H269.9z"/>
		<path class="st1" d="M288.4,98.3v-11h1.6v11H288.4z"/>
		<path class="st1" d="M297.5,98.6c-1.5,0-2.8-0.5-3.7-1.6c-0.9-1.1-1.4-2.5-1.4-4.2c0-1.8,0.5-3.2,1.4-4.2c0.9-1.1,2.2-1.6,3.8-1.6
			c1.6,0,2.8,0.5,3.8,1.6c0.9,1,1.4,2.4,1.4,4.2c0,1.8-0.5,3.2-1.4,4.2C300.4,98.1,299.1,98.6,297.5,98.6z M297.5,97.4
			c1.1,0,2-0.4,2.6-1.2c0.6-0.8,0.9-2,0.9-3.4c0-1.4-0.3-2.6-0.9-3.4c-0.6-0.8-1.5-1.2-2.6-1.2c-1.1,0-2,0.4-2.6,1.2
			c-0.6,0.8-0.9,1.9-0.9,3.4c0,1.4,0.3,2.6,0.9,3.4C295.6,97,296.4,97.4,297.5,97.4z"/>
		<path class="st1" d="M201.9,92.4c1.4-0.2,2-1,2-2.3c0-1.1-0.8-1.7-2.5-1.7h-1v4v1.2v4.7h-1.6v-11h3.3c1.1,0,1.9,0.2,2.4,0.7
			c0.6,0.5,0.8,1.1,0.8,2c0,1.5-0.7,2.5-2.2,3.1l3.7,5.2H205l-3.1-4.7C201.4,92.9,201.9,92.4,201.9,92.4z"/>
		<path class="st1" d="M281.4,92.4c1.4-0.2,2-1,2-2.3c0-1.1-0.8-1.7-2.5-1.7h-1v4v1.2v4.7h-1.6v-11h3.3c1.1,0,1.9,0.2,2.4,0.7
			c0.6,0.5,0.8,1.1,0.8,2c0,1.5-0.7,2.5-2.2,3.1l3.7,5.2h-1.9l-3.1-4.7C281,92.9,281.4,92.4,281.4,92.4z"/>
		<path class="st1" d="M308.2,92.4c1.4-0.2,2-1,2-2.3c0-1.1-0.8-1.7-2.5-1.7h-1v4v1.2v4.7h-1.6v-11h3.3c1.1,0,1.9,0.2,2.4,0.7
			c0.6,0.5,0.8,1.1,0.8,2c0,1.5-0.7,2.5-2.2,3.1l3.7,5.2h-1.9l-3.1-4.7C307.7,92.9,308.2,92.4,308.2,92.4z"/>
	</g>
</g>
</svg>
