<?xml version="1.0" encoding="utf-8"?>
<!-- Generator: Adobe Illustrator 19.0.0, SVG Export Plug-In . SVG Version: 6.00 Build 0)  -->
<svg version="1.1" id="Capa_1" xmlns="http://www.w3.org/2000/svg" xmlns:xlink="http://www.w3.org/1999/xlink" x="0px" y="0px"
	 viewBox="0 0 482.8 97.3" style="enable-background:new 0 0 482.8 97.3;" xml:space="preserve">
<style type="text/css">
	.st0{opacity:0.3;}
	.st1{fill:#093071;}
	.st2{fill:#009BDB;}
	.st3{fill:#5B5B5F;}
</style>
<g>
	<g>
		<g class="st0">
			<path d="M458.2,33.5l0.4-2.9c0,0-1.6-0.9-1.5-2c0,0-2.5-4.6-4.6-4.1c0,0,0.4,2-0.5,1l-0.6-0.5c0,0-0.5,0.7-1.4,0
				c0,0-1-0.9-1.9-0.6c0,0-2.4-2.2-3.1-1c0,0,1,1.7,0.1,1.5l-0.7-0.4v0.6c0,0-1,0.1-2.9-2.6l-1-0.2l0.1,1.2c0,0-2.5,0.5-3.2-0.7
				c0,0-1.5-3.1-1.2-4l-1.6,0.5l-0.9-1.4c0,0-1,0.2-0.6,0.7c0.4,0.5,0.4,1,0.4,1s-0.5,1-1,1c-0.5,0-1.5-0.1-1.1,0.5
				c0.4,0.6,0,0.6,0.2,1.1c0.2,0.5,0.6,1.7,0,1.5c-0.6-0.2-1.1-1.5-1.1-0.2c0,1.2,0.9,2,0.9,2s-0.1,1.2-0.5,0.6s-1-1.5-1-0.9
				c0,0.6,0,1.2,0,1.2l-0.5,0.2c0,0,0.5,1.1,0.5,1.6c0,0.5,0.4,2.5,0,2.6c-0.4,0.1-0.6,1-0.6,1s-0.7,0.2-0.6-0.2
				c0.1-0.5,0.5-1,0.5-2s-0.7-2.7-0.7-3.6c0-0.9-0.5-1.5-0.5-1.5s-0.7,0.6-0.7,1.5c0,0.9-1.4,0.1-0.5,1.4c0.9,1.2,1.4,1.5,1.2,1.9
				c-0.1,0.4,0,0.7-0.7,0.2c-0.7-0.5-0.9-0.2-1.4-1.2c-0.5-1-1.5-1.7-1.2-0.9c0.2,0.9,0.6,2,0.6,2s-0.1,0.9-1,0.6
				c-0.9-0.2-1.4-0.2-1.4-0.2s-0.7-0.5-1,0.1c-0.2,0.6-0.5,1-0.9,1.2c-0.4,0.2-0.4,0.2-0.4,0.2s-0.4-0.5-0.1-0.9
				c0.2-0.4,0.4-0.5,0-0.9s-1.2-0.1-0.9,1.4c0.4,1.5-0.1,0.9-0.5,0.9s-0.6,0.9-0.6,0.9v0.9l-0.7-0.6l-0.5,1c0,0-1.6-1.5-0.5-2.1
				s1.7-0.1,1.7-0.1s0.6-1.5,0.1-1.7c-0.5-0.2-1.9-1.6-1.9-1.6l-0.9-0.4v-1l-1,0.1c0,0-1,1.4-1.5,1c-0.5-0.4-0.5-0.6-1-0.6
				c-0.5,0-1.7,0.9-1.5,1.7c0.2,0.9-0.4,1.6-0.4,1.6s-1.4,1.1-1.7,1.4c-0.4,0.2-2.2,2.9-2.5,3.4c-0.2,0.5-1.6,2.1-1.6,2.1l2.6,0.6
				c0,0,0.7,0.9,0,1.1s-1.1,0.6-1.1,1.2s-0.7,1.2-0.7,1.2s-0.2,0.5-0.9,0.6c-0.6,0.1-1.2,1.1-1.2,1.1s-1.2-2-0.9-2.6s0.6-1.9,1.1-2
				c0.5-0.1-1.2-0.6-1.2-0.6l-1.1-0.1h-0.7v1.2c0,0-1.4,0.9-1.6,1.2c-0.2,0.4,0.6,1,0.6,1l-0.6,1.1l1.1-0.2c0,0,0.5-1.6,1-1.4
				c0.5,0.2,0.7,1,0.4,1c-0.4,0-1.1,1-1.1,1l0.2,0.7l0.9,0.2c0,0,0.7-0.5,0.9,0s-0.5,1.1-0.9,1.1c-0.4,0-1.5-0.5-1.5-0.5l0.1,1.5
				c0,0-0.2,0.7,0.4,1c0.6,0.2,0.6,1,0.6,1l-1.1,0.7c0,0-1.7-0.5-2.1-0.4s-1,2-0.4,3c0.6,1-0.4,0.2,0.6,1c1,0.7,0.7,0.9,1.7,0.6
				c1-0.2,1.1-1,1.1-1l-0.1-1c0,0,0-0.6,0.6-1c0.6-0.4,1-1.2,1-1.2l1.7,0.1v2.2c0,0,0.5,0.5,1.2,0.5s1.5,0,1.5,0l-0.2,0.9l0.6,0.1
				c0,0,0.4-0.5,0.2-1c-0.1-0.5-0.1-1.1-0.5-1.1s-0.7,0.6-0.4,0s0.5-1.5,0.5-1.5s1,0.4,1.1,0.9c0.1,0.5-0.6,1.4,0,1.7
				c0.6,0.4,0.6-0.6,0.6,0.4c0,1,0,1.2,0.4,1.5c0.4,0.2,0,1,0.4,0.2s0.6-1.4,0.6-1.4s-1.1,0-0.6-0.5c0.5-0.5,0,0.1,1-0.5
				c1-0.6,0.5,0.4,0.6,1c0.1,0.6-0.6,1.2,0.1,1.5c0.7,0.2,0.6,0.5,1.6,0.6s1.1,0,1.6,0.1c0.5,0.1,0.6,0.1,0.5,0.6
				c-0.1,0.5-1.1,1.2-1,1.7c0.1,0.5-0.5,0.6-0.9,0.5s-2.5-0.4-2.5-0.4s-1.1-0.2-1.7,0c-0.6,0.2,0.4,0-0.6,0.2s-1.5,0.7-2-0.1
				c-0.5-0.9-1-0.9-1.5-1.4c-0.5-0.5-0.7-1-0.5-1.4c0.2-0.4,0.1-1.2,0.1-1.2l-2.6-0.1l-3.1,0.5c0,0-0.2,0.6-0.9,1.1
				c-0.6,0.5-1.9,2.7-2.6,2.7c0,0-1.4,4.1-1.2,4.5c0.1,0.4-1.5,3.5,1.1,5.2c2.6,1.7,0.9,2.5,3.9,2.2c3-0.2,4.2-0.1,4.9,1.2
				c0.6,1.4,2,4.9,2.2,5.9c0.2,1,0.2,3.1-0.2,2.4c-0.5-0.7,1.9,4.7,2.6,5.9c0.7,1.1,0.5,2.4,2.5,2.7c2,0.4,1.7,0.7,2.5-0.7
				c0.7-1.5,0.9-2.1,0.9-2.5c0-0.4,1-0.1,1-0.1v-1.5c0,0,0.6-1.2,1.4-1.9s0.6-2.2,0.6-2.2l-0.6-1.4c0,0,1.5,0.7,1.9-0.1
				s0.4-0.9,0.4-0.9l-2.1-0.5c0,0,0-1.4,0.6-1.9c0.6-0.5,0.7-1.1,0.7-1.1l1.2-0.7c0,0,2.1-2.1,2-3.7c0,0-2.4,0.5-3,0.5
				c-0.6,0-0.9-1.7-0.9-1.7s-2-5.4-2.9-5.5c-0.9-0.1-0.7-2-0.1-2c0,0,1.9,2.2,2.4,3.9c0.5,1.6,1.6,4,1.6,4s6.6-2.2,6.6-4.5
				s-1.4-1.6-1.4-1.6s-2,0.1-2.9-0.9c0,0-1.1-2.1-0.4-2.1s2,1,2.4,1.5c0.4,0.5,2.2,0.5,2.2,0.5s3.2,0.2,3.9,0.2
				c0.6,0,1.1,1.6,1.1,1.6s1.2,1,2,1c0.7,0,0,2,0,2s0.6,4,1.9,4c1.2,0,1.5-2.1,1.4-3.9c-0.1-1.7,0.6-0.6,1.2-0.9
				c0.6-0.2,1.9-1.7,2-2.2c0.1-0.5,1.9-0.9,1.9-0.9s-0.4,0.7,0.5,1.7c0.9,1,0.2,2.4,0.2,2.4s0.7,1.1,1.7,0.9c1-0.2-0.5,1.4,0.1,2.1
				c0.6,0.7,1.6,4.1,0.5,3.1l-1.5-1c0,0,2.4,4.1,3.1,4.1c0,0,1.7-0.7,0.1-1.2c0,0,0.5-2.4-0.2-3.5c0,0-1.4-0.2-1.1-3.6
				c0,0,1.4,0.5,1.7,1.9c0,0,2.4-0.6,1.5-3.4c0,0-1.4-1.6,0.2-1.7c0,0,1-0.2,0.9-1.6c0,0,2.2-1.5,2.6-2.2c0.4-0.7,1-3.9-0.1-5.2
				s-0.1-1.4-0.1-1.4s-1.5-2.2-0.6-2.1c0.9,0.1,1.2-1,1.5,0c0.2,1,1.1,1.2,1.7,0.2c0,0,0.6-2.1,0.6-2.7s0.5-0.2,1-0.2
				c0.5,0,0.1-1.6,0.1-1.6l0.4-4.4c0,0,1.1,2,1.1,0.7s-0.9-2.5-1.6-2.6s-1.9-0.2-1.9-0.2l0.1-4.7c0,0,1.4,0.9,1.9-0.2
				c0.5-1.1,0.4,0.6,1,0.6s-0.6-3.2-0.1-3.1c0.5,0.1,1.1,0,1.1,0s0.5,1.5,0.6,1.9c0.1,0.4,0.9,4.5,1.7,6
				C459.2,40.5,457.7,33.9,458.2,33.5z M410.2,40.4l-0.1,1c0,0-0.4-0.1-0.7,0C409,41.5,408,41,408,41s0.4-1.2,1-1.9
				c0.6-0.6,0.2-2,0.2-2c0.7,0.1,0.6-1.6,1.5-1.4c0.9,0.2,0.6,1.4,0.6,1.4l1.9,0.4c0,0,1,0.2,0.4,0.6c-0.6,0.4-2,0.4-2,0.4
				s0.1,0.7,0.2,1.1c0.1,0.4-0.1,0.6-0.6,0.7S410.2,40.4,410.2,40.4z M416.9,52.1c-0.5,0.1-2.4-0.1-2.4-0.1l-1.2-0.5
				c0,0-0.1,0.5-0.5,0.5c-0.4,0-1.2-0.2-1.2-0.2l0.5-1.6l0.6-1.4c0,0,0.2-0.5,0.9-0.5c0.6,0,0.9,0.7,0.7,1.1
				c-0.1,0.4,1.4,0.5,1.4,0.1c0-0.4,0.5-0.1,0.9,0.5s1.2,1.2,1.2,1.2S417.4,51.9,416.9,52.1z M422.4,54.9c-0.6,0-0.9-0.1-1.2-0.2
				s-0.5-0.6-0.6-1.4c-0.1-0.7,0,0,0.4-0.7s-0.1-0.5-0.6-1.1c-0.5-0.6-0.1-0.5-0.5-0.7c-0.4-0.2-0.5-0.9-0.5-0.9s1-0.9,1.1-1.4
				s0.9,0.1,1.2,0c0.4-0.1,0.6-0.4,0.6-0.4l0.5,0.7c0,0,0,0-0.4,0.7s0,0-0.5-0.1c-0.5-0.1-0.1,0.5-0.1,0.5s0.1,0.9,0.7,1.6
				c0.6,0.7,0,0,0.1,0.6c0.1,0.6,0.2,0.6,0.1,1.2c-0.1,0.6,0.5,0.6,0.5,0.6S423,54.9,422.4,54.9z"/>
			<path d="M420.1,10.1c0,0-7,2.1-7.6,2.1l1.6-1.1c0,0,2.9-0.1,2.9-0.9c0-0.7-1.9,0.1-1.9,0.1s-1.1,0.2-1.6,0.5
				c-0.5,0.2-1.7,0.7-2.2,0.9c-0.5,0.1-1,0.2-1.4,0.5c-0.4,0.2-0.4-0.4-1.5,0.1s-3.2,0.9-3.6,1.6c-0.4,0.7,0.7,0.2-0.4,0.7
				c-1.1,0.5-1.4,0.5-1.9,0.7c-0.5,0.2-1.9,0.4-1.9,0.4l-0.6,0.7l2.2,0.1c0,0,1.1-1,2-1.2c0.9-0.2,1.7-1.5,2.9-1.7
				c1.1-0.2,1.7-0.2,2.1-0.2s-4,1.7-4.9,2.7c-0.9,1-2,0.5-2,1.4c0,0.9-0.4,1.5-0.7,1.6c-0.4,0.1-0.2,0.6-1.4,1.6s-2.2,1.5-2.4,2.5
				c-0.1,1,0.2,1-0.6,1.2c-0.9,0.2-1.7,0-1.2,0.7c0.5,0.7-0.2,1.4-0.2,1.4s-1,0.1-1.2,0.9c-0.2,0.7-1.6,2.9-1.6,3.6
				s-1.1,1.5-0.9,2.2c0.2,0.7,0.2,1.4,1,0.4c0.7-1,0.2-0.9,1.2-1.7c1-0.9,1.4-1.6,2.7-2.4c1.4-0.7,2.6-1.4,3.4-1.7s2-0.1,1.9-1.6
				c-0.1-1.5,1.1-1.6,1.6-2c0.5-0.4,0.9-1.1,1.4-1.7c0.5-0.6,1-1,1.4-1.1c0.4-0.1,1.2-2,1.6-2.4c0.4-0.4,1-0.7,1.4-1.2
				c0.4-0.5,0.9-1.2,1.5-1.7c0.6-0.5,0.6-0.4,1.7-1c1.1-0.6,0.6-0.5,2-1.2c1.4-0.7,1.9-0.7,2-1.1C416.9,12.3,419.3,10.2,420.1,10.1z
				"/>
			<path d="M383.7,32.8c0,0-5.1,8.7-6.1,17.9l0.7,1c0,0,0.5-0.4,0.7-1.2s0.7-1,0.9-1.5c0.1-0.5-0.1-0.7,0.1-1.1
				c0.2-0.4,0.2-0.1,0.9-1.2c0.6-1.1,0.4-1,0.9-1.6c0.5-0.6,1.1-1.7,1.2-0.9c0.1,0.9,0.2,1.4,0.6,0.2s0.1-1.2,0.2-1.7
				c0.1-0.5,0.5-0.9,0-1c-0.5-0.1-0.7-1,0.2-1c1,0,0.2-0.4,1,0c0.7,0.4,1.5,0.4,1.5,0.4s-0.2-0.5,0.2-1.2c0.5-0.7,0.2-1.2-0.2-1.6
				c-0.5-0.4-0.5-0.2,0.2-1.4c0.7-1.1,0.7-2.6,1.2-2.9c0.5-0.2-1.6,0.6-1-0.5c0.6-1.1,0.1-0.1,0.6-1.1c0.5-1,0-2,0-2s-4.6,6.5-4.6,8
				s-1,0.1,0.4-2.9C384.9,32.4,383.7,32.8,383.7,32.8z"/>
			<path d="M386.1,41.6c0,0-1.4,0.7-1,1.1c0.4,0.4,0.6,0.6,1.1,0.4C386.7,42.8,386.1,41.6,386.1,41.6z"/>
			<path d="M379.5,57.9c-0.4-0.1-0.9,0.2-0.2,0.6c0.6,0.4,0.2,0.7,0.6,0.4C380.2,58.5,380.2,58,379.5,57.9z"/>
			<path d="M400.4,31.1c-0.5-0.1-1.2-1.4-1.2-0.4s0.2,1.6-0.2,1.6c-0.5,0-1,0.6-1,0.6l-0.5,0.9c0,0,2.2,0.4,2.6-0.1
				c0.4-0.5,1.2-0.7,1.5-1.4c0.2-0.6,0-1.4,0-1.4L400.4,31.1z"/>
			<path d="M420.8,80.3c0,0,0.6,1.1,0.1,1.6c-0.5,0.5-1,0.5-0.7,1.6c0.2,1.1,0.2,1.4-0.1,1.6s-1.4,0.5-1.4,0.5s-0.6-3.6,0-4
				C419.3,81.3,420.8,81.7,420.8,80.3z"/>
			<path d="M435.1,69.9c0,0,0.4,0.5,0.7,0.7s-0.1,1-0.5,1S435.1,69.9,435.1,69.9z"/>
			<path d="M456.9,46.6l0.7,0.9l-0.2,1l-0.7,0.1C456.7,48.6,457.3,47.1,456.9,46.6z"/>
			<path d="M456.8,49.7c0,0,1.2-1,1,0.2c-0.2,1.2-0.5,1.9-0.5,1.9s-0.7-0.1-0.7,0.5s0.4,1.7,0,1.9c-0.4,0.1-0.7,0.2-1.1,0.4
				s-0.6,0.7-0.6,0.7s-0.9-1.7,0-1.7c0.9,0,0.9-0.6,0.9-0.6s0.7-0.9,0.1-1.5s-0.5-1.6,0.2-1.4C456.8,50.3,456.8,49.7,456.8,49.7z"/>
			<path d="M451.9,63.9c0,0-0.4,1.2,0.4,1.6c0.7,0.4,1.1-0.2,1.2,0.7c0.1,1-0.4,1.7-0.1,2.2c0.2,0.5,0.4,1-0.1,1.1
				c-0.5,0.1-1.2-0.1-1-1.5s0-1.6-0.4-1.9S451.9,63.9,451.9,63.9z"/>
			<path d="M454.8,71.9c0,0,0.6,0,0.7,0.4c0.1,0.4,0.6,0.9,1,0.7s-0.1,0.1,0.4-0.1c0.5-0.2,2-0.1,2-0.1L460,73c0,0,0.6,0.5,0.9,0.1
				c0.2-0.4-0.5,0.9-0.5,0.9s-0.4,0.2-0.2,0.6c0.1,0.4,0.1,0.4,0.1,0.4l-3.2,0.4l-0.4-0.9v-0.6c0,0-2.4,0-2-0.7
				C455.1,72.4,454.8,71.9,454.8,71.9z"/>
			<path d="M457.7,76.7c0,0-0.2,1.4,0.2,1.6c0.5,0.2,0.4,2.4,0.1,2.7c-0.2,0.4,0,1.5-0.2,2.1c-0.2,0.6-0.9,2-1.4,2.1
				c-0.5,0.1-2.4,3.2-3.2,2.9c-0.9-0.4-0.6-1-0.6-1l-0.4-0.7c0,0-0.4-0.4-0.7-0.5c-0.4-0.1-1.7,0-1.7,0l-1,0.9l-1.1,0.6l-1,0.2
				l-0.1-0.9c0,0,0.2,0,0.4-0.5c0.1-0.5,0.2-2.6,0.2-2.6s-0.4-0.5,1.1-1.1c1.5-0.6,1.5-0.6,2.6-1.9s1.5-2.4,1.5-2.4s0.4,0,0.7,0
				s1.2-0.7,1.4-1.1s1.1-1.2,1.1-0.1c0,1.1-1.2,1.2-0.4,1.6c0.9,0.4,0.1,0.7,0.9,0.4s0.7-1.4,0.7-1.4L457.7,76.7z"/>
			<path d="M445.7,76.6c0,0,1.6,0.6,2.4,0.2c0.7-0.4,0.7-0.4,0.7-0.4l-1.4-0.5c0,0,1.4-0.5,2.2-0.5c0.9,0,1.4,0.2,2.1-0.2
				c0.7-0.5-0.2-1.4-0.2-1.4s-0.4-1.1,0.1-1c0.5,0.1,1.2-0.5,1.2-0.9c0-0.4-1.1,0-1.1,0l-0.7,1.1l-0.9,0.9c0,0-0.5-0.6-0.1-0.7
				c0.4-0.1,0.6-0.9,0.6-0.9l-0.2-0.7l-0.4-0.5c0,0,1.6-0.5,0.7-1c-0.9-0.5-0.9-0.5-0.9-0.5s-0.4-0.1-0.7,0.7s-1.1,1.7-1.1,1.7
				l-0.9,0.2c0,0-1,0.2-0.4,0.7c0.6,0.5,0.7-0.5,0.6,0.5c-0.1,1-0.1,1-0.1,1l-0.9,0.4l0.2,0.6C446.7,75.6,446.2,76.9,445.7,76.6z"/>
			<path d="M415.9,17.4c0,0-0.2,1.6,0.7,0.6c1-1,1-1,1-1l-0.1,1.5c0,0,0.1-1.6,0.2-2c0.1-0.4,0.4-1.1,0.4-1.1s0.2,0.4,0.9,0.1
				s0.5-1,0.5-1s-0.4-0.4-0.9-0.4s-0.4,0.4-0.7,0.5s-0.4,0.1-0.4,0.1l-1.1,0.5l-0.2,0.6L415.9,17.4z"/>
			<path d="M376.8,54.4c0,0-0.2,1.9-0.6,1.9s0.2,1.4,0.2,1.4s0.1,1.9,0.6,2.2c0.5,0.4,0.5,2.2,1.1,2.4c0.6,0.1,0.5,6.4,0.5,6.4
				s0.9,0.6,0.7,1.2c-0.1,0.6-0.4,1.1,0.4,1.9c0.7,0.7,1.1,0.9,1.5,2c0.4,1.1,2.2,6.5,3,6.9s1,2.4,2.2,3.4c1.2,1,1.9,2.7,2.2,3
				c0.4,0.2,0.7,1.9,1.4,2c0.6,0.1-2.6-3.7-1.2-3.2c1.4,0.5-0.2-0.1-0.9-1.4c-0.6-1.2,0.5-1.4,0.5-1.4s-1.2-3.5-0.4-3.4
				c0.9,0.1,0.6-0.5,0.6-0.9c0-0.4-1-4.4-0.1-5.1c0.9-0.7,0.1-1.5-0.4-1.5c-0.5,0-0.5-0.7-1.2-1.1c-0.7-0.4-1.1-0.7-1.5-0.9
				c-0.4-0.1-0.6-0.4-1.1-0.9c-0.5-0.5-1.1-1.6-0.9-2.4c0.2-0.7-1-1.4-1.5-2.4c-0.5-1-0.7-1.1-1-1.5c-0.2-0.4-0.7-0.6-0.7-0.6
				l-1.4-1.1c0,0-1.5,0.1-1.4-1.7c0.1-1.9-0.5-2.2-0.4-2.7C377.3,56.3,376.8,54.4,376.8,54.4z"/>
		</g>
		<path class="st1" d="M417.1,7.6c0,0-7,2.1-7.6,2.1l1.6-1.1c0,0,2.9-0.1,2.9-0.9s-1.9,0.1-1.9,0.1s-1.1,0.2-1.6,0.5
			c-0.5,0.2-1.7,0.7-2.2,0.9c-0.5,0.1-1,0.2-1.4,0.5c-0.4,0.2-0.4-0.4-1.5,0.1c-1.1,0.5-3.2,0.9-3.6,1.6c-0.4,0.7,0.7,0.2-0.4,0.7
			s-1.4,0.5-1.9,0.7c-0.5,0.2-1.9,0.4-1.9,0.4l-0.6,0.7l2.2,0.1c0,0,1.1-1,2-1.2c0.9-0.2,1.7-1.5,2.9-1.7c1.1-0.2,1.7-0.2,2.1-0.2
			s-4,1.7-4.9,2.7c-0.9,1-2,0.5-2,1.4s-0.4,1.5-0.7,1.6c-0.4,0.1-0.2,0.6-1.4,1.6c-1.1,1-2.2,1.5-2.4,2.5c-0.1,1,0.2,1-0.6,1.2
			c-0.9,0.2-1.7,0-1.2,0.7c0.5,0.7-0.2,1.4-0.2,1.4s-1,0.1-1.2,0.9c-0.2,0.7-1.6,2.9-1.6,3.6c0,0.7-1.1,1.5-0.9,2.2
			c0.2,0.7,0.2,1.4,1,0.4s0.2-0.9,1.2-1.7c1-0.9,1.4-1.6,2.7-2.4c1.4-0.7,2.6-1.4,3.4-1.7s2-0.1,1.9-1.6c-0.1-1.5,1.1-1.6,1.6-2
			c0.5-0.4,0.9-1.1,1.4-1.7c0.5-0.6,1-1,1.4-1.1c0.4-0.1,1.2-2,1.6-2.4s1-0.7,1.4-1.2c0.4-0.5,0.9-1.2,1.5-1.7s0.6-0.4,1.7-1
			c1.1-0.6,0.6-0.5,2-1.2s1.9-0.7,2-1.1C414,9.8,416.3,7.7,417.1,7.6z"/>
		<path class="st1" d="M396.1,14.7c-0.5-0.1-1,1-1,1s0.7,0.6,1.1,0C396.6,15.1,396.6,14.8,396.1,14.7z"/>
		<path class="st1" d="M393.8,17.8c-0.5,0.1,0.7-1.4-1.4-0.5c-2.1,0.9,0.4,1.1-0.5,1.4c-0.9,0.2-1.1,0.6-1.4,1
			c-0.2,0.4-0.9,0.9-0.4,1.2c0.5,0.4-0.4,1.5-0.9,2.1s-0.9,1.5-0.9,1.5s-0.7,1.2-1.2,1.4c-0.5,0.1,0.4,0.1-0.5,0.1
			c-0.9,0-0.2,0.5-0.6,0.9c-0.4,0.4-0.2,1.4-0.2,1.4s0.9,0.7,1.2,0.1s0.1-1,0.4-1.5c0.2-0.5,0.6-1,1-1.2c0.4-0.2,0.7,1.1,1.1-0.2
			s0.1-2.2,1.2-2.7c1.1-0.5,1.1-1.5,1.1-1.5s-0.2-1,0.4-1.2C392.9,19.7,393.8,17.8,393.8,17.8z"/>
		<path class="st1" d="M388.3,20.9c0,0-4.5,4.4-4.7,5.5s0.7-0.4,0.7-0.4s0.5,1.4,1,0.4c0.5-1-0.5-1.5,0.5-1.7s1.1-1.1,1.5-1.1
			S388.4,22,388.3,20.9z"/>
		<path class="st1" d="M380.7,30.3c0,0-5.1,8.7-6.1,17.9l0.7,1c0,0,0.5-0.4,0.7-1.2c0.2-0.9,0.7-1,0.9-1.5c0.1-0.5-0.1-0.7,0.1-1.1
			c0.2-0.4,0.2-0.1,0.9-1.2c0.6-1.1,0.4-1,0.9-1.6c0.5-0.6,1.1-1.7,1.2-0.9s0.2,1.4,0.6,0.2c0.4-1.1,0.1-1.2,0.2-1.7
			c0.1-0.5,0.5-0.9,0-1c-0.5-0.1-0.7-1,0.2-1s0.2-0.4,1,0c0.7,0.4,1.5,0.4,1.5,0.4s-0.2-0.5,0.2-1.2c0.5-0.7,0.2-1.2-0.2-1.6
			c-0.5-0.4-0.5-0.2,0.2-1.4s0.7-2.6,1.2-2.9c0.5-0.2-1.6,0.6-1-0.5c0.6-1.1,0.1-0.1,0.6-1.1c0.5-1,0-2,0-2s-4.6,6.5-4.6,8
			s-1,0.1,0.4-2.9S380.7,30.3,380.7,30.3z"/>
		<path class="st1" d="M383.1,39.1c0,0-1.4,0.7-1,1.1c0.4,0.4,0.6,0.6,1.1,0.4C383.7,40.4,383.1,39.1,383.1,39.1z"/>
		<path class="st1" d="M397.9,28.2c-0.5-0.1-1.2-1.4-1.2-0.4s0.2,1.6-0.2,1.6s-1,0.6-1,0.6l-0.5,0.9c0,0,2.2,0.4,2.6-0.1
			c0.4-0.5,1.2-0.7,1.5-1.4c0.2-0.6,0-1.4,0-1.4L397.9,28.2z"/>
		<path class="st1" d="M413,15.4c0,0-0.2,1.6,0.7,0.6s1-1,1-1l-0.1,1.5c0,0,0.1-1.6,0.2-2c0.1-0.4,0.4-1.1,0.4-1.1s0.2,0.4,0.9,0.1
			c0.6-0.2,0.5-1,0.5-1s-0.4-0.4-0.9-0.4c-0.5,0-0.4,0.4-0.7,0.5c-0.4,0.1-0.4,0.1-0.4,0.1l-1.1,0.5l-0.2,0.6L413,15.4z"/>
		<path class="st1" d="M420.7,10.8c0,0-0.9,0.5-0.4,0.6c0.5,0.1,1,0.4,1,0.4l0.2-0.6L420.7,10.8z"/>
		<path class="st1" d="M425.8,10.7c0,0,0.6,2.1,1.2,2.1c0.6,0,0.1,0.6,1.1,0.7c1,0.1,0.9-0.9,1,0.1c0.1,1-0.6-0.2-1.2-1.1
			C427.3,11.7,425.8,10.7,425.8,10.7z"/>
		<path class="st1" d="M439,16.6c0,0-1.4-0.1-0.5,0.5c0.9,0.6,1,0.7,1.4,0.9s0.1,1,0.4,0.1C440.5,17.2,439,16.6,439,16.6z"/>
		<path class="st1" d="M403.9,50.6c0,0-0.9,0-0.9,0.4C403,51.3,403.6,51.4,403.9,50.6z"/>
		<path class="st1" d="M374.3,52.9c0,0-0.2,1.9-0.6,1.9s0.2,1.4,0.2,1.4s0.1,1.9,0.6,2.2c0.5,0.4,0.5,2.2,1.1,2.4
			c0.6,0.1,0.5,6.4,0.5,6.4s0.9,0.6,0.7,1.2c-0.1,0.6-0.4,1.1,0.4,1.9c0.7,0.7,1.1,0.9,1.5,2c0.4,1.1,2.2,6.5,3,6.9s1,2.4,2.2,3.4
			c1.2,1,1.9,2.7,2.2,3c0.4,0.2,0.7,1.9,1.4,2c0.6,0.1-2.6-3.7-1.2-3.2c1.4,0.5-0.2-0.1-0.9-1.4c-0.6-1.2,0.5-1.4,0.5-1.4
			s-1.2-3.5-0.4-3.4c0.9,0.1,0.6-0.5,0.6-0.9s-1-4.4-0.1-5.1c0.9-0.7,0.1-1.5-0.4-1.5c-0.5,0-0.5-0.7-1.2-1.1
			c-0.7-0.4-1.1-0.7-1.5-0.9c-0.4-0.1-0.6-0.4-1.1-0.9c-0.5-0.5-1.1-1.6-0.9-2.4c0.2-0.7-1-1.4-1.5-2.4c-0.5-1-0.7-1.1-1-1.5
			c-0.2-0.4-0.7-0.6-0.7-0.6l-1.4-1.1c0,0-1.5,0.1-1.4-1.7s-0.5-2.2-0.4-2.7C374.8,54.8,374.3,52.9,374.3,52.9z"/>
		<path class="st1" d="M376.5,55.4c-0.4-0.1-0.9,0.2-0.2,0.6c0.6,0.4,0.2,0.7,0.6,0.4C377.2,56.1,377.2,55.6,376.5,55.4z"/>
		<path class="st1" d="M423.9,17.1l-0.6,0.9l-1.1,0.9c0,0,0,0.4-0.2,1c-0.2,0.6-0.4,1-0.7,1.6s-0.4,0.9-0.5,1.4
			c-0.1,0.5-0.1,1.2,0.4,1.5c0.5,0.2-0.9,1-1.1,0.1c-0.2-0.9-0.5-0.6,0-1.5c0.5-0.9,0.1-0.9,0.5-1.6s0.4-0.5,0.5-1.6
			c0.1-1.1-0.2-1.6,0.6-1.5c0.9,0.1,0.6-0.6,1.2-0.7C423.4,17.3,423.9,17.1,423.9,17.1z"/>
		<path class="st1" d="M418.3,77.3c0,0,0.6,1.1,0.1,1.6c-0.5,0.5-1,0.5-0.7,1.6c0.2,1.1,0.2,1.4-0.1,1.6s-1.4,0.5-1.4,0.5
			s-0.6-3.6,0-4C416.8,78.3,418.3,78.7,418.3,77.3z"/>
		<path class="st1" d="M432.6,66.9c0,0,0.4,0.5,0.7,0.7c0.4,0.2-0.1,1-0.5,1S432.6,66.9,432.6,66.9z"/>
		<path class="st1" d="M454.4,43.6l0.7,0.9l-0.2,1l-0.7,0.1C454.2,45.6,454.8,44.1,454.4,43.6z"/>
		<path class="st1" d="M454.3,46.7c0,0,1.2-1,1,0.2c-0.2,1.2-0.5,1.9-0.5,1.9s-0.7-0.1-0.7,0.5s0.4,1.7,0,1.9s-0.7,0.2-1.1,0.4
			c-0.4,0.1-0.6,0.7-0.6,0.7s-0.9-1.7,0-1.7c0.9,0,0.9-0.6,0.9-0.6s0.7-0.9,0.1-1.5s-0.5-1.6,0.2-1.4S454.3,46.7,454.3,46.7z"/>
		<path class="st1" d="M449.5,60.9c0,0-0.4,1.2,0.4,1.6c0.7,0.4,1.1-0.2,1.2,0.7c0.1,1-0.4,1.7-0.1,2.2c0.2,0.5,0.4,1-0.1,1.1
			c-0.5,0.1-1.2-0.1-1-1.5c0.2-1.4,0-1.6-0.4-1.9C449.1,63,449.5,60.9,449.5,60.9z"/>
		<path class="st1" d="M452.3,68.9c0,0,0.6,0,0.7,0.4c0.1,0.4,0.6,0.9,1,0.7c0.4-0.1-0.1,0.1,0.4-0.1c0.5-0.2,2-0.1,2-0.1l1.1,0.2
			c0,0,0.6,0.5,0.9,0.1c0.2-0.4-0.5,0.9-0.5,0.9s-0.4,0.2-0.2,0.6c0.1,0.4,0.1,0.4,0.1,0.4l-3.2,0.4l-0.4-0.9v-0.6c0,0-2.4,0-2-0.7
			C452.6,69.4,452.3,68.9,452.3,68.9z"/>
		<path class="st1" d="M455.2,73.7c0,0-0.2,1.4,0.2,1.6c0.5,0.2,0.4,2.4,0.1,2.7c-0.2,0.4,0,1.5-0.2,2.1c-0.2,0.6-0.9,2-1.4,2.1
			c-0.5,0.1-2.4,3.2-3.2,2.9c-0.9-0.4-0.6-1-0.6-1l-0.4-0.7c0,0-0.4-0.4-0.7-0.5c-0.4-0.1-1.7,0-1.7,0l-1,0.9l-1.1,0.6l-1,0.2
			l-0.1-0.9c0,0,0.2,0,0.4-0.5c0.1-0.5,0.2-2.6,0.2-2.6s-0.4-0.5,1.1-1.1c1.5-0.6,1.5-0.6,2.6-1.9c1.1-1.2,1.5-2.4,1.5-2.4
			s0.4,0,0.7,0s1.2-0.7,1.4-1.1s1.1-1.2,1.1-0.1c0,1.1-1.2,1.2-0.4,1.6c0.9,0.4,0.1,0.7,0.9,0.4s0.7-1.4,0.7-1.4L455.2,73.7z"/>
		<path class="st1" d="M419.1,25.8c0.4,0.1-0.9,1-0.5,1s0.9,0.1,0.9,0.1L419.1,25.8z"/>
		<path class="st1" d="M443.2,73.6c0,0,1.6,0.6,2.4,0.2s0.7-0.4,0.7-0.4L445,73c0,0,1.4-0.5,2.2-0.5c0.9,0,1.4,0.2,2.1-0.2
			c0.7-0.5-0.2-1.4-0.2-1.4s-0.4-1.1,0.1-1c0.5,0.1,1.2-0.5,1.2-0.9s-1.1,0-1.1,0l-0.7,1.1l-0.9,0.9c0,0-0.5-0.6-0.1-0.7
			s0.6-0.9,0.6-0.9l-0.2-0.7l-0.4-0.5c0,0,1.6-0.5,0.7-1c-0.9-0.5-0.9-0.5-0.9-0.5s-0.4-0.1-0.7,0.7c-0.4,0.9-1.1,1.7-1.1,1.7
			l-0.9,0.2c0,0-1,0.2-0.4,0.7c0.6,0.5,0.7-0.5,0.6,0.5c-0.1,1-0.1,1-0.1,1L444,72l0.2,0.6C444.2,72.6,443.7,73.9,443.2,73.6z"/>
		<path class="st1" d="M455.7,31l0.4-2.9c0,0-1.6-0.9-1.5-2c0,0-2.5-4.6-4.6-4.1c0,0,0.4,2-0.5,1l-0.6-0.5c0,0-0.5,0.7-1.4,0
			c0,0-1-0.9-1.9-0.6c0,0-2.4-2.2-3.1-1c0,0,1,1.7,0.1,1.5l-0.7-0.4v0.6c0,0-1,0.1-2.9-2.6l-1-0.2l0.1,1.2c0,0-2.5,0.5-3.2-0.7
			c0,0-1.5-3.1-1.2-4l-1.6,0.5l-0.9-1.4c0,0-1,0.2-0.6,0.7c0.4,0.5,0.4,1,0.4,1s-0.5,1-1,1c-0.5,0-1.5-0.1-1.1,0.5s0,0.6,0.2,1.1
			c0.2,0.5,0.6,1.7,0,1.5c-0.6-0.2-1.1-1.5-1.1-0.2s0.9,2,0.9,2s-0.1,1.2-0.5,0.6s-1-1.5-1-0.9s0,1.2,0,1.2l-0.5,0.2
			c0,0,0.5,1.1,0.5,1.6c0,0.5,0.4,2.5,0,2.6c-0.4,0.1-0.6,1-0.6,1s-0.7,0.2-0.6-0.2c0.1-0.5,0.5-1,0.5-2c0-1-0.7-2.7-0.7-3.6
			c0-0.9-0.5-1.5-0.5-1.5s-0.7,0.6-0.7,1.5c0,0.9-1.4,0.1-0.5,1.4c0.9,1.2,1.4,1.5,1.2,1.9c-0.1,0.4,0,0.7-0.7,0.2
			c-0.7-0.5-0.9-0.2-1.4-1.2c-0.5-1-1.5-1.7-1.2-0.9c0.2,0.9,0.6,2,0.6,2s-0.1,0.9-1,0.6c-0.9-0.2-1.4-0.2-1.4-0.2s-0.7-0.5-1,0.1
			c-0.2,0.6-0.5,1-0.9,1.2s-0.4,0.2-0.4,0.2s-0.4-0.5-0.1-0.9c0.2-0.4,0.4-0.5,0-0.9c-0.4-0.4-1.2-0.1-0.9,1.4
			c0.4,1.5-0.1,0.9-0.5,0.9s-0.6,0.9-0.6,0.9v0.9l-0.7-0.6l-0.5,1c0,0-1.6-1.5-0.5-2.1s1.7-0.1,1.7-0.1s0.6-1.5,0.1-1.7
			c-0.5-0.2-1.9-1.6-1.9-1.6l-0.9-0.4v-1l-1,0.1c0,0-1,1.4-1.5,1c-0.5-0.4-0.5-0.6-1-0.6c-0.5,0-1.7,0.9-1.5,1.7
			c0.2,0.9-0.4,1.6-0.4,1.6s-1.4,1.1-1.7,1.4c-0.4,0.2-2.2,2.9-2.5,3.4c-0.2,0.5-1.6,2.1-1.6,2.1l2.6,0.6c0,0,0.7,0.9,0,1.1
			c-0.7,0.2-1.1,0.6-1.1,1.2s-0.7,1.2-0.7,1.2s-0.2,0.5-0.9,0.6c-0.6,0.1-1.2,1.1-1.2,1.1s-1.2-2-0.9-2.6s0.6-1.9,1.1-2
			c0.5-0.1-1.2-0.6-1.2-0.6l-1.1-0.1h-0.7v1.2c0,0-1.4,0.9-1.6,1.2c-0.2,0.4,0.6,1,0.6,1l-0.6,1.1l1.1-0.2c0,0,0.5-1.6,1-1.4
			c0.5,0.2,0.7,1,0.4,1s-1.1,1-1.1,1l0.2,0.7l0.9,0.2c0,0,0.7-0.5,0.9,0c0.1,0.5-0.5,1.1-0.9,1.1s-1.5-0.5-1.5-0.5l0.1,1.5
			c0,0-0.2,0.7,0.4,1c0.6,0.2,0.6,1,0.6,1l-1.1,0.7c0,0-1.7-0.5-2.1-0.4s-1,2-0.4,3c0.6,1-0.4,0.2,0.6,1s0.7,0.9,1.7,0.6
			c1-0.2,1.1-1,1.1-1l-0.1-1c0,0,0-0.6,0.6-1c0.6-0.4,1-1.2,1-1.2l1.7,0.1v2.2c0,0,0.5,0.5,1.2,0.5s1.5,0,1.5,0l-0.2,0.9l0.6,0.1
			c0,0,0.4-0.5,0.2-1c-0.1-0.5-0.1-1.1-0.5-1.1s-0.7,0.6-0.4,0s0.5-1.5,0.5-1.5s1,0.4,1.1,0.9c0.1,0.5-0.6,1.4,0,1.7
			c0.6,0.4,0.6-0.6,0.6,0.4c0,1,0,1.2,0.4,1.5c0.4,0.2,0,1,0.4,0.2s0.6-1.4,0.6-1.4s-1.1,0-0.6-0.5c0.5-0.5,0,0.1,1-0.5
			c1-0.6,0.5,0.4,0.6,1c0.1,0.6-0.6,1.2,0.1,1.5c0.7,0.2,0.6,0.5,1.6,0.6s1.1,0,1.6,0.1c0.5,0.1,0.6,0.1,0.5,0.6s-1.1,1.2-1,1.7
			c0.1,0.5-0.5,0.6-0.9,0.5c-0.4-0.1-2.5-0.4-2.5-0.4s-1.1-0.2-1.7,0s0.4,0-0.6,0.2c-1,0.2-1.5,0.7-2-0.1c-0.5-0.9-1-0.9-1.5-1.4
			c-0.5-0.5-0.7-1-0.5-1.4s0.1-1.2,0.1-1.2l-2.6-0.1l-3.1,0.5c0,0-0.2,0.6-0.9,1.1c-0.6,0.5-1.9,2.7-2.6,2.7c0,0-1.4,4.1-1.2,4.5
			c0.1,0.4-1.5,3.5,1.1,5.2c2.6,1.7,0.9,2.5,3.9,2.2c3-0.2,4.2-0.1,4.9,1.2c0.6,1.4,2,4.9,2.2,5.9c0.2,1,0.2,3.1-0.2,2.4
			s1.9,4.7,2.6,5.9c0.7,1.1,0.5,2.4,2.5,2.7c2,0.4,1.7,0.7,2.5-0.7c0.7-1.5,0.9-2.1,0.9-2.5c0-0.4,1-0.1,1-0.1v-1.5
			c0,0,0.6-1.2,1.4-1.9s0.6-2.2,0.6-2.2l-0.6-1.4c0,0,1.5,0.7,1.9-0.1s0.4-0.9,0.4-0.9l-2.1-0.5c0,0,0-1.4,0.6-1.9
			c0.6-0.5,0.7-1.1,0.7-1.1l1.2-0.7c0,0,2.1-2.1,2-3.7c0,0-2.4,0.5-3,0.5c-0.6,0-0.9-1.7-0.9-1.7s-2-5.4-2.9-5.5
			c-0.9-0.1-0.7-2-0.1-2c0,0,1.9,2.2,2.4,3.9c0.5,1.6,1.6,4,1.6,4s6.6-2.2,6.6-4.5c0-2.2-1.4-1.6-1.4-1.6s-2,0.1-2.9-0.9
			c0,0-1.1-2.1-0.4-2.1s2,1,2.4,1.5c0.4,0.5,2.2,0.5,2.2,0.5s3.2,0.2,3.9,0.2c0.6,0,1.1,1.6,1.1,1.6s1.2,1,2,1s0,2,0,2s0.6,4,1.9,4
			c1.2,0,1.5-2.1,1.4-3.9c-0.1-1.7,0.6-0.6,1.2-0.9c0.6-0.2,1.9-1.7,2-2.2c0.1-0.5,1.9-0.9,1.9-0.9s-0.4,0.7,0.5,1.7
			c0.9,1,0.2,2.4,0.2,2.4s0.7,1.1,1.7,0.9c1-0.2-0.5,1.4,0.1,2.1c0.6,0.7,1.6,4.1,0.5,3.1l-1.5-1c0,0,2.4,4.1,3.1,4.1
			c0,0,1.7-0.7,0.1-1.2c0,0,0.5-2.4-0.2-3.5c0,0-1.4-0.2-1.1-3.6c0,0,1.4,0.5,1.7,1.9c0,0,2.4-0.6,1.5-3.4c0,0-1.4-1.6,0.2-1.7
			c0,0,1-0.2,0.9-1.6c0,0,2.2-1.5,2.6-2.2c0.4-0.7,1-3.9-0.1-5.2s-0.1-1.4-0.1-1.4s-1.5-2.2-0.6-2.1c0.9,0.1,1.2-1,1.5,0
			c0.2,1,1.1,1.2,1.7,0.2c0,0,0.6-2.1,0.6-2.7s0.5-0.2,1-0.2c0.5,0,0.1-1.6,0.1-1.6l0.4-4.4c0,0,1.1,2,1.1,0.7s-0.9-2.5-1.6-2.6
			c-0.7-0.1-1.9-0.2-1.9-0.2l0.1-4.7c0,0,1.4,0.9,1.9-0.2c0.5-1.1,0.4,0.6,1,0.6s-0.6-3.2-0.1-3.1c0.5,0.1,1.1,0,1.1,0
			s0.5,1.5,0.6,1.9c0.1,0.4,0.9,4.5,1.7,6C456.7,38,455.2,31.4,455.7,31z M407.7,37.9l-0.1,1c0,0-0.4-0.1-0.7,0s-1.4-0.4-1.4-0.4
			s0.4-1.2,1-1.9c0.6-0.6,0.2-2,0.2-2c0.7,0.1,0.6-1.6,1.5-1.4c0.9,0.2,0.6,1.4,0.6,1.4l1.9,0.4c0,0,1,0.2,0.4,0.6
			c-0.6,0.4-2,0.4-2,0.4s0.1,0.7,0.2,1.1c0.1,0.4-0.1,0.6-0.6,0.7C408.2,38,407.7,37.9,407.7,37.9z M414.5,49.6
			c-0.5,0.1-2.4-0.1-2.4-0.1l-1.2-0.5c0,0-0.1,0.5-0.5,0.5c-0.4,0-1.2-0.2-1.2-0.2l0.5-1.6l0.6-1.4c0,0,0.2-0.5,0.9-0.5
			c0.6,0,0.9,0.7,0.7,1.1c-0.1,0.4,1.4,0.5,1.4,0.1c0-0.4,0.5-0.1,0.9,0.5c0.4,0.6,1.2,1.2,1.2,1.2S415,49.4,414.5,49.6z
			 M419.9,52.4c-0.6,0-0.9-0.1-1.2-0.2c-0.4-0.1-0.5-0.6-0.6-1.4c-0.1-0.7,0,0,0.4-0.7s-0.1-0.5-0.6-1.1c-0.5-0.6-0.1-0.5-0.5-0.7
			c-0.4-0.2-0.5-0.9-0.5-0.9s1-0.9,1.1-1.4c0.1-0.5,0.9,0.1,1.2,0c0.4-0.1,0.6-0.4,0.6-0.4l0.5,0.7c0,0,0,0-0.4,0.7s0,0-0.5-0.1
			c-0.5-0.1-0.1,0.5-0.1,0.5s0.1,0.9,0.7,1.6s0,0,0.1,0.6c0.1,0.6,0.2,0.6,0.1,1.2c-0.1,0.6,0.5,0.6,0.5,0.6S420.6,52.4,419.9,52.4z
			"/>
	</g>
	<g>
		<path class="st1" d="M32.1,63.3c-3.3,0.9-6.1,1.4-8.6,1.4c-4.3,0-7.6-1.2-9.9-3.7c-2.3-2.5-3.5-6-3.5-10.5c0-4.5,1.2-8,3.5-10.5
			c2.3-2.5,5.6-3.7,9.8-3.7c2.8,0,5.6,0.4,8.6,1.2V41c-3.7-1.3-6.6-1.9-8.6-1.9c-2.9,0-5.2,1-6.8,3c-1.6,2-2.4,4.8-2.4,8.4
			c0,3.6,0.9,6.4,2.6,8.3c1.7,2,4.2,3,7.3,3c1.3,0,2.7-0.2,4.2-0.7v-8.8h3.8V63.3z"/>
		<path class="st1" d="M47.1,49.5c3.3-0.5,5-2.4,5-5.5c0-2.8-2-4.2-6.1-4.2h-2.4v9.9v2.9V64h-3.8V36.9H48c2.6,0,4.6,0.6,6,1.7
			c1.4,1.1,2.1,2.8,2.1,5c0,3.6-1.8,6.2-5.5,7.7l9,12.7h-4.7l-7.7-11.5C46,50.9,47.1,49.5,47.1,49.5z"/>
		<path class="st1" d="M64.3,36.9h3.8V54c0,2.7,0.5,4.7,1.5,5.9c1,1.2,2.6,1.9,4.8,1.9c2.1,0,3.7-0.6,4.6-1.7
			c0.9-1.2,1.3-3.1,1.3-5.9V36.9h3.4v17.2c0,3.7-0.8,6.4-2.3,8.1c-1.5,1.7-3.9,2.5-7.3,2.5c-3.4,0-5.9-0.9-7.5-2.6
			c-1.6-1.7-2.4-4.4-2.4-8.1V36.9z"/>
		<path class="st1" d="M99.2,50.2c1.2-0.5,2.2-0.7,3.1-1.4c1.2-1,1.9-2.5,1.9-4.4c0-1.6-0.5-2.8-1.5-3.5c-1-0.7-2.6-1-4.9-1h-2.4
			v10.5v2.9V64h-3.8V36.9h7.4c3.3,0,5.6,0.6,7,1.7c1.4,1.1,2.1,2.9,2.1,5.4c0,2.9-1,5.1-2.9,6.8c-1.5,1.2-3.4,2-5.7,2.3
			C99.5,53.1,97.9,50.7,99.2,50.2z"/>
		<path class="st1" d="M124.2,64.7c-3.8,0-6.8-1.3-9.1-3.9c-2.3-2.6-3.4-6.1-3.4-10.3c0-4.3,1.2-7.8,3.5-10.3
			c2.3-2.6,5.4-3.9,9.2-3.9c3.8,0,6.9,1.3,9.2,3.9c2.3,2.6,3.5,6,3.5,10.3c0,4.4-1.2,7.9-3.5,10.4C131.3,63.4,128.2,64.7,124.2,64.7
			z M124.3,61.8c2.8,0,4.9-1,6.4-3c1.5-2,2.3-4.8,2.3-8.5c0-3.5-0.8-6.3-2.3-8.3c-1.5-2-3.6-3-6.3-3c-2.7,0-4.8,1-6.3,3
			c-1.5,2-2.3,4.8-2.3,8.3c0,3.5,0.8,6.3,2.3,8.3C119.5,60.8,121.6,61.8,124.3,61.8z"/>
	</g>
	<g>
		<path class="st2" d="M284.7,49.5c3.3-0.5,5-2.4,5-5.5c0-2.8-2-4.2-6.1-4.2h-2.4v9.9v2.9V64h-3.8V36.9h8.2c2.6,0,4.6,0.6,6,1.7
			c1.4,1.1,2.1,2.8,2.1,5c0,3.6-1.8,6.2-5.5,7.7l9,12.7h-4.7l-7.7-11.5C283.6,50.9,284.7,49.5,284.7,49.5z"/>
		<path class="st2" d="M354.7,50.2c1.2-0.5,2.2-0.7,3.1-1.4c1.2-1,1.9-2.5,1.9-4.4c0-1.6-0.5-2.8-1.5-3.5c-1-0.7-2.6-1-4.9-1h-2.4
			v10.5v2.9V64h-3.8V36.9h7.4c3.3,0,5.6,0.6,7,1.7c1.4,1.1,2.1,2.9,2.1,5.4c0,2.9-1,5.1-2.9,6.8c-1.5,1.2-3.4,2-5.7,2.3
			C355.1,53.1,353.4,50.7,354.7,50.2z"/>
		<path class="st2" d="M148.8,64.7c-1.8,0-4.1-0.4-7-1.2v-3.8c3.1,1.4,5.6,2.1,7.5,2.1c1.5,0,2.7-0.4,3.7-1.2
			c0.9-0.8,1.4-1.8,1.4-3.1c0-1.1-0.3-2-0.9-2.7c-0.6-0.7-1.7-1.6-3.3-2.5l-1.9-1.1c-2.3-1.3-3.9-2.6-4.9-3.7
			c-0.9-1.2-1.4-2.5-1.4-4.1c0-2.1,0.8-3.8,2.3-5.2c1.5-1.3,3.4-2,5.8-2c2.1,0,4.3,0.3,6.6,1v3.5c-2.9-1.1-5-1.7-6.4-1.7
			c-1.3,0-2.4,0.4-3.3,1.1c-0.9,0.7-1.3,1.6-1.3,2.7c0,0.9,0.3,1.7,1,2.4c0.6,0.7,1.8,1.5,3.5,2.5l1.9,1.1c2.3,1.3,4,2.6,4.9,3.8
			c0.9,1.2,1.4,2.6,1.4,4.3c0,2.4-0.9,4.2-2.6,5.7C153.9,64,151.6,64.7,148.8,64.7z"/>
		<path class="st2" d="M171.7,53.7h6.7L173.8,42l-4.6,11.7l-1.1,2.9l-3,7.5h-3.6l10.7-27.1h3.8L186.6,64h-4.2l-2.9-7.5h-7.7
			C170.8,55.7,171.7,53.7,171.7,53.7z"/>
		<path class="st2" d="M191.5,64V36.9h3.8L209,57.9V36.9h3.3V64h-3.8l-13.7-20.9V64H191.5z"/>
		<path class="st2" d="M231.9,64.7c-4.2,0-7.5-1.2-9.8-3.7c-2.3-2.5-3.4-6-3.4-10.5c0-4.5,1.2-8,3.5-10.5c2.3-2.5,5.6-3.7,9.9-3.7
			c2.4,0,5.3,0.4,8.5,1.2v3.6c-3.7-1.3-6.6-1.9-8.6-1.9c-2.9,0-5.2,1-6.8,3c-1.6,2-2.4,4.8-2.4,8.4c0,3.5,0.9,6.2,2.6,8.2
			c1.7,2,4.1,3,7.1,3c2.6,0,5.3-0.8,8.2-2.4v3.3C237.9,64,235,64.7,231.9,64.7z"/>
		<path class="st2" d="M258.1,64.7c-3.8,0-6.8-1.3-9.1-3.9c-2.3-2.6-3.4-6.1-3.4-10.3c0-4.3,1.2-7.8,3.5-10.3
			c2.3-2.6,5.4-3.9,9.2-3.9c3.8,0,6.9,1.3,9.2,3.9c2.3,2.6,3.5,6,3.5,10.3c0,4.4-1.2,7.9-3.5,10.4C265.2,63.4,262.1,64.7,258.1,64.7
			z M258.2,61.8c2.8,0,4.9-1,6.4-3c1.5-2,2.3-4.8,2.3-8.5c0-3.5-0.8-6.3-2.3-8.3c-1.5-2-3.6-3-6.3-3c-2.7,0-4.8,1-6.3,3
			c-1.5,2-2.3,4.8-2.3,8.3c0,3.5,0.8,6.3,2.3,8.3C253.5,60.8,255.5,61.8,258.2,61.8z"/>
		<path class="st2" d="M300.3,64V61l14.6-21.1h-13.7v-2.9h18.3v2.9L304.9,61h14.6V64H300.3z"/>
		<path class="st2" d="M325.8,64V36.9h15.1v2.9h-11.3v8.7h9.5v2.8h-9.5v9.8h12.1V64H325.8z"/>
	</g>
	<g>
		<path class="st3" d="M74.5,85V74h3.7c1.1,0,2,0.1,2.7,0.4c0.7,0.2,1.3,0.7,1.7,1.2c0.8,0.9,1.2,2.1,1.2,3.7c0,1.8-0.5,3.3-1.5,4.3
			c-1,1-2.3,1.5-4.1,1.5H74.5z M76.1,83.8h2c1.4,0,2.4-0.4,3-1.2c0.6-0.8,1-1.9,1-3.3c0-1.3-0.3-2.3-0.9-3.1
			c-0.4-0.5-0.8-0.8-1.4-0.9c-0.5-0.2-1.3-0.3-2.4-0.3h-1.3V83.8z"/>
		<path class="st3" d="M86.2,85V74h1.6v11H86.2z"/>
		<path class="st3" d="M93.9,85l-4.2-11h1.6l3.4,9l3.3-9h1.4l-4,11H93.9z"/>
		<path class="st3" d="M101.2,85V74h1.6v11H101.2z"/>
		<path class="st3" d="M108,85.3c-0.7,0-1.7-0.2-2.8-0.5v-1.6c1.2,0.6,2.3,0.9,3.1,0.9c0.6,0,1.1-0.2,1.5-0.5
			c0.4-0.3,0.6-0.7,0.6-1.3c0-0.4-0.1-0.8-0.4-1.1c-0.2-0.3-0.7-0.6-1.4-1l-0.8-0.4c-0.9-0.5-1.6-1-2-1.5c-0.4-0.5-0.6-1-0.6-1.7
			c0-0.9,0.3-1.5,0.9-2.1c0.6-0.5,1.4-0.8,2.4-0.8c0.9,0,1.7,0.1,2.7,0.4v1.4c-1.2-0.5-2-0.7-2.6-0.7c-0.5,0-1,0.1-1.3,0.4
			c-0.4,0.3-0.5,0.7-0.5,1.1c0,0.4,0.1,0.7,0.4,1c0.3,0.3,0.7,0.6,1.4,1l0.8,0.4c1,0.5,1.6,1.1,2,1.5c0.4,0.5,0.6,1.1,0.6,1.7
			c0,1-0.4,1.7-1.1,2.3C110.1,85,109.2,85.3,108,85.3z"/>
		<path class="st3" d="M114.3,85V74h1.6v11H114.3z"/>
		<path class="st3" d="M123.5,85.3c-1.5,0-2.8-0.5-3.7-1.6c-0.9-1.1-1.4-2.5-1.4-4.2c0-1.8,0.5-3.2,1.4-4.2c0.9-1.1,2.2-1.6,3.8-1.6
			c1.6,0,2.8,0.5,3.8,1.6c0.9,1,1.4,2.4,1.4,4.2c0,1.8-0.5,3.2-1.4,4.2C126.3,84.8,125.1,85.3,123.5,85.3z M123.5,84.1
			c1.1,0,2-0.4,2.6-1.2c0.6-0.8,0.9-2,0.9-3.4c0-1.4-0.3-2.6-0.9-3.4c-0.6-0.8-1.5-1.2-2.6-1.2c-1.1,0-2,0.4-2.6,1.2
			c-0.6,0.8-0.9,1.9-0.9,3.4c0,1.4,0.3,2.6,0.9,3.4C121.6,83.7,122.4,84.1,123.5,84.1z"/>
		<path class="st3" d="M131.2,85V74h1.5l5.6,8.5V74h1.3v11h-1.5l-5.6-8.5V85H131.2z"/>
		<path class="st3" d="M152.6,85.3c-1.7,0-3-0.5-4-1.5c-0.9-1-1.4-2.4-1.4-4.3c0-1.8,0.5-3.3,1.4-4.3c1-1,2.3-1.5,4-1.5
			c1,0,2.1,0.2,3.5,0.5v1.5c-1.5-0.5-2.7-0.8-3.5-0.8c-1.2,0-2.1,0.4-2.8,1.2c-0.7,0.8-1,2-1,3.4c0,1.4,0.4,2.5,1.1,3.3
			c0.7,0.8,1.7,1.2,2.9,1.2c1,0,2.2-0.3,3.4-1v1.3C155,85,153.8,85.3,152.6,85.3z"/>
		<path class="st3" d="M163.1,85.3c-1.5,0-2.8-0.5-3.7-1.6c-0.9-1.1-1.4-2.5-1.4-4.2c0-1.8,0.5-3.2,1.4-4.2c0.9-1.1,2.2-1.6,3.8-1.6
			c1.6,0,2.8,0.5,3.8,1.6c0.9,1,1.4,2.4,1.4,4.2c0,1.8-0.5,3.2-1.4,4.2C166,84.8,164.7,85.3,163.1,85.3z M163.1,84.1
			c1.1,0,2-0.4,2.6-1.2c0.6-0.8,0.9-2,0.9-3.4c0-1.4-0.3-2.6-0.9-3.4c-0.6-0.8-1.5-1.2-2.6-1.2c-1.1,0-2,0.4-2.6,1.2
			c-0.6,0.8-0.9,1.9-0.9,3.4c0,1.4,0.3,2.6,0.9,3.4C161.2,83.7,162.1,84.1,163.1,84.1z"/>
		<path class="st3" d="M170.8,85V74h2.2l3.1,8.5l3.1-8.5h1.9v11h-1.5v-9l-3,8.2h-1.5l-3-8.3v9H170.8z"/>
		<path class="st3" d="M184.2,85V74h6.2v1.2h-4.6v3.5h3.9v1.2h-3.9v4h4.9V85H184.2z"/>
		<path class="st3" d="M207.5,85.3c-1.7,0-3-0.5-4-1.5c-0.9-1-1.4-2.4-1.4-4.3c0-1.8,0.5-3.3,1.4-4.3c1-1,2.3-1.5,4-1.5
			c1,0,2.1,0.2,3.5,0.5v1.5c-1.5-0.5-2.7-0.8-3.5-0.8c-1.2,0-2.1,0.4-2.8,1.2c-0.7,0.8-1,2-1,3.4c0,1.4,0.4,2.5,1.1,3.3
			c0.7,0.8,1.7,1.2,2.9,1.2c1,0,2.2-0.3,3.4-1v1.3C209.9,85,208.7,85.3,207.5,85.3z"/>
		<path class="st3" d="M213.6,85V74h1.6v11H213.6z"/>
		<path class="st3" d="M222.7,85.3c-1.5,0-2.8-0.5-3.7-1.6c-0.9-1.1-1.4-2.5-1.4-4.2c0-1.8,0.5-3.2,1.4-4.2c0.9-1.1,2.2-1.6,3.8-1.6
			c1.6,0,2.8,0.5,3.8,1.6c0.9,1,1.4,2.4,1.4,4.2c0,1.8-0.5,3.2-1.4,4.2C225.6,84.8,224.3,85.3,222.7,85.3z M222.7,84.1
			c1.1,0,2-0.4,2.6-1.2c0.6-0.8,0.9-2,0.9-3.4c0-1.4-0.3-2.6-0.9-3.4c-0.6-0.8-1.5-1.2-2.6-1.2c-1.1,0-2,0.4-2.6,1.2
			c-0.6,0.8-0.9,1.9-0.9,3.4c0,1.4,0.3,2.6,0.9,3.4C220.8,83.7,221.6,84.1,222.7,84.1z"/>
		<path class="st3" d="M235.5,85V74h6.2v1.2h-4.6v3.5h3.9v1.2h-3.9v4h4.9V85H235.5z"/>
		<path class="st3" d="M246.1,79l-3.2-5h1.8l2.7,4.2l2.8-4.2h1.5l-3.3,5L246.1,79z M248.3,79.6l3.5,5.5h-1.8l-2.8-4.4l-2.9,4.4h-1.5
			l3.6-5.4L248.3,79.6z"/>
		<path class="st3" d="M256.5,85v-9.9h-3.9V74h9.4v1.2h-3.9V85H256.5z"/>
		<path class="st3" d="M263.8,85V74h6.2v1.2h-4.6v3.5h3.9v1.2h-3.9v4h4.9V85H263.8z"/>
		<path class="st3" d="M282.3,85V74h1.6v11H282.3z"/>
		<path class="st3" d="M291.4,85.3c-1.5,0-2.8-0.5-3.7-1.6c-0.9-1.1-1.4-2.5-1.4-4.2c0-1.8,0.5-3.2,1.4-4.2c0.9-1.1,2.2-1.6,3.8-1.6
			c1.6,0,2.8,0.5,3.8,1.6c0.9,1,1.4,2.4,1.4,4.2c0,1.8-0.5,3.2-1.4,4.2C294.3,84.8,293,85.3,291.4,85.3z M291.4,84.1
			c1.1,0,2-0.4,2.6-1.2c0.6-0.8,0.9-2,0.9-3.4c0-1.4-0.3-2.6-0.9-3.4c-0.6-0.8-1.5-1.2-2.6-1.2c-1.1,0-2,0.4-2.6,1.2
			c-0.6,0.8-0.9,1.9-0.9,3.4c0,1.4,0.3,2.6,0.9,3.4C289.5,83.7,290.4,84.1,291.4,84.1z"/>
		<path class="st3" d="M195.8,79.1c1.4-0.2,2-1,2-2.3c0-1.1-0.8-1.7-2.5-1.7h-1v4v1.2V85h-1.6V74h3.3c1.1,0,1.9,0.2,2.4,0.7
			c0.6,0.5,0.8,1.1,0.8,2c0,1.5-0.7,2.5-2.2,3.1l3.7,5.2h-1.9l-3.1-4.7C195.3,79.7,195.8,79.1,195.8,79.1z"/>
		<path class="st3" d="M275.3,79.1c1.4-0.2,2-1,2-2.3c0-1.1-0.8-1.7-2.5-1.7h-1v4v1.2V85h-1.6V74h3.3c1.1,0,1.9,0.2,2.4,0.7
			c0.6,0.5,0.8,1.1,0.8,2c0,1.5-0.7,2.5-2.2,3.1l3.7,5.2h-1.9l-3.1-4.7C274.9,79.7,275.3,79.1,275.3,79.1z"/>
		<path class="st3" d="M302.1,79.1c1.4-0.2,2-1,2-2.3c0-1.1-0.8-1.7-2.5-1.7h-1v4v1.2V85h-1.6V74h3.3c1.1,0,1.9,0.2,2.4,0.7
			c0.6,0.5,0.8,1.1,0.8,2c0,1.5-0.7,2.5-2.2,3.1l3.7,5.2h-1.9l-3.1-4.7C301.6,79.7,302.1,79.1,302.1,79.1z"/>
	</g>
</g>
</svg>
