<?xml version="1.0" encoding="utf-8"?>
<!-- Generator: Adobe Illustrator 16.0.0, SVG Export Plug-In . SVG Version: 6.00 Build 0)  -->
<!DOCTYPE svg PUBLIC "-//W3C//DTD SVG 1.1//EN" "http://www.w3.org/Graphics/SVG/1.1/DTD/svg11.dtd">
<svg version="1.1" id="Capa_1" xmlns="http://www.w3.org/2000/svg" xmlns:xlink="http://www.w3.org/1999/xlink" x="0px" y="0px"
	 width="960px" height="258px" viewBox="0 0 960 258" enable-background="new 0 0 960 258" xml:space="preserve">
<g id="Capa_1_1_">
	<g>
		<path fill="#4A1E69" stroke="#FFFFFF" stroke-miterlimit="10" d="M97.08,80.652H63.71v88.783H50.378V80.652H17.233V68.658H97.08
			V80.652z"/>
		<path fill="#4A1E69" stroke="#FFFFFF" stroke-miterlimit="10" d="M122.627,105.75c3.228-3.723,6.665-6.49,10.315-8.303
			c3.651-1.813,7.46-2.719,11.433-2.719c16.536,0,24.803,8.988,24.803,26.962v47.745H156.07v-47.071
			c0-6.009-1.055-10.317-3.166-12.925c-2.111-2.606-5.548-3.911-10.315-3.911c-6.604,0-13.259,3.873-19.961,11.619v52.287h-12.887
			V68.657h12.886V105.75z"/>
		<path fill="#4A1E69" stroke="#FFFFFF" stroke-miterlimit="10" d="M200.982,169.434h-12.885V96.516h12.885V169.434z"/>
		<path fill="#4A1E69" stroke="#FFFFFF" stroke-miterlimit="10" d="M233.009,105.75c3.228-3.723,6.666-6.49,10.317-8.303
			c3.648-1.813,7.459-2.719,11.433-2.719c16.536,0,24.804,8.988,24.804,26.962v47.745h-13.109v-47.071
			c0-6.009-1.057-10.317-3.165-12.925c-2.111-2.606-5.548-3.911-10.316-3.911c-6.605,0-13.257,3.873-19.962,11.619v52.287h-12.884
			V96.516h12.884v9.234H233.009z"/>
		<path fill="#4A1E69" stroke="#FFFFFF" stroke-miterlimit="10" d="M358.813,169.434h-15.417l-23.909-37.092l-8.119,8.192v28.899
			h-12.885V68.657h12.885v57.129l28.304-29.271h16.311l-27.706,27.186L358.813,169.434z"/>
		<path fill="#4A1E69" stroke="#FFFFFF" stroke-width="6" stroke-miterlimit="10" d="M430.469,169.434h-9.917l-38.267-57.505v57.505
			h-9.163V96.516h9.972l38.103,57.611V96.516h9.271v72.918H430.469z"/>
		<path fill="#4A1E69" stroke="#FFFFFF" stroke-miterlimit="10" d="M530.46,117.594c0,33.965-17.132,50.946-51.394,50.946h-31.954
			V67.765h31.954C513.328,67.765,530.46,84.375,530.46,117.594z M516.678,117.594c0-5.857-0.583-11.134-1.748-15.828
			c-1.169-4.692-3.179-8.665-6.034-11.917c-2.855-3.251-6.715-5.747-11.584-7.485c-4.866-1.738-10.997-2.609-18.396-2.609h-18.471
			v76.794h18.471c7.349,0,13.456-0.882,18.321-2.645c4.868-1.763,8.739-4.319,11.621-7.673c2.879-3.352,4.902-7.436,6.071-12.251
			C516.096,129.165,516.678,123.703,516.678,117.594z"/>
		<path fill="#4A1E69" stroke="#FFFFFF" stroke-miterlimit="10" d="M578.052,170.327c-5.312,0-10.154-0.855-14.523-2.57
			c-4.37-1.713-8.119-4.206-11.246-7.486c-3.128-3.276-5.549-7.287-7.263-12.026c-1.714-4.743-2.569-10.143-2.569-16.201
			c0-5.959,0.831-11.295,2.496-16.014c1.66-4.717,4.007-8.714,7.036-11.991c3.029-3.279,6.641-5.797,10.836-7.559
			s8.827-2.645,13.892-2.645c5.264,0,10.008,0.869,14.229,2.607c4.218,1.74,7.817,4.245,10.8,7.523
			c2.979,3.276,5.265,7.274,6.851,11.992c1.589,4.719,2.384,10.082,2.384,16.088v3.128h-54.97c0.299,4.221,1.057,7.896,2.274,11.023
			c1.217,3.128,2.793,5.71,4.729,7.747c1.936,2.038,4.181,3.562,6.739,4.581c2.558,1.017,5.324,1.525,8.305,1.525
			c2.136,0,4.271-0.284,6.408-0.855c2.136-0.571,4.058-1.414,5.771-2.534c1.711-1.116,3.103-2.507,4.171-4.17
			c1.068-1.664,1.627-3.564,1.675-5.698h13.63c-0.547,3.773-1.727,7.125-3.536,10.057c-1.812,2.931-4.111,5.389-6.891,7.373
			c-2.783,1.985-5.983,3.5-9.608,4.543S582.175,170.327,578.052,170.327z M597.269,124.968c-0.546-3.473-1.414-6.517-2.604-9.125
			c-1.191-2.607-2.681-4.777-4.469-6.518c-1.792-1.738-3.825-3.054-6.109-3.947c-2.285-0.893-4.741-1.34-7.375-1.34
			c-2.629,0-5.075,0.421-7.335,1.266c-2.258,0.844-4.282,2.134-6.07,3.872c-1.787,1.74-3.302,3.924-4.545,6.555
			c-1.241,2.633-2.11,5.71-2.607,9.236H597.269z"/>
		<path fill="#4A1E69" stroke="#FFFFFF" stroke-miterlimit="10" d="M684.416,95.621l-27.484,72.918h-11.621l-27.485-72.918h14.005
			l19.288,56.98l19.367-56.98H684.416L684.416,95.621z"/>
		<path fill="#4A1E69" stroke="#FFFFFF" stroke-miterlimit="10" d="M726.871,170.327c-5.314,0-10.156-0.855-14.527-2.57
			c-4.366-1.713-8.116-4.206-11.246-7.486c-3.128-3.276-5.548-7.287-7.262-12.026c-1.712-4.743-2.569-10.143-2.569-16.201
			c0-5.959,0.832-11.295,2.496-16.014c1.663-4.717,4.01-8.714,7.036-11.991c3.027-3.279,6.644-5.797,10.839-7.559
			c4.196-1.762,8.823-2.645,13.893-2.645c5.263,0,10.004,0.869,14.226,2.607c4.221,1.74,7.82,4.245,10.8,7.523
			c2.978,3.276,5.265,7.274,6.851,11.992c1.592,4.719,2.383,10.082,2.383,16.088v3.128h-54.965c0.298,4.221,1.053,7.896,2.27,11.023
			s2.793,5.71,4.729,7.747c1.937,2.038,4.185,3.562,6.742,4.581c2.555,1.017,5.324,1.525,8.305,1.525
			c2.132,0,4.269-0.284,6.404-0.855c2.137-0.571,4.059-1.414,5.772-2.534c1.714-1.116,3.102-2.507,4.169-4.17
			c1.069-1.664,1.629-3.564,1.681-5.698h13.629c-0.549,3.773-1.726,7.125-3.539,10.057c-1.813,2.931-4.108,5.389-6.892,7.373
			c-2.779,1.985-5.982,3.5-9.608,4.543S730.99,170.327,726.871,170.327z M746.088,124.968c-0.547-3.473-1.416-6.517-2.607-9.125
			c-1.193-2.607-2.683-4.777-4.47-6.518c-1.787-1.738-3.825-3.054-6.109-3.947c-2.282-0.893-4.741-1.34-7.371-1.34
			c-2.634,0-5.079,0.421-7.339,1.266c-2.259,0.844-4.283,2.134-6.069,3.872c-1.787,1.74-3.302,3.924-4.546,6.555
			c-1.238,2.633-2.109,5.71-2.604,9.236H746.088z"/>
		<path fill="#4A1E69" stroke="#FFFFFF" stroke-miterlimit="10" d="M787.203,168.54h-12.891V67.765h12.891V168.54z"/>
		<path fill="#4A1E69" stroke="#FFFFFF" stroke-miterlimit="10" d="M835.913,93.834c5.265,0,10.004,0.869,14.226,2.607
			c4.221,1.74,7.821,4.245,10.8,7.523c2.979,3.276,5.264,7.274,6.855,11.991c1.587,4.72,2.383,10.083,2.383,16.089
			c0,6.06-0.821,11.458-2.459,16.201c-1.639,4.739-3.949,8.75-6.928,12.026c-2.978,3.279-6.579,5.773-10.799,7.486
			c-4.223,1.715-8.912,2.571-14.077,2.571c-5.115,0-9.768-0.847-13.964-2.532c-4.196-1.687-7.794-4.171-10.801-7.449
			c-3.004-3.276-5.34-7.287-7.003-12.027c-1.664-4.742-2.495-10.167-2.495-16.275c0-6.006,0.821-11.385,2.459-16.126
			c1.64-4.741,3.949-8.752,6.929-12.028c2.979-3.278,6.578-5.772,10.798-7.486C826.058,94.689,830.747,93.834,835.913,93.834z
			 M835.913,160.049c3.078,0,5.895-0.584,8.454-1.75c2.557-1.167,4.744-2.929,6.553-5.288c1.812-2.359,3.229-5.287,4.245-8.788
			c1.02-3.502,1.529-7.561,1.529-12.178c0-4.618-0.51-8.678-1.529-12.178c-1.017-3.501-2.434-6.431-4.245-8.79
			c-1.809-2.357-3.996-4.121-6.553-5.289c-2.56-1.164-5.376-1.749-8.454-1.749c-3.076,0-5.896,0.585-8.453,1.749
			c-2.558,1.168-4.755,2.932-6.594,5.289c-1.834,2.359-3.261,5.288-4.283,8.79c-1.017,3.5-1.524,7.56-1.524,12.178
			c0,4.617,0.508,8.677,1.524,12.178c1.022,3.501,2.45,6.431,4.283,8.788c1.84,2.359,4.036,4.122,6.594,5.288
			S832.837,160.049,835.913,160.049z"/>
		<path fill="#4A1E69" stroke="#FFFFFF" stroke-miterlimit="10" d="M890.004,104.238c2.936-3.52,6.144-6.137,9.619-7.845
			c3.478-1.711,7.229-2.563,11.246-2.559c4.817,0.004,9.089,0.903,12.813,2.695c3.72,1.791,6.857,4.341,9.412,7.645
			c2.554,3.307,4.502,7.269,5.83,11.885c1.342,4.62,2.006,9.761,1.999,15.42c-0.009,5.913-0.796,11.26-2.361,16.05
			c-1.573,4.792-3.735,8.872-6.496,12.247c-2.761,3.374-6.026,5.976-9.801,7.809c-3.778,1.832-7.875,2.748-12.294,2.742
			c-4.021-0.002-7.686-0.615-10.984-1.836c-3.307-1.219-6.317-3.098-9.044-5.635l0.046,33.979l-13.095-22.782l0.233-78.47
			l12.886,0.016L890.004,104.238z M889.957,151.163c5.651,5.919,12.078,8.878,19.277,8.886c2.732,0.004,5.232-0.603,7.492-1.816
			c2.259-1.214,4.173-3.012,5.742-5.397c1.562-2.379,2.782-5.356,3.654-8.932c0.876-3.574,1.316-7.718,1.319-12.438
			c0.007-8.939-1.536-15.741-4.633-20.411c-3.102-4.671-7.432-7.008-12.99-7.018c-7.251-0.005-13.858,4.158-19.822,12.493
			L889.957,151.163z"/>
	</g>
	<g>
		<path fill="#4A1E69" stroke="#FFFFFF" stroke-width="2" stroke-miterlimit="10" d="M103.3,198.779h-5.483
			c-0.08-1.271-0.412-2.424-0.997-3.457c-0.587-1.032-1.361-1.91-2.324-2.637c-0.964-0.724-2.086-1.28-3.367-1.669
			c-1.281-0.386-2.658-0.581-4.128-0.581c-2.025,0-3.857,0.354-5.497,1.059c-1.639,0.706-3.035,1.747-4.186,3.128
			c-1.152,1.381-2.041,3.08-2.667,5.095c-0.626,2.016-0.938,4.334-0.938,6.957c0,2.621,0.307,4.945,0.924,6.971
			c0.614,2.026,1.499,3.729,2.65,5.11c1.152,1.38,2.533,2.434,4.142,3.159c1.61,0.723,3.416,1.086,5.422,1.086
			c1.568,0,3.005-0.193,4.306-0.58s2.423-0.966,3.366-1.73c0.944-0.761,1.698-1.697,2.265-2.798c0.565-1.103,0.908-2.369,1.027-3.8
			h5.483c-0.199,2.145-0.741,4.051-1.624,5.722c-0.884,1.668-2.041,3.078-3.471,4.23c-1.43,1.153-3.099,2.03-5.005,2.635
			c-1.906,0.607-3.984,0.911-6.228,0.911c-2.88,0-5.482-0.491-7.805-1.476c-2.324-0.984-4.301-2.386-5.929-4.199
			c-1.63-1.818-2.881-4.015-3.755-6.585c-0.873-2.57-1.31-5.457-1.31-8.654c0-3.178,0.441-6.054,1.326-8.627
			c0.884-2.57,2.146-4.765,3.784-6.582c1.64-1.817,3.615-3.218,5.929-4.202c2.314-0.982,4.901-1.476,7.762-1.476
			c2.125,0,4.137,0.309,6.033,0.925c1.897,0.615,3.575,1.489,5.035,2.621c1.459,1.134,2.651,2.499,3.575,4.097
			C102.539,195.029,103.101,196.812,103.3,198.779z"/>
		<path fill="#4A1E69" stroke="#FFFFFF" stroke-width="2" stroke-miterlimit="10" d="M140.737,223.18
			c-2.601,2.94-5.521,4.409-8.758,4.409c-6.595,0-9.891-3.594-9.891-10.786v-19.096h5.243v18.828c0,1.212,0.104,2.245,0.312,3.098
			c0.209,0.854,0.532,1.551,0.969,2.086c0.437,0.537,0.999,0.924,1.683,1.161c0.685,0.238,1.505,0.357,2.458,0.357
			c2.919,0,5.582-1.558,7.984-4.676v-20.855h5.185v29.167h-5.185L140.737,223.18L140.737,223.18z"/>
		<path fill="#4A1E69" stroke="#FFFFFF" stroke-width="2" stroke-miterlimit="10" d="M176.209,227.589
			c-7.944,0-12.137-3.138-12.572-9.416h5.243c0.021,3.538,2.444,5.305,7.27,5.305c1.074,0,2.022-0.115,2.847-0.344
			c0.823-0.227,1.509-0.55,2.054-0.968c0.547-0.416,0.964-0.91,1.252-1.477c0.288-0.564,0.432-1.185,0.432-1.861
			c0-0.693-0.109-1.255-0.328-1.683c-0.22-0.427-0.636-0.803-1.251-1.132c-0.616-0.326-1.475-0.645-2.578-0.953
			c-1.103-0.307-2.538-0.699-4.306-1.178c-1.729-0.436-3.218-0.862-4.47-1.278c-1.251-0.42-2.277-0.934-3.082-1.551
			c-0.805-0.616-1.4-1.369-1.789-2.265c-0.387-0.895-0.58-2.026-0.58-3.395c0-1.193,0.252-2.299,0.758-3.322
			c0.507-1.022,1.232-1.913,2.175-2.666c0.945-0.756,2.087-1.347,3.428-1.772c1.34-0.428,2.844-0.642,4.513-0.642
			c7.667,0,11.559,2.722,11.68,8.163h-5.125c-0.178-2.723-2.234-4.081-6.167-4.081c-0.874,0-1.683,0.084-2.428,0.254
			c-0.745,0.169-1.389,0.416-1.936,0.745c-0.547,0.327-0.974,0.734-1.281,1.221c-0.309,0.487-0.463,1.038-0.463,1.652
			c0,0.579,0.075,1.048,0.224,1.418c0.15,0.366,0.493,0.704,1.029,1.012c0.538,0.308,1.336,0.621,2.399,0.938
			c1.063,0.317,2.507,0.696,4.333,1.132c1.766,0.417,3.307,0.855,4.618,1.312c1.31,0.457,2.392,1.014,3.247,1.669
			c0.854,0.653,1.49,1.455,1.906,2.397c0.417,0.945,0.627,2.111,0.627,3.502c0,1.311-0.275,2.533-0.819,3.663
			c-0.547,1.133-1.326,2.111-2.339,2.937c-1.013,0.824-2.24,1.476-3.68,1.95C179.61,227.35,177.997,227.589,176.209,227.589z"/>
		<path fill="#4A1E69" stroke="#FFFFFF" stroke-width="2" stroke-miterlimit="10" d="M217.491,226.903
			c-1.092,0.258-2.334,0.387-3.724,0.387c-1.55,0-2.777-0.188-3.681-0.566c-0.905-0.378-1.595-0.938-2.07-1.683
			c-0.477-0.745-0.784-1.68-0.924-2.801c-0.138-1.121-0.207-2.427-0.207-3.917v-16.595h-3.604v-4.021h3.604v-7.271h5.184v7.271
			h4.766v4.021h-4.766v16.834c0,1.031,0.063,1.85,0.192,2.456c0.128,0.606,0.317,1.072,0.566,1.401
			c0.25,0.326,0.547,0.54,0.894,0.639c0.347,0.1,0.738,0.149,1.177,0.149c0.456,0,0.902-0.019,1.34-0.06
			c0.438-0.04,0.853-0.091,1.251-0.149L217.491,226.903L217.491,226.903z"/>
		<path fill="#4A1E69" stroke="#FFFFFF" stroke-width="2" stroke-miterlimit="10" d="M245.874,196.991
			c2.104,0,4.001,0.348,5.69,1.043c1.687,0.695,3.128,1.698,4.319,3.01c1.192,1.31,2.105,2.91,2.741,4.798
			c0.635,1.886,0.954,4.03,0.954,6.435c0,2.423-0.327,4.584-0.983,6.479c-0.656,1.896-1.579,3.501-2.772,4.811
			c-1.191,1.312-2.631,2.311-4.319,2.995c-1.689,0.685-3.565,1.028-5.631,1.028c-2.045,0-3.909-0.337-5.587-1.014
			c-1.678-0.675-3.118-1.669-4.319-2.979c-1.203-1.311-2.136-2.915-2.8-4.812c-0.665-1.896-0.997-4.065-0.997-6.509
			c0-2.404,0.327-4.555,0.982-6.452c0.656-1.896,1.579-3.5,2.77-4.811c1.191-1.31,2.632-2.31,4.321-2.994
			C241.929,197.335,243.807,196.991,245.874,196.991z M245.874,223.478c1.232,0,2.357-0.232,3.381-0.699
			c1.023-0.467,1.897-1.172,2.62-2.116c0.725-0.944,1.292-2.117,1.699-3.517c0.407-1.398,0.61-3.022,0.61-4.87
			s-0.203-3.471-0.61-4.871c-0.406-1.399-0.974-2.572-1.699-3.517c-0.724-0.943-1.598-1.646-2.62-2.114
			c-1.024-0.466-2.15-0.701-3.381-0.701c-1.231,0-2.36,0.234-3.382,0.701c-1.022,0.467-1.902,1.171-2.635,2.114
			c-0.737,0.944-1.308,2.117-1.715,3.517c-0.407,1.399-0.61,3.023-0.61,4.871s0.203,3.471,0.61,4.87
			c0.406,1.399,0.978,2.572,1.715,3.517c0.733,0.944,1.613,1.648,2.635,2.116C243.513,223.245,244.642,223.478,245.874,223.478z"/>
		<path fill="#4A1E69" stroke="#FFFFFF" stroke-width="2" stroke-miterlimit="10" d="M317.036,226.874h-5.243v-18.83
			c0-1.231-0.084-2.273-0.253-3.128c-0.169-0.854-0.433-1.55-0.79-2.085c-0.355-0.536-0.819-0.926-1.384-1.162
			c-0.566-0.238-1.256-0.358-2.07-0.358c-2.543,0-5.034,1.55-7.477,4.648v20.914h-5.096v-18.83c0-1.231-0.085-2.273-0.254-3.128
			c-0.169-0.854-0.437-1.55-0.805-2.085c-0.366-0.536-0.839-0.926-1.415-1.162c-0.576-0.238-1.271-0.358-2.085-0.358
			c-2.502,0-4.975,1.55-7.417,4.648v20.914h-5.155v-29.167h5.155v3.694c2.502-2.94,5.244-4.41,8.222-4.41
			c4.251,0,6.97,1.768,8.162,5.305c0.993-1.172,1.893-2.106,2.697-2.802s1.554-1.232,2.249-1.609
			c0.697-0.377,1.361-0.62,1.997-0.729c0.635-0.109,1.291-0.164,1.966-0.164c5.997,0,8.997,3.595,8.997,10.786V226.874z"/>
		<path fill="#4A1E69" stroke="#FFFFFF" stroke-width="2" stroke-miterlimit="10" d="M406.661,206.494
			c0,13.586-6.853,20.38-20.557,20.38h-12.782v-40.31h12.782C399.808,186.564,406.661,193.208,406.661,206.494z M401.148,206.494
			c0-2.343-0.233-4.453-0.699-6.331c-0.467-1.878-1.271-3.464-2.414-4.767c-1.142-1.302-2.686-2.298-4.633-2.993
			c-1.945-0.695-4.399-1.043-7.357-1.043h-7.388v30.717h7.388c2.938,0,5.381-0.354,7.328-1.059s3.497-1.728,4.647-3.068
			c1.151-1.341,1.961-2.975,2.429-4.9C400.915,211.125,401.148,208.938,401.148,206.494z"/>
		<path fill="#4A1E69" stroke="#FFFFFF" stroke-width="2" stroke-miterlimit="10" d="M437.902,227.589
			c-2.125,0-4.061-0.344-5.808-1.028c-1.75-0.686-3.249-1.684-4.499-2.995c-1.252-1.31-2.221-2.914-2.906-4.811
			c-0.686-1.896-1.027-4.057-1.027-6.479c0-2.384,0.333-4.52,0.997-6.406c0.665-1.887,1.604-3.485,2.814-4.797
			c1.213-1.313,2.657-2.32,4.336-3.025c1.678-0.704,3.531-1.057,5.556-1.057c2.106,0,4.002,0.348,5.69,1.043
			c1.688,0.695,3.129,1.698,4.32,3.01c1.191,1.31,2.105,2.91,2.741,4.798c0.635,1.886,0.953,4.03,0.953,6.435v1.249h-21.987
			c0.121,1.689,0.422,3.158,0.909,4.411c0.487,1.25,1.116,2.285,1.892,3.098c0.774,0.816,1.673,1.426,2.696,1.833
			c1.022,0.406,2.131,0.61,3.322,0.61c0.853,0,1.709-0.115,2.562-0.344c0.853-0.227,1.625-0.564,2.308-1.012
			c0.685-0.446,1.241-1.003,1.67-1.67c0.426-0.665,0.65-1.424,0.669-2.28h5.451c-0.218,1.512-0.69,2.853-1.415,4.025
			c-0.725,1.17-1.645,2.153-2.756,2.948c-1.114,0.793-2.394,1.4-3.843,1.816C441.1,227.38,439.552,227.589,437.902,227.589z
			 M445.588,209.444c-0.218-1.39-0.566-2.607-1.042-3.65c-0.477-1.042-1.071-1.911-1.787-2.605
			c-0.715-0.695-1.529-1.224-2.443-1.581c-0.914-0.355-1.897-0.535-2.95-0.535c-1.053,0-2.029,0.168-2.936,0.506
			c-0.902,0.34-1.713,0.854-2.428,1.552c-0.714,0.694-1.32,1.567-1.817,2.618c-0.497,1.055-0.843,2.286-1.042,3.696H445.588z"/>
		<path fill="#4A1E69" stroke="#FFFFFF" stroke-width="2" stroke-miterlimit="10" d="M492.652,197.707l-10.994,29.167h-4.647
			l-10.996-29.167h5.604l7.716,22.792l7.745-22.792H492.652z"/>
		<path fill="#4A1E69" stroke="#FFFFFF" stroke-width="2" stroke-miterlimit="10" d="M521.836,227.589
			c-2.125,0-4.062-0.344-5.809-1.028c-1.752-0.686-3.248-1.684-4.5-2.995c-1.252-1.31-2.22-2.914-2.906-4.811
			c-0.685-1.896-1.027-4.057-1.027-6.479c0-2.384,0.333-4.52,0.997-6.406c0.666-1.887,1.604-3.485,2.815-4.797
			c1.212-1.313,2.658-2.32,4.337-3.025c1.679-0.704,3.531-1.057,5.555-1.057c2.106,0,4.002,0.348,5.691,1.043
			c1.686,0.695,3.128,1.698,4.318,3.01c1.191,1.31,2.104,2.91,2.739,4.798c0.635,1.886,0.955,4.03,0.955,6.435v1.249h-21.989
			c0.121,1.689,0.423,3.158,0.909,4.411c0.487,1.25,1.118,2.285,1.892,3.098c0.774,0.816,1.677,1.426,2.695,1.833
			c1.025,0.406,2.133,0.61,3.324,0.61c0.854,0,1.707-0.115,2.561-0.344c0.854-0.227,1.624-0.564,2.311-1.012
			c0.684-0.446,1.238-1.003,1.67-1.67c0.427-0.665,0.648-1.424,0.67-2.28h5.449c-0.22,1.512-0.69,2.853-1.414,4.025
			c-0.726,1.17-1.645,2.153-2.757,2.948c-1.111,0.793-2.395,1.4-3.843,1.816C525.032,227.38,523.485,227.589,521.836,227.589z
			 M529.522,209.444c-0.218-1.39-0.566-2.607-1.043-3.65c-0.474-1.042-1.071-1.911-1.786-2.605c-0.717-0.695-1.53-1.224-2.445-1.581
			c-0.912-0.355-1.896-0.535-2.949-0.535c-1.055,0-2.031,0.168-2.936,0.506c-0.901,0.34-1.711,0.854-2.426,1.552
			c-0.716,0.694-1.323,1.567-1.816,2.618c-0.499,1.055-0.847,2.286-1.043,3.696H529.522z"/>
		<path fill="#4A1E69" stroke="#FFFFFF" stroke-width="2" stroke-miterlimit="10" d="M558.174,226.874h-5.156v-40.31h5.156V226.874z
			"/>
		<path fill="#4A1E69" stroke="#FFFFFF" stroke-width="2" stroke-miterlimit="10" d="M589.86,196.991c2.104,0,4,0.348,5.69,1.043
			c1.688,0.695,3.127,1.698,4.319,3.01c1.19,1.31,2.106,2.91,2.741,4.798c0.636,1.886,0.951,4.03,0.951,6.435
			c0,2.423-0.327,4.584-0.98,6.479c-0.658,1.896-1.58,3.501-2.773,4.811c-1.19,1.312-2.633,2.311-4.319,2.995
			s-3.566,1.028-5.63,1.028c-2.045,0-3.908-0.337-5.587-1.014c-1.679-0.675-3.12-1.669-4.318-2.979
			c-1.202-1.311-2.136-2.915-2.802-4.812c-0.665-1.896-0.998-4.065-0.998-6.509c0-2.404,0.327-4.555,0.984-6.452
			c0.654-1.896,1.576-3.5,2.77-4.811c1.191-1.31,2.634-2.31,4.321-2.994C585.916,197.335,587.794,196.991,589.86,196.991z
			 M589.86,223.478c1.233,0,2.359-0.232,3.383-0.699c1.021-0.467,1.896-1.172,2.619-2.116c0.728-0.944,1.294-2.117,1.7-3.517
			c0.406-1.398,0.61-3.022,0.61-4.87s-0.204-3.471-0.61-4.871c-0.406-1.399-0.973-2.572-1.7-3.517
			c-0.723-0.943-1.6-1.646-2.619-2.114c-1.024-0.466-2.15-0.701-3.383-0.701c-1.23,0-2.36,0.234-3.38,0.701
			c-1.024,0.467-1.904,1.171-2.638,2.114c-0.733,0.944-1.309,2.117-1.716,3.517c-0.406,1.399-0.609,3.023-0.609,4.871
			s0.203,3.471,0.609,4.87c0.407,1.399,0.982,2.572,1.716,3.517s1.613,1.648,2.638,2.116
			C587.5,223.245,588.63,223.478,589.86,223.478z"/>
		<path fill="#4A1E69" stroke="#FFFFFF" stroke-width="2" stroke-miterlimit="10" d="M626.732,201.161
			c1.17-1.409,2.453-2.457,3.844-3.142c1.388-0.684,2.889-1.028,4.497-1.028c1.926,0,3.638,0.357,5.125,1.073
			c1.49,0.715,2.743,1.733,3.768,3.055c1.024,1.32,1.802,2.904,2.34,4.752s0.803,3.903,0.803,6.167c0,2.365-0.312,4.504-0.938,6.42
			c-0.624,1.92-1.489,3.551-2.59,4.9c-1.104,1.352-2.412,2.394-3.919,3.131c-1.512,0.733-3.149,1.102-4.915,1.102
			c-1.609,0-3.073-0.243-4.396-0.729c-1.321-0.487-2.528-1.237-3.619-2.251v13.467h-5.154v-40.369h5.154L626.732,201.161
			L626.732,201.161z M626.732,219.932c2.264,2.364,4.837,3.545,7.716,3.545c1.089,0,2.089-0.244,2.994-0.73
			c0.905-0.487,1.667-1.206,2.294-2.16c0.626-0.953,1.113-2.146,1.458-3.574c0.349-1.432,0.522-3.091,0.522-4.977
			c0-3.575-0.621-6.296-1.862-8.163c-1.238-1.866-2.977-2.8-5.199-2.8c-2.899,0-5.541,1.669-7.924,5.005L626.732,219.932
			L626.732,219.932z"/>
		<path fill="#4A1E69" stroke="#FFFFFF" stroke-width="2" stroke-miterlimit="10" d="M704.57,226.874h-5.243v-18.83
			c0-1.231-0.088-2.273-0.254-3.128c-0.171-0.854-0.432-1.55-0.792-2.085c-0.355-0.536-0.818-0.926-1.384-1.162
			c-0.566-0.238-1.257-0.358-2.07-0.358c-2.544,0-5.036,1.55-7.478,4.648v20.914h-5.095v-18.83c0-1.231-0.085-2.273-0.255-3.128
			c-0.168-0.854-0.436-1.55-0.803-2.085c-0.367-0.536-0.838-0.926-1.417-1.162c-0.574-0.238-1.271-0.358-2.084-0.358
			c-2.503,0-4.975,1.55-7.418,4.648v20.914h-5.156v-29.167h5.156v3.694c2.502-2.94,5.243-4.41,8.224-4.41
			c4.251,0,6.971,1.768,8.162,5.305c0.992-1.172,1.892-2.106,2.694-2.802c0.807-0.695,1.557-1.232,2.249-1.609
			c0.697-0.377,1.361-0.62,1.999-0.729c0.635-0.109,1.29-0.164,1.964-0.164c5.998,0,8.999,3.595,8.999,10.786L704.57,226.874
			L704.57,226.874z"/>
		<path fill="#4A1E69" stroke="#FFFFFF" stroke-width="2" stroke-miterlimit="10" d="M736.643,227.589
			c-2.125,0-4.06-0.344-5.809-1.028c-1.747-0.686-3.248-1.684-4.498-2.995c-1.252-1.31-2.218-2.914-2.904-4.811
			c-0.688-1.896-1.029-4.057-1.029-6.479c0-2.384,0.335-4.52,1-6.406c0.664-1.887,1.6-3.485,2.813-4.797
			c1.21-1.313,2.655-2.32,4.333-3.025c1.68-0.704,3.532-1.057,5.56-1.057c2.104,0,3.999,0.348,5.688,1.043s3.128,1.698,4.319,3.01
			c1.191,1.31,2.107,2.91,2.743,4.798c0.635,1.886,0.951,4.03,0.951,6.435v1.249h-21.985c0.119,1.689,0.422,3.158,0.908,4.411
			c0.487,1.25,1.114,2.285,1.893,3.098c0.774,0.816,1.671,1.426,2.695,1.833c1.021,0.406,2.128,0.61,3.319,0.61
			c0.855,0,1.712-0.115,2.565-0.344c0.853-0.227,1.624-0.564,2.307-1.012c0.686-0.446,1.242-1.003,1.671-1.67
			c0.426-0.665,0.652-1.424,0.669-2.28h5.452c-0.219,1.512-0.69,2.853-1.417,4.025c-0.723,1.17-1.642,2.153-2.754,2.948
			c-1.114,0.793-2.395,1.4-3.842,1.816C739.845,227.38,738.292,227.589,736.643,227.589z M744.33,209.444
			c-0.219-1.39-0.566-2.607-1.042-3.65c-0.477-1.042-1.072-1.911-1.788-2.605c-0.716-0.695-1.528-1.224-2.441-1.581
			c-0.916-0.355-1.9-0.535-2.949-0.535c-1.053,0-2.031,0.168-2.936,0.506c-0.905,0.34-1.716,0.854-2.432,1.552
			c-0.71,0.694-1.316,1.567-1.816,2.618c-0.497,1.055-0.841,2.286-1.04,3.696H744.33z"/>
		<path fill="#4A1E69" stroke="#FFFFFF" stroke-width="2" stroke-miterlimit="10" d="M772.98,201.401
			c1.29-1.49,2.668-2.597,4.127-3.322c1.462-0.725,2.982-1.088,4.573-1.088c6.616,0,9.922,3.595,9.922,10.786v19.097h-5.242v-18.83
			c0-2.403-0.427-4.125-1.269-5.17c-0.842-1.042-2.219-1.563-4.126-1.563c-2.643,0-5.304,1.55-7.986,4.648v20.914h-5.154v-29.167
			h5.154L772.98,201.401L772.98,201.401z"/>
		<path fill="#4A1E69" stroke="#FFFFFF" stroke-width="2" stroke-miterlimit="10" d="M822.693,226.903
			c-1.09,0.258-2.33,0.387-3.723,0.387c-1.547,0-2.774-0.188-3.681-0.566c-0.903-0.378-1.595-0.938-2.069-1.683
			c-0.476-0.745-0.785-1.68-0.923-2.801c-0.139-1.121-0.208-2.427-0.208-3.917v-16.595h-3.607v-4.021h3.607v-7.271h5.186v7.271
			h4.765v4.021h-4.765v16.834c0,1.031,0.061,1.85,0.191,2.456c0.127,0.606,0.314,1.072,0.566,1.401
			c0.248,0.326,0.546,0.54,0.895,0.639c0.345,0.1,0.737,0.149,1.176,0.149c0.455,0,0.902-0.019,1.342-0.06
			c0.436-0.04,0.854-0.091,1.248-0.149V226.903z"/>
	</g>
	<path fill="#4A1E69" stroke="#FFFFFF" stroke-miterlimit="10" d="M884.053,186.562"/>
	<g>
		<g>
			<g id="Icons_1_">
				<g>
					<path fill="#4A1E69" stroke="#FFFFFF" stroke-miterlimit="10" d="M201.283,78.915H187.79c-1.045,0-1.893,0.85-1.893,1.893
						c0,1.046,0.848,1.895,1.893,1.895h13.493c1.045,0,1.891-0.85,1.891-1.895C203.174,79.765,202.328,78.915,201.283,78.915z"/>
					<path fill="#4A1E69" stroke="#FFFFFF" stroke-miterlimit="10" d="M191.062,89.944c0.256,1.7,1.708,3.009,3.477,3.009
						c1.769,0,3.224-1.31,3.481-3.009c2.316-0.132,4.158-2.039,4.158-4.389h-15.285C186.893,87.909,188.741,89.813,191.062,89.944z"
						/>
					<path fill="#4A1E69" stroke="#FFFFFF" stroke-miterlimit="10" d="M194.539,27.811c1.397,0,2.526-1.132,2.526-2.524v-5.871
						c0-1.394-1.128-2.523-2.526-2.523c-1.394,0-2.521,1.13-2.521,2.523v5.871C192.017,26.679,193.145,27.811,194.539,27.811z"/>
					<path fill="#4A1E69" stroke="#FFFFFF" stroke-miterlimit="10" d="M177.98,31.484c0.498,0.68,1.266,1.041,2.047,1.041
						c0.513,0,1.032-0.155,1.48-0.479c1.125-0.817,1.379-2.398,0.56-3.525l-3.448-4.75c-0.822-1.126-2.396-1.379-3.529-0.562
						c-1.125,0.819-1.377,2.396-0.557,3.525L177.98,31.484z"/>
					<path fill="#4A1E69" stroke="#FFFFFF" stroke-miterlimit="10" d="M211.097,68.475c-0.819-1.126-2.396-1.375-3.525-0.558
						c-1.126,0.819-1.378,2.399-0.556,3.525l3.45,4.75c0.494,0.677,1.262,1.039,2.045,1.039c0.514,0,1.034-0.154,1.482-0.481
						c1.123-0.817,1.375-2.398,0.558-3.523L211.097,68.475z"/>
					<path fill="#4A1E69" stroke="#FFFFFF" stroke-miterlimit="10" d="M171.835,39.949l-5.581-1.816
						c-1.34-0.428-2.752,0.298-3.182,1.622c-0.433,1.322,0.292,2.75,1.619,3.181l5.585,1.815c0.26,0.084,0.521,0.126,0.778,0.126
						c1.064,0,2.052-0.68,2.401-1.746C173.887,41.808,173.161,40.379,171.835,39.949z"/>
					<path fill="#4A1E69" stroke="#FFFFFF" stroke-miterlimit="10" d="M224.388,57.029l-5.584-1.817
						c-1.326-0.424-2.749,0.298-3.181,1.621c-0.429,1.325,0.296,2.751,1.622,3.178l5.585,1.816c0.255,0.082,0.52,0.124,0.777,0.124
						c1.064,0,2.052-0.678,2.401-1.746C226.44,58.88,225.713,57.458,224.388,57.029z"/>
					<path fill="#4A1E69" stroke="#FFFFFF" stroke-miterlimit="10" d="M170.277,55.211l-5.587,1.813
						c-1.326,0.43-2.053,1.851-1.621,3.178c0.344,1.066,1.334,1.747,2.4,1.747c0.256,0,0.519-0.045,0.777-0.127l5.585-1.813
						c1.329-0.427,2.054-1.853,1.622-3.177C173.027,55.51,171.614,54.785,170.277,55.211z"/>
					<path fill="#4A1E69" stroke="#FFFFFF" stroke-miterlimit="10" d="M218.025,44.877c0.259,0,0.522-0.042,0.779-0.125l5.584-1.814
						c1.325-0.43,2.052-1.857,1.622-3.182c-0.433-1.323-1.862-2.047-3.178-1.619l-5.585,1.813c-1.327,0.431-2.052,1.852-1.622,3.182
						C215.972,44.196,216.963,44.877,218.025,44.877z"/>
					<path fill="#4A1E69" stroke="#FFFFFF" stroke-miterlimit="10" d="M177.984,68.475l-3.453,4.746
						c-0.821,1.128-0.575,2.708,0.556,3.525c0.445,0.329,0.963,0.483,1.479,0.483c0.782,0,1.551-0.359,2.043-1.037l3.457-4.75
						c0.819-1.127,0.568-2.706-0.56-3.525C180.386,67.094,178.801,67.347,177.984,68.475z"/>
					<path fill="#4A1E69" stroke="#FFFFFF" stroke-miterlimit="10" d="M210.464,23.771l-3.45,4.75
						c-0.82,1.128-0.568,2.708,0.558,3.525c0.449,0.325,0.968,0.479,1.484,0.479c0.779,0,1.546-0.361,2.043-1.041l3.449-4.75
						c0.817-1.129,0.565-2.706-0.558-3.525C212.856,22.389,211.283,22.643,210.464,23.771z"/>
					<path fill="#4A1E69" stroke="#FFFFFF" stroke-miterlimit="10" d="M212.766,50.073c0-10.068-8.161-18.225-18.227-18.225
						c-10.068,0-18.229,8.157-18.229,18.225c0,4.247,1.46,8.146,3.898,11.243c2.14,2.714,4.165,5.672,5.918,8.655v6.053h16.718
						v-5.892c1.74-2.898,3.988-6.237,6.015-8.814C211.304,58.222,212.766,54.321,212.766,50.073z"/>
				</g>
			</g>
		</g>
	</g>
	<path fill="#4A1E69" d="M838.731,205.052"/>
	<path fill="#4A1E69" stroke="#FFFFFF" stroke-miterlimit="10" d="M884.053,186.562"/>
	<path fill="#4A1E69" d="M879.251,198.163"/>
	<g>
		<g>
			<path fill="#4A1E69" stroke="#FFFFFF" stroke-width="2" stroke-miterlimit="10" d="M833.329,201.359
				c-0.388,1.471-0.182,2.995,0.6,4.318l6.785,11.647c1.533,2.627,5.162,3.587,7.781,2.052l11.011-6.421
				c0.492,0.786,1.238,1.321,2.078,1.54c0.872,0.224,1.827,0.13,2.678-0.365l23.264-13.564c0.821-0.47,1.397-1.245,1.648-2.152
				c0.235-0.907,0.096-1.868-0.377-2.684l-12.403-21.272c-0.486-0.844-1.272-1.41-2.151-1.638c-0.871-0.234-1.838-0.126-2.681,0.361
				l-23.266,13.562c-0.811,0.479-1.396,1.254-1.64,2.157c-0.222,0.871-0.109,1.785,0.32,2.571l-11,6.415
				C834.653,198.651,833.719,199.883,833.329,201.359z M838.153,201.62l10.993-6.409l8.174,14.027l-10.997,6.406
				c-0.62,0.357-1.515,0.132-1.878-0.5l-6.789-11.646C837.273,202.848,837.497,201.998,838.153,201.62z"/>
			<path fill="#4A1E69" stroke="#FFFFFF" stroke-width="2" stroke-miterlimit="10" d="M847.501,211.919
				c1.162-0.683,1.551-2.176,0.886-3.333c-0.686-1.16-2.183-1.557-3.342-0.88c-1.154,0.675-1.554,2.171-0.872,3.335
				C844.854,212.203,846.342,212.596,847.501,211.919z"/>
			<path fill="#4A1E69" stroke="#FFFFFF" stroke-width="2" stroke-miterlimit="10" d="M843.988,205.886
				c1.162-0.677,1.555-2.17,0.876-3.325c-0.676-1.167-2.167-1.556-3.328-0.885c-1.163,0.677-1.556,2.169-0.879,3.336
				C841.332,206.175,842.826,206.562,843.988,205.886z"/>
		</g>
	</g>
</g>
</svg>
